<?xml version="1.0" encoding="UTF-8" standalone="no"?>
<svg
   viewBox="0 0 788.96503 783.26196"
   version="1.1"
   id="svg1"
   sodipodi:docname="cross-white_red.svg"
   inkscape:version="1.4 (86a8ad7, 2024-10-11)"
   width="788.96503"
   height="783.26196"
   xmlns:inkscape="http://www.inkscape.org/namespaces/inkscape"
   xmlns:sodipodi="http://sodipodi.sourceforge.net/DTD/sodipodi-0.dtd"
   xmlns="http://www.w3.org/2000/svg"
   xmlns:svg="http://www.w3.org/2000/svg">
  <defs
     id="defs1" />
  <sodipodi:namedview
     id="namedview1"
     pagecolor="#ffffff"
     bordercolor="#000000"
     borderopacity="0.25"
     inkscape:showpageshadow="2"
     inkscape:pageopacity="0.0"
     inkscape:pagecheckerboard="0"
     inkscape:deskcolor="#d1d1d1"
     inkscape:zoom="0.86425781"
     inkscape:cx="394.55819"
     inkscape:cy="476.13107"
     inkscape:window-width="1920"
     inkscape:window-height="1129"
     inkscape:window-x="-8"
     inkscape:window-y="-8"
     inkscape:window-maximized="1"
     inkscape:current-layer="svg1" />
  <ellipse
     style="fill:#b61c0d;fill-opacity:1;stroke-width:1.11855"
     id="path2"
     cx="394.48251"
     cy="391.63098"
     rx="394.48251"
     ry="391.63098" />
  <path
     fill="#ffffff"
     d="m 422.78717,391.60598 221.8,-221.9 c 7.8,-7.8 7.8,-20.5 0,-28.3 -7.8,-7.8 -20.5,-7.8 -28.3,0 l -221.8,221.9 -221.89999,-221.8 c -7.8,-7.9 -20.4,-7.9 -28.2,0 -7.8,7.9 -7.8,20.5 0,28.3 l 221.79999,221.8 -221.79999,221.9 a 20.04,20.04 0 0 0 14.1,34.2 c 5.1,0 10.2,-2 14.1,-5.9 l 221.89999,-221.9 221.9,221.9 c 3.9,3.9 9,5.9 14.1,5.9 5.1,0 10.2,-2 14.1,-5.9 7.8,-7.8 7.8,-20.5 0,-28.3 z"
     id="path1" />
</svg>
