<svg version="1.1" xmlns="http://www.w3.org/2000/svg" width="1200px" height="1200px" transform="rotate(0) scale(1, 1)">
<path d="M0 0 C1.43771759 -0.00855011 1.43771759 -0.00855011 2.90447998 -0.01727295 C4.92817094 -0.02667134 6.95187686 -0.03323625 8.97558594 -0.03710938 C11.99703564 -0.04671653 15.01777472 -0.07774883 18.0390625 -0.109375 C35.10823568 -0.20321682 51.84490311 1.3779312 68.359375 5.890625 C69.3086084 6.14626221 70.2578418 6.40189941 71.23583984 6.6652832 C105.99274723 16.37464409 134.83570614 35.63663972 160.796875 60.203125 C161.4775 60.84121094 162.158125 61.47929688 162.859375 62.13671875 C167.98501415 67.08438432 172.38866299 72.61839695 176.796875 78.203125 C177.51875 79.10804687 178.240625 80.01296875 178.984375 80.9453125 C197.21927877 104.45531343 209.36501295 131.22464644 215.609375 160.265625 C215.8043457 161.16112061 215.99931641 162.05661621 216.20019531 162.97924805 C219.64081785 180.12319657 220.08802474 197.42892324 220.02392578 214.85253906 C220.02336 217.04265335 220.02368148 219.23276801 220.02481079 221.42288208 C220.02537879 227.30170973 220.0137152 233.18045384 219.99966288 239.05926228 C219.98706217 245.2277972 219.98597772 251.39633456 219.98361206 257.56488037 C219.97742451 269.21608579 219.96105099 280.86725316 219.94091308 292.51844192 C219.91846871 305.79555429 219.90753929 319.07266215 219.89752221 332.34978914 C219.87668202 359.63425543 219.84155967 386.91868807 219.796875 414.203125 C220.41302673 414.40015518 221.02917847 414.59718536 221.66400146 414.80018616 C222.87784515 415.1950547 222.87784515 415.1950547 224.11621094 415.59790039 C224.91798767 415.85680557 225.7197644 416.11571075 226.5458374 416.38246155 C229.38531443 417.41765306 231.62624101 418.8411802 234.046875 420.640625 C234.88347656 421.259375 235.72007812 421.878125 236.58203125 422.515625 C237.31292969 423.0725 238.04382813 423.629375 238.796875 424.203125 C239.68375 424.8425 240.570625 425.481875 241.484375 426.140625 C248.12858847 432.06654512 256.47691861 440.56478351 259.86621094 448.80200195 C261.49971376 451.31567406 261.49971376 451.31567406 263.63116455 451.70011902 C265.92586779 451.92146863 268.17918101 451.99860552 270.484375 452.015625 C271.28166016 452.04076172 272.07894531 452.06589844 272.90039062 452.09179688 C274.8653552 452.15062815 276.83116891 452.17974904 278.796875 452.203125 C278.78799255 451.59448608 278.77911011 450.98584717 278.7699585 450.35876465 C278.6811682 443.99936352 278.62100958 437.64013975 278.57714844 431.28027344 C278.55708674 428.90975791 278.52983074 426.53929155 278.49511719 424.16894531 C278.44636082 420.75313149 278.42385101 417.33797445 278.40625 413.921875 C278.38560486 412.86947632 278.36495972 411.81707764 278.34368896 410.73278809 C278.34139909 403.15026025 279.57381641 397.46022999 285.015625 391.9609375 C285.7684375 391.42210937 286.52125 390.88328125 287.296875 390.328125 C288.0496875 389.77382813 288.8025 389.21953125 289.578125 388.6484375 C296.14011494 384.3739018 302.04609156 384.51590627 309.796875 385.203125 C315.87571854 386.82221092 321.17870165 391.11020252 324.796875 396.203125 C327.82697994 402.79022813 328.20025784 408.29176755 328.08984375 415.484375 C328.08559891 416.53846558 328.08135406 417.59255615 328.07698059 418.67858887 C328.06028905 422.02036905 328.02265409 425.3615294 327.984375 428.703125 C327.96931588 430.97915791 327.95562963 433.25520035 327.94335938 435.53125 C327.91041681 441.08875046 327.86031306 446.64589342 327.796875 452.203125 C329.24308228 452.19526978 329.24308228 452.19526978 330.71850586 452.18725586 C334.28360064 452.16920382 337.84869136 452.15769226 341.41381836 452.14819336 C342.95907266 452.1431536 344.50432216 452.1363218 346.04956055 452.12768555 C348.26612529 452.11560424 350.48262718 452.10989327 352.69921875 452.10546875 C353.3940184 452.10030746 354.08881805 452.09514618 354.80467224 452.08982849 C356.4691683 452.08963223 358.13352999 452.14123371 359.796875 452.203125 C361.66490367 454.07115367 360.94423297 457.21861448 360.95800781 459.71069336 C360.96297272 460.39037674 360.96793762 461.07006012 360.97305298 461.77033997 C360.98770684 464.02789303 360.99448157 466.28537586 361 468.54296875 C361.0057484 470.1061656 361.01150616 471.66936242 361.01727295 473.2325592 C361.02779185 476.5136854 361.03362881 479.79478703 361.03710938 483.07592773 C361.04259882 487.28745125 361.06663242 491.4986522 361.09508133 495.71007442 C361.11367214 498.93991556 361.11891137 502.16967842 361.12044525 505.39956856 C361.12347993 506.95256885 361.13153575 508.5055675 361.14463043 510.05851555 C361.16161901 512.22798334 361.15982904 514.39665545 361.15332031 516.56616211 C361.15696594 517.80224716 361.16061157 519.03833221 361.16436768 520.31187439 C360.9824588 521.74304344 360.9824588 521.74304344 360.796875 523.203125 C357.10529182 525.66418045 354.33063946 525.45888293 350.06640625 525.3984375 C349.31598557 525.3956076 348.56556488 525.39277771 347.79240417 525.38986206 C345.39789825 525.37867562 343.00376769 525.35357428 340.609375 525.328125 C338.98503145 525.31809319 337.36068203 525.30896769 335.73632812 525.30078125 C331.756366 525.27874137 327.77668412 525.2442224 323.796875 525.203125 C323.79964038 525.97191136 323.80240576 526.74069773 323.80525494 527.53278065 C323.871942 546.36900271 323.92136102 565.20520076 323.95231152 584.0415163 C323.96768248 593.15117485 323.98858127 602.26075388 324.02319336 611.37036133 C324.05339903 619.32412836 324.07252065 627.27783773 324.07914048 635.23166054 C324.08300088 639.4305936 324.0918602 643.62936192 324.11406517 647.82824135 C324.49893004 723.66949467 303.53007666 795.48074645 252.796875 853.203125 C252.19746094 853.90179687 251.59804688 854.60046875 250.98046875 855.3203125 C249.27444234 857.30176968 247.5408789 859.25499744 245.796875 861.203125 C244.97316406 862.13125 244.14945313 863.059375 243.30078125 864.015625 C199.98325776 912.25284629 140.12669438 949.01835079 75.796875 960.203125 C74.146875 960.203125 72.496875 960.203125 70.796875 960.203125 C70.796875 987.263125 70.796875 1014.323125 70.796875 1042.203125 C89.71902344 1042.15091797 89.71902344 1042.15091797 109.0234375 1042.09765625 C117.02604352 1042.08232354 125.02863885 1042.06775696 133.03125 1042.05664062 C145.72692515 1042.03886322 158.42254041 1042.01800256 171.11816406 1041.97680664 C180.36571086 1041.94681378 189.61320892 1041.9275286 198.86080301 1041.92085952 C203.75292204 1041.91696396 208.6449017 1041.90787085 213.53697586 1041.88593483 C218.1514726 1041.86541316 222.76577392 1041.85932255 227.38031197 1041.86380196 C229.06440229 1041.86298371 230.74849988 1041.85711219 232.43255043 1041.84550858 C252.29769285 1041.71546721 269.59211662 1045.14963741 284.39453125 1059.5390625 C305.48914306 1082.93178649 299.796875 1108.60052401 299.796875 1140.203125 C109.056875 1140.203125 -81.683125 1140.203125 -278.203125 1140.203125 C-278.203125 1075.55408654 -278.203125 1075.55408654 -262.421875 1059.2265625 C-246.24397605 1044.47277437 -229.51450307 1041.88153137 -208.4309082 1041.97607422 C-206.65590929 1041.97663929 -204.8809099 1041.97631991 -203.10591125 1041.97518921 C-198.31741756 1041.97461843 -193.5290253 1041.98632804 -188.74055505 1042.00033712 C-183.72508787 1042.01289049 -178.70961804 1042.0140186 -173.69413757 1042.01638794 C-164.21008559 1042.02258922 -154.72608004 1042.03898165 -145.24204844 1042.05908692 C-132.41675709 1042.08568169 -119.59145293 1042.09642949 -106.76614094 1042.10809135 C-86.57843422 1042.12686328 -66.39082546 1042.16671797 -46.203125 1042.203125 C-46.203125 1015.143125 -46.203125 988.083125 -46.203125 960.203125 C-49.833125 959.873125 -53.463125 959.543125 -57.203125 959.203125 C-59.236527 958.80784518 -61.26147373 958.35881944 -63.26171875 957.8203125 C-64.29683594 957.54388916 -65.33195312 957.26746582 -66.3984375 956.98266602 C-68.00332031 956.53491821 -68.00332031 956.53491821 -69.640625 956.078125 C-70.77371094 955.76609131 -71.90679687 955.45405762 -73.07421875 955.13256836 C-111.4893089 944.3634732 -147.20362791 926.42860744 -178.203125 901.203125 C-178.96616943 900.584375 -178.96616943 900.584375 -179.74462891 899.953125 C-193.66097801 888.60907404 -207.37299964 876.30262374 -219.078125 862.6640625 C-220.72682462 860.75472287 -222.39374909 858.86965572 -224.078125 856.9921875 C-276.94132046 797.66604269 -298.92115734 723.62604108 -298.50730681 645.36840844 C-298.48819149 641.1244615 -298.48676279 636.88050374 -298.48323059 632.63652039 C-298.47401015 624.64751645 -298.44953626 616.65863984 -298.41918212 608.66969126 C-298.38532106 599.55438365 -298.36907352 590.43906903 -298.35409582 581.3237139 C-298.32297419 562.61677951 -298.27041482 543.90996259 -298.203125 525.203125 C-299.72450073 525.21883545 -299.72450073 525.21883545 -301.27661133 525.23486328 C-305.03927074 525.27106089 -308.80191476 525.29402456 -312.56469727 525.31298828 C-314.19330432 525.32304642 -315.82189332 525.33669458 -317.45043945 525.35400391 C-319.79122372 525.37826074 -322.13176924 525.38960983 -324.47265625 525.3984375 C-325.56499321 525.41392136 -325.56499321 525.41392136 -326.67939758 525.42971802 C-330.41587569 525.43054749 -332.00987556 525.33195796 -335.203125 523.203125 C-336.30280731 519.90407808 -336.34337355 517.43379356 -336.36425781 513.95922852 C-336.37386536 512.671017 -336.3834729 511.38280548 -336.39337158 510.05555725 C-336.39821896 508.64771705 -336.40249794 507.2398748 -336.40625 505.83203125 C-336.4120032 504.38858539 -336.41776092 502.94513955 -336.42352295 501.50169373 C-336.43402318 498.47630457 -336.43987253 495.45094192 -336.44335938 492.42553711 C-336.4488483 488.5505568 -336.47288856 484.67592712 -336.50133133 480.80105686 C-336.51996026 477.81991045 -336.52516339 474.83884856 -336.52669525 471.85764885 C-336.52972073 470.42910783 -336.53774579 469.00056826 -336.55088043 467.57208443 C-336.56794753 465.57359907 -336.5642149 463.57496885 -336.55957031 461.57641602 C-336.56321594 460.43962906 -336.56686157 459.3028421 -336.57061768 458.13160706 C-336.16073192 454.86530228 -335.5683679 453.47129441 -333.203125 451.203125 C-330.41740146 450.84713422 -328.03275909 450.73601696 -325.25390625 450.8125 C-324.48128952 450.81815979 -323.70867279 450.82381958 -322.91264343 450.82965088 C-320.44633871 450.85203173 -317.98149008 450.90222797 -315.515625 450.953125 C-313.84311995 450.97318794 -312.17059211 450.99143908 -310.49804688 451.0078125 C-306.39917904 451.05190169 -302.30139883 451.12093825 -298.203125 451.203125 C-298.21977959 450.27137451 -298.21977959 450.27137451 -298.23677063 449.32080078 C-298.34774089 442.83168984 -298.42294828 436.34285024 -298.4777832 429.85302734 C-298.50286372 427.43397058 -298.53693649 425.01498911 -298.58032227 422.59619141 C-298.64125545 419.11081316 -298.66940063 415.62644036 -298.69140625 412.140625 C-298.71721268 411.06635254 -298.7430191 409.99208008 -298.76960754 408.88525391 C-298.77259227 400.82027576 -296.77790856 396.05289192 -291.32421875 390.1796875 C-290.76863281 389.73367188 -290.21304688 389.28765625 -289.640625 388.828125 C-289.08246094 388.36664063 -288.52429688 387.90515625 -287.94921875 387.4296875 C-281.58739205 382.96075331 -274.68470095 383.59480256 -267.203125 384.203125 C-260.22530131 385.84044111 -255.06331087 391.37660031 -251.203125 397.203125 C-248.98906471 403.22940894 -248.94146976 408.7928194 -249.0078125 415.16796875 C-249.0106424 416.20127823 -249.01347229 417.23458771 -249.01638794 418.29920959 C-249.02752853 421.57980222 -249.05262196 424.86011573 -249.078125 428.140625 C-249.0881627 430.37304292 -249.09728717 432.60546514 -249.10546875 434.83789062 C-249.12574103 440.29316121 -249.16490186 445.7478329 -249.203125 451.203125 C-241.613125 451.203125 -234.023125 451.203125 -226.203125 451.203125 C-225.543125 449.553125 -224.883125 447.903125 -224.203125 446.203125 C-219.69758412 437.77001351 -212.87403874 427.04386828 -203.75076962 423.15881348 C-200.39724309 421.53896565 -198.52998758 420.14070482 -196.203125 417.203125 C-194.19930134 410.40213848 -194.91480921 402.85045344 -195.02368164 395.84375 C-195.02155028 393.63375013 -195.01497771 391.42375075 -195.00430298 389.21377563 C-194.98750566 383.21214573 -195.03179219 377.21230983 -195.08605123 371.21096039 C-195.13169744 364.91162865 -195.11829229 358.61244027 -195.11045837 352.31298828 C-195.10474147 341.71722282 -195.1317218 331.12196034 -195.1862793 320.52636719 C-195.24203287 309.67285561 -195.28574779 298.81945801 -195.30737305 287.96582031 C-195.3087095 287.29962866 -195.31004594 286.633437 -195.31142289 285.94705772 C-195.33316786 274.77204114 -195.34216509 263.59701751 -195.34772009 252.42198181 C-195.35327734 244.94592342 -195.37828611 237.4702647 -195.42045319 229.99432564 C-195.44455119 225.3082541 -195.45643706 220.62219864 -195.46591568 215.93607712 C-195.47299761 213.78810551 -195.4852547 211.64014259 -195.50353432 209.49223709 C-195.65865026 190.82538726 -194.313311 172.19433486 -189.515625 154.078125 C-189.2592627 153.09207275 -189.00290039 152.10602051 -188.73876953 151.09008789 C-177.33649724 108.7605934 -151.80311254 70.19199012 -117.203125 43.203125 C-116.38545654 42.56286377 -116.38545654 42.56286377 -115.55126953 41.90966797 C-82.80800904 16.47575219 -41.75153345 0.19850771 0 0 Z M-110.203125 67.203125 C-111.00621094 67.89664063 -111.80929687 68.59015625 -112.63671875 69.3046875 C-123.71230207 79.08437574 -133.43160933 89.34828867 -142.203125 101.203125 C-142.60273438 101.74195313 -143.00234375 102.28078125 -143.4140625 102.8359375 C-168.27187924 136.70262743 -177.94132086 175.46343686 -177.65722656 217.07250977 C-177.65599701 219.47850741 -177.65654233 221.8845065 -177.65868759 224.2905035 C-177.65957913 230.64977735 -177.63664207 237.00874122 -177.60824585 243.36794281 C-177.58521937 249.36700766 -177.58438013 255.36600262 -177.58154297 261.3651123 C-177.56067437 278.83198986 -177.50482938 296.29881151 -177.453125 313.765625 C-177.370625 352.85 -177.288125 391.934375 -177.203125 432.203125 C-53.123125 432.203125 70.956875 432.203125 198.796875 432.203125 C198.8175 395.985625 198.838125 359.768125 198.859375 322.453125 C198.87303101 305.34130371 198.87303101 305.34130371 198.88696289 287.88378906 C198.89030869 277.59884659 198.89030869 277.59884659 198.89231873 267.31390381 C198.89324501 262.75644436 198.89697102 258.19899673 198.90245056 253.64154053 C198.90937261 247.8058884 198.91135462 241.97025315 198.90994728 236.1345973 C198.91024103 234.00687423 198.91218631 231.8791505 198.91609013 229.75143099 C199.03175052 203.87167107 199.03175052 203.87167107 196.109375 178.203125 C195.93639893 177.20603516 195.76342285 176.20894531 195.58520508 175.18164062 C192.7073914 159.44308898 187.79855023 144.57368383 180.796875 130.203125 C180.46316895 129.5112207 180.12946289 128.81931641 179.78564453 128.10644531 C174.50507157 117.28927162 168.27624592 107.62374707 160.796875 98.203125 C160.15975586 97.39246582 160.15975586 97.39246582 159.50976562 96.56542969 C129.42051918 58.61565917 87.42198488 31.72125092 38.86181641 25.84814453 C-15.06878701 20.0287929 -68.43781712 31.10964905 -110.203125 67.203125 Z M-198.203125 455.203125 C-198.203125 459.493125 -198.203125 463.783125 -198.203125 468.203125 C-60.923125 468.203125 76.356875 468.203125 217.796875 468.203125 C217.796875 463.913125 217.796875 459.623125 217.796875 455.203125 C80.516875 455.203125 -56.763125 455.203125 -198.203125 455.203125 Z M-198.203125 508.203125 C-198.203125 512.163125 -198.203125 516.123125 -198.203125 520.203125 C-60.923125 520.203125 76.356875 520.203125 217.796875 520.203125 C217.796875 516.243125 217.796875 512.283125 217.796875 508.203125 C80.516875 508.203125 -56.763125 508.203125 -198.203125 508.203125 Z M-249.203125 525.203125 C-249.27298651 544.45929057 -249.32631892 563.71541958 -249.35856152 582.97168636 C-249.37393946 591.91549469 -249.39485214 600.85922215 -249.42944336 609.80297852 C-249.45962707 617.61096511 -249.47876563 625.41889307 -249.48539048 633.2269364 C-249.48925447 637.34979468 -249.49813811 641.47248542 -249.52031517 645.59528923 C-249.88246535 715.7535247 -229.29175147 780.74334401 -180.67578125 832.54296875 C-178.67390603 834.69664494 -176.77124791 836.88293483 -174.890625 839.140625 C-165.61347773 849.78725592 -154.46950547 858.76451028 -143.203125 867.203125 C-142.6575293 867.61626953 -142.11193359 868.02941406 -141.54980469 868.45507812 C-116.44228923 887.37190469 -77.78673882 912.203125 -45.203125 912.203125 C-45.04457031 911.4296875 -44.88601563 910.65625 -44.72265625 909.859375 C-42.82765805 901.39993553 -40.83132865 894.36154218 -33.390625 889.328125 C-24.91142967 884.15744298 -15.01199008 884.89221081 -5.4609375 884.90234375 C-3.92690924 884.89844925 -2.39288204 884.89411304 -0.8588562 884.88935852 C2.34689844 884.88192504 5.5525429 884.88216649 8.75830078 884.88745117 C12.84219651 884.89324004 16.92563784 884.87631513 21.00945854 884.8531065 C24.17528874 884.8382888 27.34101153 884.83750834 30.50687027 884.84061623 C32.0113833 884.84010698 33.51590298 884.83494473 35.02038193 884.82480431 C46.11149886 884.75921499 56.20487421 885.17375137 65.109375 892.48046875 C70.45716452 897.93967055 71.60459139 904.90531998 72.796875 912.203125 C80.66412479 911.78282138 87.74241467 910.01117382 95.234375 907.640625 C96.37672607 907.28202393 97.51907715 906.92342285 98.69604492 906.55395508 C127.39608397 897.356024 153.37363373 883.09792073 176.796875 864.203125 C177.82425781 863.38199219 178.85164063 862.56085938 179.91015625 861.71484375 C187.91846822 855.15673156 195.2765728 847.93312097 202.609375 840.640625 C203.09742615 840.15784088 203.58547729 839.67505676 204.08831787 839.17764282 C210.78642289 832.53549395 216.95329857 825.61174549 222.796875 818.203125 C223.27842041 817.60653076 223.75996582 817.00993652 224.25610352 816.39526367 C265.88436417 764.80753117 279.46813685 702.90205667 279.10105681 637.9829824 C279.08187786 633.99663208 279.08050805 630.01026934 279.07698059 626.02388 C279.0677779 618.5272203 279.0433298 611.03069704 279.01293212 603.53409654 C278.97901355 594.97737896 278.96280951 586.42065371 278.94784582 577.86388528 C278.91676472 560.31021826 278.86361438 542.75669147 278.796875 525.203125 C273.846875 525.203125 268.896875 525.203125 263.796875 525.203125 C263.095625 527.12125 262.394375 529.039375 261.671875 531.015625 C257.75802971 541.14105059 252.87811954 549.95740913 245.796875 558.203125 C245.29929687 558.79609375 244.80171875 559.3890625 244.2890625 560 C237.8318433 567.07373762 228.68424232 572.79254812 219.796875 576.203125 C219.79100876 577.2478598 219.78514252 578.2925946 219.77909851 579.36898804 C219.72124625 589.33857543 219.64817645 599.30795763 219.56116009 609.27733421 C219.51691483 614.39955371 219.47756589 619.52170194 219.45043945 624.64404297 C219.10962383 687.05798873 209.48841815 744.04098512 164.41357422 790.53515625 C163.24787177 791.73782601 162.08884259 792.94697662 160.93408203 794.16015625 C146.83632158 808.94001112 131.75655222 821.40140285 113.796875 831.203125 C112.85642334 831.71866943 112.85642334 831.71866943 111.89697266 832.24462891 C63.1973276 858.57777877 2.42136834 862.27672567 -50.33203125 847.07421875 C-70.54792693 840.9406885 -90.13619712 831.72531854 -107.203125 819.203125 C-107.7280957 818.81801758 -108.25306641 818.43291016 -108.79394531 818.03613281 C-115.47079828 813.10378858 -121.8408695 807.90679808 -127.9453125 802.2734375 C-129.96787754 800.41883634 -132.03796484 798.65277339 -134.140625 796.890625 C-148.50467291 784.31847039 -159.58578613 768.55340791 -169.203125 752.203125 C-169.56148438 751.59774902 -169.91984375 750.99237305 -170.2890625 750.36865234 C-178.68042596 736.00317439 -184.34132231 720.46023083 -188.515625 704.390625 C-188.74588379 703.52896729 -188.97614258 702.66730957 -189.21337891 701.77954102 C-193.52762255 684.14115311 -194.63921 665.97479426 -194.43042374 647.88499069 C-194.39734081 644.74755745 -194.38945585 641.61089745 -194.38815308 638.47329712 C-194.38262219 629.57525383 -194.35256446 620.67788449 -194.26171875 611.78027344 C-194.20738022 606.28630694 -194.19658079 600.79370597 -194.21386337 595.29951859 C-194.21192495 593.22224452 -194.19353 591.1449156 -194.15805435 589.06794357 C-193.44737197 578.27193223 -193.44737197 578.27193223 -197.17669678 568.65093994 C-199.49506453 567.08816579 -201.57811714 566.12921965 -204.203125 565.203125 C-218.03302375 554.83070094 -224.16372548 540.87986418 -230.203125 525.203125 C-236.473125 525.203125 -242.743125 525.203125 -249.203125 525.203125 Z " fill="#ffffff" transform="translate(581.203125,29.796875)"/>
<path d="M0 0 C3.09422947 1.82840832 4.64501095 3.35456536 6.375 6.5 C7.65068436 13.64383241 6.79536243 21.29113017 4 28 C4.45890625 27.65066406 4.9178125 27.30132812 5.390625 26.94140625 C6.31101562 26.25884766 6.31101562 26.25884766 7.25 25.5625 C7.85328125 25.11003906 8.4565625 24.65757812 9.078125 24.19140625 C14.3612468 20.91630026 21.01746863 21.47643226 27 22 C34.20162521 23.7973702 38.10401448 28.99111228 42 35 C45.7708661 41.32532377 45.78207335 47.82803191 45 55 C42.92999493 62.47912545 37.32025021 67.94144487 30.875 71.9375 C24.42063243 74.26864856 16.0008588 74.28248462 9.6875 71.5625 C4.04602954 68.19678195 -0.43198816 62.9400222 -3.5 57.1875 C-4.55528942 50.46002993 -4.52417771 43.6454148 -3 37 C-3.77923828 37.83144531 -3.77923828 37.83144531 -4.57421875 38.6796875 C-5.27160156 39.40414062 -5.96898437 40.12859375 -6.6875 40.875 C-7.71423828 41.95394531 -7.71423828 41.95394531 -8.76171875 43.0546875 C-12.15580499 46.00452161 -15.07625791 46.88453224 -19.5 47.4375 C-23 47 -23 47 -25.9375 45.3125 C-29.51651675 39.56438218 -28.85429197 32.95415138 -27.453125 26.46875 C-26.74907565 24.24708316 -25.91683727 22.14192156 -25 20 C-24.58234375 18.85917969 -24.58234375 18.85917969 -24.15625 17.6953125 C-21.01868996 9.66207688 -15.81895932 4.18531294 -7.9140625 0.66015625 C-5.04973518 -0.3277444 -2.98750833 -0.53111259 0 0 Z " fill="#ffffff" transform="translate(463,136)"/>
<path d="M0 0 C5.48059534 4.41754883 9.90075103 10.71358819 11.8125 17.4609375 C12.60945726 25.2213088 12.60175424 32.05178844 7.8125 38.4609375 C3.05718127 44.28738001 -1.6377017 47.99488902 -9.23828125 48.7734375 C-16.06256381 49.02531413 -21.71457507 48.79993718 -27.1875 44.4609375 C-33.97658311 38.08331397 -37.15678721 33.07812981 -37.5625 23.7109375 C-37.39191111 16.45642064 -36.0104366 10.65348061 -31.12890625 5.1328125 C-22.72173442 -2.74979718 -10.62841435 -6.24419343 0 0 Z " fill="#ffffff" transform="translate(496.1875,328.5390625)"/>
<path d="M0 0 C7.66565736 0.51104382 12.25772377 2.2652649 17.625 7.9375 C23.55806006 15.11308572 25.43146418 20.87632051 25.16015625 30.21875 C24.27220098 36.78116226 21.28734426 42.14566057 16.5 46.6875 C10.09491234 51.54653202 3.456543 52.99693149 -4.4765625 51.94140625 C-12.61550518 49.91240223 -17.8417849 45.4219054 -22.19140625 38.3984375 C-25.25858007 32.17354599 -25.40387978 24.24373935 -23.49609375 17.640625 C-20.17580611 9.88026645 -15.73513365 5.11280993 -8.25 1.25 C-5.41736686 0.35184803 -2.96864087 0.22835699 0 0 Z " fill="#ffffff" transform="translate(483.25,381.75)"/>
<path d="M0 0 C7.66565736 0.51104382 12.25772377 2.2652649 17.625 7.9375 C23.55806006 15.11308572 25.43146418 20.87632051 25.16015625 30.21875 C24.27220098 36.78116226 21.28734426 42.14566057 16.5 46.6875 C10.09491234 51.54653202 3.456543 52.99693149 -4.4765625 51.94140625 C-12.61550518 49.91240223 -17.8417849 45.4219054 -22.19140625 38.3984375 C-25.25858007 32.17354599 -25.40387978 24.24373935 -23.49609375 17.640625 C-20.17580611 9.88026645 -15.73513365 5.11280993 -8.25 1.25 C-5.41736686 0.35184803 -2.96864087 0.22835699 0 0 Z " fill="#ffffff" transform="translate(483.25,213.75)"/>
<path d="M0 0 C0.78503906 0.65355469 0.78503906 0.65355469 1.5859375 1.3203125 C2.49472656 2.06667969 2.49472656 2.06667969 3.421875 2.828125 C8.934461 7.82899416 12.0790118 13.0610914 12.96484375 20.50390625 C13.29582167 29.73925794 11.49539263 35.39236111 5.2734375 42.1328125 C-1.13878919 48.04556048 -6.69402915 48.91124027 -15.265625 48.65625 C-23.30085587 47.79889286 -27.74053301 43.63343543 -32.78125 37.53515625 C-37.26376209 31.45481091 -37.123991 24.62243419 -36.4140625 17.3203125 C-34.65022301 9.08116966 -30.20124691 4.10844965 -23.4140625 -0.6796875 C-16.71606876 -4.25195083 -6.36151129 -4.43754202 0 0 Z " fill="#ffffff" transform="translate(549.4140625,136.6796875)"/>
<path d="M0 0 C1.2684375 -0.00773437 2.536875 -0.01546875 3.84375 -0.0234375 C10.78715934 0.73321608 14.61316498 3.93678656 18.88671875 9.1484375 C24.22303179 16.51332475 25.52376866 23.33802972 24.5 32.375 C22.43905082 39.35932779 18.1505341 45.01969325 11.875 48.75 C5.2876773 51.92167389 -1.60588964 52.57149564 -8.625 50.25 C-15.78732538 47.19673778 -20.17252297 42.28591383 -23.5 35.375 C-25.85996173 27.85163207 -25.42895943 19.41336271 -21.83203125 12.41015625 C-16.46855723 4.21552292 -9.94804048 -0.06065878 0 0 Z " fill="#ffffff" transform="translate(483.5,269.625)"/>
<path d="M0 0 C5.78283335 5.57630358 8.99348401 12.98816422 9.375 21 C8.94871783 29.26331587 6.12219881 34.75017673 0.0546875 40.33984375 C-6.00737324 45.23789663 -12.33708507 46.62810778 -20 46 C-27.02562873 44.12197364 -32.73599598 41.00579877 -37 35 C-39.5811212 29.98317288 -40.52317596 25.65218678 -40.4375 20.0625 C-40.42847656 19.35810791 -40.41945313 18.65371582 -40.41015625 17.92797852 C-40.14311282 9.92316626 -37.97515791 5.65801183 -32.3125 0.1875 C-22.02581505 -8.13709505 -10.69197381 -7.32800246 0 0 Z " fill="#ffffff" transform="translate(665,250)"/>
<path d="M0 0 C7.2267808 6.6408256 11.49289204 13.40759651 12.25 23.25 C11.66864749 31.97028763 8.51455592 38.15799945 2 44 C-3.58646167 48.44662308 -9.62562822 48.66876327 -16.58984375 48.4453125 C-24.14937132 47.4581577 -29.0487491 43.59353385 -33.80859375 37.84375 C-38.30190504 30.89016663 -37.61462805 22.94227152 -37 15 C-35.36043876 7.83654789 -29.72949514 3.20901401 -24 -1 C-16.90591481 -4.62251158 -6.78198996 -4.32198959 0 0 Z " fill="#ffffff" transform="translate(662,360)"/>
<path d="M0 0 C5.88520392 4.41095444 11.0395204 10.29956867 12.94921875 17.4609375 C13.73989228 25.25757899 13.67046103 31.97503417 8.94921875 38.4609375 C6.69921875 41.1484375 6.69921875 41.1484375 3.94921875 43.4609375 C3.41941406 43.92757812 2.88960937 44.39421875 2.34375 44.875 C-3.85058711 49.60329997 -10.54811691 49.39109238 -18.05078125 48.4609375 C-24.84466901 46.60706765 -30.51861994 41.61835128 -34.15234375 35.65234375 C-37.20787719 28.7845326 -37.24196819 20.24865342 -34.92578125 13.1484375 C-31.79731349 6.11669454 -26.88422959 1.75111633 -20.05078125 -1.5390625 C-13.31343908 -3.58776451 -6.18007511 -3.5350531 0 0 Z " fill="#ffffff" transform="translate(549.05078125,359.5390625)"/>
<path d="M0 0 C7.2267808 6.6408256 11.49289204 13.40759651 12.25 23.25 C11.66864749 31.97028763 8.51455592 38.15799945 2 44 C-3.58646167 48.44662308 -9.62562822 48.66876327 -16.58984375 48.4453125 C-24.14937132 47.4581577 -29.0487491 43.59353385 -33.80859375 37.84375 C-38.30190504 30.89016663 -37.61462805 22.94227152 -37 15 C-35.36043876 7.83654789 -29.72949514 3.20901401 -24 -1 C-16.90591481 -4.62251158 -6.78198996 -4.32198959 0 0 Z " fill="#ffffff" transform="translate(662,192)"/>
<path d="M0 0 C5.88520392 4.41095444 11.0395204 10.29956867 12.94921875 17.4609375 C13.73989228 25.25757899 13.67046103 31.97503417 8.94921875 38.4609375 C6.69921875 41.1484375 6.69921875 41.1484375 3.94921875 43.4609375 C3.41941406 43.92757812 2.88960937 44.39421875 2.34375 44.875 C-3.85058711 49.60329997 -10.54811691 49.39109238 -18.05078125 48.4609375 C-24.84466901 46.60706765 -30.51861994 41.61835128 -34.15234375 35.65234375 C-37.20787719 28.7845326 -37.24196819 20.24865342 -34.92578125 13.1484375 C-31.79731349 6.11669454 -26.88422959 1.75111633 -20.05078125 -1.5390625 C-13.31343908 -3.58776451 -6.18007511 -3.5350531 0 0 Z " fill="#ffffff" transform="translate(549.05078125,191.5390625)"/>
<path d="M0 0 C6.9056331 4.15508432 12.20780282 10.58093979 14.2890625 18.37890625 C15.67493767 25.97404568 14.54819364 32.85132466 10.50390625 39.51171875 C6.09973328 45.26334407 0.07423312 48.8581513 -7.0859375 50.0078125 C-14.51036779 50.31976335 -20.46727142 48.58481974 -26.3203125 43.984375 C-32.76360245 37.99939438 -34.47266963 32.92003119 -34.8125 24.25 C-34.61104527 16.08705428 -33.08177718 10.16014635 -27.08203125 4.43359375 C-19.37007267 -1.79384426 -9.53076012 -4.17682715 0 0 Z " fill="#ffffff" transform="translate(659.3125,302.4375)"/>
<path d="M0 0 C6.16755772 3.84947905 10.38657091 9.23798556 13.609375 15.68359375 C15.0935895 23.40150914 15.30671829 31.01061016 11.234375 37.93359375 C6.9014784 44.10468891 1.8043318 48.40808915 -5.765625 49.93359375 C-13.77000705 50.71597696 -20.18497711 49.22117313 -26.515625 44.18359375 C-31.58121165 39.53435669 -34.3979279 34.09881825 -35.00390625 27.234375 C-35.23003514 18.12971183 -33.71575451 11.77641423 -27.390625 5.05859375 C-20.14338829 -2.05125459 -9.44215325 -3.64083028 0 0 Z " fill="#ffffff" transform="translate(547.765625,247.06640625)"/>
<path d="M0 0 C6.3117864 4.71708877 11.70697046 10.32484292 13.6875 18.0625 C14.50009805 25.67824451 14.56543139 32.84552863 9.6875 39.0625 C3.91351305 45.26233415 -1.99985092 49.09005504 -10.625 49.5625 C-17.6950516 49.3297411 -23.18113284 46.88652927 -28.421875 42.16015625 C-34.46132031 35.6590178 -35.80597285 29.93647593 -35.62109375 21.16015625 C-34.86064889 13.52682998 -31.8632158 7.57342842 -26.14453125 2.46875 C-18.97958988 -3.03099178 -8.09512433 -4.62349986 0 0 Z " fill="#ffffff" transform="translate(548.3125,302.9375)"/>
<path d="M0 0 C6.64778795 3.71556301 11.47799402 9.78995749 13.75 17.0625 C14.52128077 25.07126427 15.060722 33.50219636 9.75 40.0625 C4.1836182 46.06978333 -1.80518621 49.16124946 -10.0625 49.5625 C-17.20680464 49.35684417 -22.82977612 47.17760017 -28.1328125 42.34765625 C-34.39952409 35.43005432 -34.945823 28.33376693 -34.68359375 19.3125 C-34.27147492 13.48891434 -32.27202226 9.29706816 -28.25 5.0625 C-19.79321089 -1.92729508 -10.43084192 -4.64835375 0 0 Z " fill="#ffffff" transform="translate(718.25,327.9375)"/>
<path d="M0 0 C6.64778795 3.71556301 11.47799402 9.78995749 13.75 17.0625 C14.52128077 25.07126427 15.060722 33.50219636 9.75 40.0625 C4.1836182 46.06978333 -1.80518621 49.16124946 -10.0625 49.5625 C-17.20680464 49.35684417 -22.82977612 47.17760017 -28.1328125 42.34765625 C-34.39952409 35.43005432 -34.945823 28.33376693 -34.68359375 19.3125 C-34.27147492 13.48891434 -32.27202226 9.29706816 -28.25 5.0625 C-19.79321089 -1.92729508 -10.43084192 -4.64835375 0 0 Z " fill="#ffffff" transform="translate(718.25,159.9375)"/>
<path d="M0 0 C6.63953516 3.91925959 11.50798298 10.07109071 14.44921875 17.125 C14.78610554 19.85939779 14.9749996 22.27528589 14.94921875 25 C14.94277344 25.70890381 14.93632813 26.41780762 14.9296875 27.14819336 C14.72075742 33.11988237 13.57447974 36.85027303 9.44921875 41.125 C8.83304688 41.77082031 8.216875 42.41664063 7.58203125 43.08203125 C2.29306407 48.13433258 -2.15455888 49.85545854 -9.48828125 50.4375 C-17.00299279 50.17687417 -22.11289692 47.0752302 -27.69140625 42.234375 C-32.67049747 36.58582614 -34.24199404 32.05743446 -34.05078125 24.6875 C-34.03724609 23.9361377 -34.02371094 23.18477539 -34.00976562 22.41064453 C-33.75297006 15.55330712 -32.49812979 11.14482433 -27.64453125 6.171875 C-19.76635511 -1.05958518 -10.48946106 -3.59822248 0 0 Z " fill="#ffffff" transform="translate(717.55078125,270.875)"/>
<path d="M0 0 C5.2257327 4.14952023 8.77384469 9.05714788 10.08984375 15.7109375 C10.7984778 23.08770181 10.36192622 29.48460454 6.08984375 35.7109375 C1.08614931 41.12538298 -3.60882572 45.21200417 -11.109375 46.08203125 C-19.05067995 46.23320951 -25.53265387 45.80123756 -31.91015625 40.7109375 C-37.98196852 33.62094812 -39.34120654 27.58531579 -39.24609375 18.359375 C-38.56098255 10.91874872 -35.36682267 5.75308539 -29.97265625 0.7109375 C-21.09515867 -6.31501496 -9.34054023 -6.30343205 0 0 Z " fill="#ffffff" transform="translate(610.91015625,163.2890625)"/>
<path d="M0 0 C6.57570723 2.89537011 11.66427762 8.71691013 14.49609375 15.25390625 C16.61906671 21.97885166 16.39844147 29.0215482 13.59765625 35.5 C9.99172272 42.02050387 4.86532675 46.75439615 -2.35546875 48.96484375 C-9.2895174 50.34126539 -16.24469563 49.89327319 -22.44140625 46.37890625 C-27.58760394 42.79047651 -32.28280877 38.80798636 -33.44140625 32.37890625 C-34.17891054 23.54992629 -34.48623464 15.29877478 -28.671875 8.2265625 C-20.55423813 -0.3567132 -11.67723387 -2.9706883 0 0 Z " fill="#ffffff" transform="translate(605.44140625,271.62109375)"/>
<path d="M0 0 C6.57570723 2.89537011 11.66427762 8.71691013 14.49609375 15.25390625 C16.61906671 21.97885166 16.39844147 29.0215482 13.59765625 35.5 C9.99172272 42.02050387 4.86532675 46.75439615 -2.35546875 48.96484375 C-9.2895174 50.34126539 -16.24469563 49.89327319 -22.44140625 46.37890625 C-27.58760394 42.79047651 -32.28280877 38.80798636 -33.44140625 32.37890625 C-34.17891054 23.54992629 -34.48623464 15.29877478 -28.671875 8.2265625 C-20.55423813 -0.3567132 -11.67723387 -2.9706883 0 0 Z " fill="#ffffff" transform="translate(605.44140625,103.62109375)"/>
<path d="M0 0 C5.89319168 3.90360987 9.50370878 8.94476587 11.078125 15.8984375 C11.77290552 23.83356243 11.44669984 30.69530583 6.34375 37.0625 C-0.14208159 43.97569259 -4.97566033 46.02934088 -14.359375 46.3359375 C-20.38131395 46.1874676 -25.23282083 45.89694212 -29.921875 41.8984375 C-36.63261498 34.67496683 -38.46101411 28.2775219 -38.296875 18.48046875 C-37.57239279 11.56015431 -34.68730103 6.24254413 -29.671875 1.4609375 C-20.44489824 -5.61976423 -9.86862734 -5.65640835 0 0 Z " fill="#ffffff" transform="translate(609.921875,386.1015625)"/>
<path d="M0 0 C5.89319168 3.90360987 9.50370878 8.94476587 11.078125 15.8984375 C11.77290552 23.83356243 11.44669984 30.69530583 6.34375 37.0625 C-0.14208159 43.97569259 -4.97566033 46.02934088 -14.359375 46.3359375 C-20.38131395 46.1874676 -25.23282083 45.89694212 -29.921875 41.8984375 C-36.63261498 34.67496683 -38.46101411 28.2775219 -38.296875 18.48046875 C-37.57239279 11.56015431 -34.68730103 6.24254413 -29.671875 1.4609375 C-20.44489824 -5.61976423 -9.86862734 -5.65640835 0 0 Z " fill="#ffffff" transform="translate(609.921875,218.1015625)"/>
<path d="M0 0 C5.2257327 4.14952023 8.77384469 9.05714788 10.08984375 15.7109375 C10.7984778 23.08770181 10.36192622 29.48460454 6.08984375 35.7109375 C1.18355685 41.01997929 -3.49417306 45.0944781 -10.8203125 46.1171875 C-19.37617166 46.37163684 -25.9204141 44.81097978 -32.91015625 39.7109375 C-38.57662229 33.2679108 -39.33240423 26.73149183 -39.24609375 18.359375 C-38.56098255 10.91874872 -35.36682267 5.75308539 -29.97265625 0.7109375 C-21.09515867 -6.31501496 -9.34054023 -6.30343205 0 0 Z " fill="#ffffff" transform="translate(610.91015625,331.2890625)"/>
<path d="M0 0 C5.97044647 4.86069805 9.34877023 9.34066091 10.1640625 17.0859375 C10.39230678 24.27563243 10.50147863 30.77402729 5.7890625 36.5234375 C0.88667997 41.66121627 -3.45487361 45.1617113 -10.69921875 45.859375 C-19.0522462 45.94469704 -25.67502068 45.91665132 -31.94921875 39.83984375 C-38.26715971 32.82828636 -38.74660583 26.86787634 -38.51171875 17.66796875 C-38.10349629 10.10997356 -35.27146836 6.31058148 -29.8984375 1.1484375 C-20.99316242 -6.28477083 -9.58246956 -6.39959981 0 0 Z " fill="#ffffff" transform="translate(722.2109375,386.4765625)"/>
<path d="M0 0 C5.97044647 4.86069805 9.34877023 9.34066091 10.1640625 17.0859375 C10.39230678 24.27563243 10.50147863 30.77402729 5.7890625 36.5234375 C0.88667997 41.66121627 -3.45487361 45.1617113 -10.69921875 45.859375 C-19.0522462 45.94469704 -25.67502068 45.91665132 -31.94921875 39.83984375 C-38.26715971 32.82828636 -38.74660583 26.86787634 -38.51171875 17.66796875 C-38.10349629 10.10997356 -35.27146836 6.31058148 -29.8984375 1.1484375 C-20.99316242 -6.28477083 -9.58246956 -6.39959981 0 0 Z " fill="#ffffff" transform="translate(722.2109375,218.4765625)"/>
<path d="M0 0 C6.95903252 3.98776021 10.96112749 8.96146634 13.15625 16.68359375 C14.72952831 24.24844027 13.47007145 31.2520523 9.44140625 37.88671875 C5.03723328 43.63834407 -0.98826688 47.2331513 -8.1484375 48.3828125 C-15.57286779 48.69476335 -21.52977142 46.95981974 -27.3828125 42.359375 C-32.48915926 37.61624119 -35.06619466 33.39225972 -35.6875 26.44140625 C-36.13037494 12.47700591 -36.13037494 12.47700591 -31.375 6.9375 C-22.32713868 -1.53642982 -11.92072409 -5.48245102 0 0 Z " fill="#ffffff" transform="translate(660.375,136.0625)"/>
<path d="M0 0 C1.2684375 -0.01933594 2.536875 -0.03867187 3.84375 -0.05859375 C9.88724094 0.76140983 13.54479721 3.96642132 17.1875 8.6875 C22.42507388 15.79066989 24.77191474 22.54656655 23.5 31.4375 C22.51 34.4075 21.52 37.3775 20.5 40.4375 C6.64 40.4375 -7.22 40.4375 -21.5 40.4375 C-24.52126547 31.37370358 -26.54187765 23.74469691 -22.9375 14.625 C-18.12156779 5.24839701 -10.62823938 0.01080106 0 0 Z " fill="#ffffff" transform="translate(537.5,413.5625)"/>
<path d="M0 0 C1.27746094 -0.02835937 2.55492187 -0.05671875 3.87109375 -0.0859375 C8.95655566 0.54907256 11.90294521 2.58889964 15.35546875 6.3046875 C15.81566406 6.94664062 16.27585937 7.58859375 16.75 8.25 C17.21792969 8.88679688 17.68585937 9.52359375 18.16796875 10.1796875 C21.64337658 15.65077769 23.04730809 19.884122 22.9375 26.375 C22.94910156 27.06078125 22.96070313 27.7465625 22.97265625 28.453125 C22.94316968 33.60344661 22.02801517 35.44396967 19.5625 40.375 C6.0325 40.375 -7.4975 40.375 -21.4375 40.375 C-25.02947944 31.99371463 -26.18254975 24.30041337 -23.55859375 15.390625 C-20.62967224 9.01079596 -16.46649008 4.39996902 -10.18359375 1.2421875 C-6.70972429 0.14517609 -3.64051321 0.03666176 0 0 Z " fill="#ffffff" transform="translate(649.4375,413.625)"/>
<path d="M0 0 C5.64589458 4.69107417 8.60529813 9.29292415 9.8125 16.578125 C10.50418677 26.84701324 10.06627488 35.05480144 3.25 43.078125 C-0.1987717 46.81614852 -2.21152545 47.78117909 -7.3125 48.015625 C-12.60940065 47.96001449 -15.6127864 46.81455868 -19.59765625 43.359375 C-25.17663919 37.10872089 -25.50242883 28.70126125 -25.39453125 20.70703125 C-24.80703928 11.82814318 -21.84946678 5.52789934 -15.1875 -0.421875 C-10.30918176 -3.54900208 -4.76504345 -3.09727825 0 0 Z " fill="#ffffff" transform="translate(443.1875,360.421875)"/>
<path d="M0 0 C5.94813411 3.88121492 10.31632155 8.94896466 12.578125 15.734375 C14.69183209 27.08576495 13.26588691 38.17458095 7.125 48 C4.05554588 50.888898 1.33195092 52.7574771 -2.953125 53.203125 C-7.0093455 53.04830742 -9.47728277 52.05167585 -12.3125 49.125 C-18.97520407 40.13851903 -18.79922265 28.69644554 -18 18 C-16.89969722 11.37259486 -14.81462352 6.69719368 -10 2 C-6.7223016 -0.32610855 -3.95104811 -0.68383525 0 0 Z " fill="#ffffff" transform="translate(759,369)"/>
<path d="M0 0 C6.20814009 2.7873282 9.09490829 8.09518818 12 14 C14.98538859 22.47059053 13.87060095 34.55605149 10.38671875 42.6484375 C7.57613123 47.41456056 4.18082464 51.17653778 -1.30859375 52.59765625 C-5.32359465 52.86171196 -7.70802235 52.14874333 -11.3125 50.3125 C-17.50377946 44.13846644 -18.37456527 34.13955207 -18.4375 25.8125 C-18.2781871 16.47941919 -16.83761941 9.23661132 -10.40234375 2.27734375 C-7.18746876 -0.65096856 -4.20182247 -0.35015187 0 0 Z " fill="#ffffff" transform="translate(759,308)"/>
<path d="M0 0 C6.20814009 2.7873282 9.09490829 8.09518818 12 14 C14.98538859 22.47059053 13.87060095 34.55605149 10.38671875 42.6484375 C7.57613123 47.41456056 4.18082464 51.17653778 -1.30859375 52.59765625 C-5.32359465 52.86171196 -7.70802235 52.14874333 -11.3125 50.3125 C-17.50377946 44.13846644 -18.37456527 34.13955207 -18.4375 25.8125 C-18.2781871 16.47941919 -16.83761941 9.23661132 -10.40234375 2.27734375 C-7.18746876 -0.65096856 -4.20182247 -0.35015187 0 0 Z " fill="#ffffff" transform="translate(759,248)"/>
<path d="M0 0 C5.45070134 2.35371194 8.15778943 6.2531929 10.6875 11.5 C13.81635364 19.8436097 14.43425757 29.60153126 11 38 C8.30960599 42.97438409 5.52575071 47.97838388 0 50 C-3.94885566 50.50258163 -6.37620335 50.25461088 -10.0625 48.75 C-15.18902987 44.75655759 -18.28380069 38.28789459 -19.33837891 31.97412109 C-20.37847234 21.59948794 -19.03873574 11.69938949 -12.61328125 3.15625 C-8.68277836 -0.72041038 -5.14841885 -0.65376747 0 0 Z " fill="#ffffff" transform="translate(439,302)"/>
<path d="M0 0 C3.99358864 2.55163356 6.24305858 4.4752092 7.5625 9.1875 C8.17607586 12.74053228 8.35000434 15.7161956 6.61328125 18.9609375 C3.99273752 22.35028428 1.58054569 23.94947767 -2.4375 25.1875 C-12.27031711 26.41158539 -20.72641225 25.83630914 -29.75 21.5625 C-30.79752441 21.0667749 -30.79752441 21.0667749 -31.86621094 20.56103516 C-36.52892374 18.13847655 -39.40121182 15.48273694 -42.4375 11.1875 C-43.57433507 7.20857725 -43.66648293 4.96604196 -42.5 1 C-33.15945408 -11.73710807 -11.71516667 -6.41304382 0 0 Z " fill="#ffffff" transform="translate(625.4375,71.8125)"/>
<path d="M0 0 C0.78117188 -0.020625 1.56234375 -0.04125 2.3671875 -0.0625 C8.14440169 -0.1014038 12.43202652 0.85912814 16.8125 4.9375 C19.1705095 9.52941324 19.54105271 13.55921028 18 18.375 C13.3628643 25.04088256 7.32122385 29.15670257 -0.71875 30.80859375 C-4.46748253 31.31288753 -8.16178152 31.47142313 -11.9375 31.5 C-12.61490234 31.520625 -13.29230469 31.54125 -13.99023438 31.5625 C-19.80476429 31.6070985 -24.04789972 30.21806685 -28.875 27 C-30.74013969 24.09867159 -30.88602659 21.66920228 -31 18.25 C-28.87040024 11.50626743 -25.37194349 6.28487651 -19.0625 2.9375 C-13.03499183 0.0041952 -6.5651442 0.04333429 0 0 Z " fill="#ffffff" transform="translate(551,70.75)"/>
<path d="M0 0 C2.6796568 2.14445361 4.50820139 3.79414764 5.8125 6.9921875 C6.51951355 14.09178187 4.28976358 18.65184789 -0.125 24.0625 C-6.19696252 30.67362198 -13.36253953 35.44906636 -22.4375 36.3359375 C-33.24655479 36.45445784 -33.24655479 36.45445784 -36.75 34.3125 C-39.2548946 31.738025 -40.36998368 30.54384183 -41 27 C-40.57489653 20.06549962 -37.72501841 14.98100135 -33 10 C-23.72338802 1.93540768 -12.30646568 -2.59770915 0 0 Z " fill="#ffffff" transform="translate(508,96)"/>
<path d="M0 0 C4.94802324 3.91239047 8.01464693 9.04394079 10 15 C11.3138972 36.38852325 11.3138972 36.38852325 4.65625 44.671875 C3.3125 46.0625 3.3125 46.0625 1 48 C0.67 48.33 0.34 48.66 0 49 C-4.67713848 49.70257445 -8.77225422 49.61169901 -12.8125 47 C-18.49122955 42.25674562 -20.12804175 36.83993768 -20.875 29.625 C-21.29132988 20.84145487 -20.0848256 12.38119845 -15 5 C-10.12485581 -0.02514863 -6.94251134 -1.64737557 0 0 Z " fill="#ffffff" transform="translate(440,191)"/>
<path d="M0 0 C3.84912683 1.20092757 6.64376116 3.32949369 8.953125 6.609375 C11.84882765 12.98075532 12.50229591 19.11314646 12.453125 26.046875 C12.44812988 26.96976318 12.44313477 27.89265137 12.43798828 28.84350586 C12.26380119 35.62899385 11.47557154 41.26574738 6.953125 46.609375 C3.66797216 49.60886238 1.83693452 50.4831165 -2.546875 51.109375 C-8.11641001 50.31372714 -10.96634855 48.01113905 -14.359375 43.609375 C-17.43732078 38.13747138 -17.26084478 33.06953156 -17.296875 26.921875 C-17.3175 26.06142578 -17.338125 25.20097656 -17.359375 24.31445312 C-17.40154032 17.32028002 -16.49450939 10.95791251 -12.28515625 5.19921875 C-8.39541748 1.86177555 -5.30013526 -0.54253353 0 0 Z " fill="#ffffff" transform="translate(756.046875,187.390625)"/>
<path d="M0 0 C7.26253959 5.41015095 14.27706085 12.8109912 16 22 C16.13542175 26.74822498 15.66234509 30.00648236 13 34 C8.94699363 36.70200425 5.8408544 37.36229324 1 37 C-9.05339883 34.83883942 -16.58125971 27.61362058 -22.5625 19.5625 C-25.43468848 14.89519371 -26.38053898 10.45748579 -26 5 C-24.75357392 0.71541036 -23.70484526 -0.55407749 -19.9375 -2.9375 C-13.27723324 -5.32221416 -5.79620364 -3.78013281 0 0 Z " fill="#ffffff" transform="translate(722,119)"/>
<path d="M0 0 C1.9948137 0.97515234 3.77563679 2.07080624 5.61328125 3.31640625 C6.75410156 4.00476563 6.75410156 4.00476563 7.91796875 4.70703125 C14.74789278 8.96173802 19.63587842 13.63784107 22.61328125 21.31640625 C23.14056511 25.61000337 23.11868165 27.54145897 20.73828125 31.19140625 C17.27242196 34.65726554 14.93363689 34.52935543 10.11328125 34.62890625 C-0.21771179 34.53393287 -8.42073034 30.84590494 -16.38671875 24.31640625 C-20.46291988 19.38205751 -23.44880602 13.54494418 -23.32421875 7.06640625 C-20.00242134 -2.67753281 -8.54929443 -2.44865225 0 0 Z " fill="#ffffff" transform="translate(670.38671875,84.68359375)"/>
<path d="M0 0 C2.86095658 0.70872513 4.45799303 2.0934599 6.08203125 4.53515625 C6.60796875 5.52322266 6.60796875 5.52322266 7.14453125 6.53125 C7.53640625 7.26214844 7.92828125 7.99304688 8.33203125 8.74609375 C12.79178082 18.79601553 12.89989774 31.52925238 9.39453125 41.90625 C7.92849602 45.57133808 6.17109496 47.97723527 3.14453125 50.53125 C0.46832512 51.57139489 -1.99901636 51.74631109 -4.85546875 51.53125 C-9.89266944 49.30325739 -11.86765155 46.34037408 -14.09375 41.53125 C-17.91409146 31.50040474 -17.38407595 17.33665602 -13.04296875 7.64453125 C-9.73440313 1.75659046 -6.72830143 -0.44632182 0 0 Z " fill="#ffffff" transform="translate(437.85546875,245.46875)"/>
<path d="M0 0 C5.2217187 1.85661109 7.69311764 6.17575331 10 11 C13.04917581 19.8803316 12.72799815 29.07924694 10 38 C9 39 9 39 6.40795898 39.11352539 C5.28204346 39.10828857 4.15612793 39.10305176 2.99609375 39.09765625 C1.78115234 39.09443359 0.56621094 39.09121094 -0.68554688 39.08789062 C-1.96494141 39.07951172 -3.24433594 39.07113281 -4.5625 39.0625 C-5.84576172 39.05798828 -7.12902344 39.05347656 -8.45117188 39.04882812 C-11.63416022 39.03699545 -14.81705762 39.02051068 -18 39 C-21.96179732 29.43563078 -21.76338851 19.83062933 -17.890625 10.2578125 C-13.67647533 1.2832345 -9.94622166 -1.13393407 0 0 Z " fill="#ffffff" transform="translate(440,414)"/>
<path d="M0 0 C6.95160693 4.25608587 10.06644498 11.26577991 12 19 C12 22.63 12 26.26 12 30 C2.1 30 -7.8 30 -18 30 C-18 11.44791667 -18 11.44791667 -12.5625 4.5 C-8.519776 0.55587902 -5.73482289 -0.8028752 0 0 Z " fill="#ffffff" transform="translate(759,423)"/>
<path d="M0 0 C5.29238611 3.24707532 8.93527423 7.42859694 10.4375 13.4375 C-4.0825 13.4375 -18.6025 13.4375 -33.5625 13.4375 C-31.30426776 6.66280329 -31.30426776 6.66280329 -27.6875 3.6875 C-27.00945313 3.11515625 -26.33140625 2.5428125 -25.6328125 1.953125 C-18.72912632 -3.10089432 -7.84434656 -3.54899563 0 0 Z " fill="#ffffff" transform="translate(719.5625,439.5625)"/>
<path d="M0 0 C5.29918555 2.30622195 8.554272 6.48740538 11.45703125 11.37890625 C11.95203125 12.86390625 11.95203125 12.86390625 12.45703125 14.37890625 C-2.06296875 14.37890625 -16.58296875 14.37890625 -31.54296875 14.37890625 C-30.40832179 8.70567144 -30.40832179 8.70567144 -27.35546875 5.75390625 C-26.78441406 5.18414062 -26.21335937 4.614375 -25.625 4.02734375 C-18.17633077 -1.87010168 -9.06056123 -2.21294813 0 0 Z " fill="#ffffff" transform="translate(493.54296875,438.62109375)"/>
<path d="M0 0 C4.28336739 2.58112203 7.82532317 6.33435902 10.5625 10.5 C10.5625 11.49 10.5625 12.48 10.5625 13.5 C-3.9575 13.5 -18.4775 13.5 -33.4375 13.5 C-28.92655109 4.47810219 -28.92655109 4.47810219 -25.375 2.0625 C-24.70339844 1.58941406 -24.03179688 1.11632812 -23.33984375 0.62890625 C-17.00389727 -3.13102913 -6.6547654 -2.97368454 0 0 Z " fill="#ffffff" transform="translate(607.4375,439.5)"/>
</svg>