<svg version="1.1" xmlns="http://www.w3.org/2000/svg" width="1600px" height="1600px" transform="rotate(0) scale(1, 1)">
<path d="M0 0 C1.93903961 -0.00269659 3.87807816 -0.00626624 5.81711474 -0.01062447 C11.14049181 -0.02005664 16.46380022 -0.01709019 21.78718061 -0.01206893 C27.58071901 -0.00879709 33.3742429 -0.01708918 39.16777664 -0.02388728 C49.98686954 -0.03486522 60.80594184 -0.03679806 71.62503944 -0.03456175 C81.84914677 -0.03254457 92.07324185 -0.03524977 102.29734707 -0.04211998 C102.98596253 -0.04257929 103.67457799 -0.04303859 104.38406058 -0.04351182 C107.18883767 -0.04539516 109.99361473 -0.04730654 112.79839177 -0.0492542 C142.03939677 -0.06952953 171.2803941 -0.07566568 200.52140533 -0.07683842 C203.66771252 -0.07696792 206.81401972 -0.0771038 209.96032691 -0.07724524 C210.74111801 -0.07727924 211.5219091 -0.07731325 212.32636053 -0.07734829 C229.63839929 -0.07816565 246.95043658 -0.08254693 264.26247455 -0.08755693 C271.39387498 -0.08961368 278.52527543 -0.09159376 285.65667588 -0.09358943 C286.44466819 -0.0938106 287.23266051 -0.09403178 288.04453139 -0.09425966 C333.19442881 -0.10690609 378.34432527 -0.11515809 423.49422455 -0.11424255 C425.18350212 -0.114211 426.8727797 -0.11417952 428.56205728 -0.11414814 C436.18877845 -0.11400137 443.81549963 -0.11382503 451.44222081 -0.11364037 C454.84307435 -0.11355812 458.2439279 -0.11347783 461.64478145 -0.11339774 C463.34696917 -0.11335695 465.0491569 -0.11331491 466.75134463 -0.11327162 C520.56585192 -0.1119114 574.38033289 -0.12654184 628.1948328 -0.15435219 C641.75196131 -0.16135447 655.30908985 -0.1682935 668.86621857 -0.17488098 C670.11843892 -0.1754896 670.11843892 -0.1754896 671.39595665 -0.17611052 C697.13515172 -0.18854495 722.87434462 -0.19607251 748.61354256 -0.19859695 C749.82612241 -0.19871681 749.82612241 -0.19871681 751.06319883 -0.19883908 C768.81128592 -0.20054582 786.55937288 -0.20106796 804.30746004 -0.20049833 C810.65845985 -0.20030537 817.00945967 -0.20020127 823.36045948 -0.20014087 C824.94037267 -0.20012504 826.52028586 -0.20010463 828.10019904 -0.20007962 C853.24989618 -0.19972732 878.39957075 -0.21110906 903.54926142 -0.22838725 C928.88836968 -0.24570705 954.22744674 -0.2500526 979.56655844 -0.23686461 C983.07303174 -0.23504019 986.5795051 -0.23335359 990.08597851 -0.23174858 C991.1169596 -0.23126832 991.1169596 -0.23126832 992.16876859 -0.23077835 C1003.68185025 -0.22579947 1015.19486598 -0.23659864 1026.70793748 -0.25164768 C1036.73952089 -0.26365152 1046.77103276 -0.26105202 1056.8026129 -0.24670668 C1062.51397679 -0.23894723 1068.22514951 -0.2373819 1073.93649989 -0.25362138 C1079.14452934 -0.26829955 1084.35221044 -0.26416659 1089.56022501 -0.24577365 C1091.42077065 -0.24236447 1093.2813444 -0.2454767 1095.14186123 -0.25637607 C1131.54628826 -0.45515456 1166.04531006 11.52156199 1193.78296757 35.25726891 C1194.59120975 35.94305016 1195.39945194 36.62883141 1196.23218632 37.33539391 C1224.84543332 62.31022174 1242.10309353 96.68278786 1246.78296757 134.25726891 C1246.87061887 136.97957004 1246.91581875 139.67497412 1246.9060154 142.39629841 C1246.90716924 143.19115746 1246.90832308 143.9860165 1246.90951189 144.80496219 C1246.91215743 147.46673356 1246.90767341 150.12844437 1246.90322208 152.79021263 C1246.90365821 154.71841113 1246.90453387 156.64660958 1246.90581125 158.5748077 C1246.90804813 163.87213322 1246.90404592 169.16943853 1246.89903319 174.46676147 C1246.89471733 180.17971157 1246.89617592 185.89266053 1246.89693546 191.6056118 C1246.89745998 201.50330373 1246.89432074 211.40098908 1246.88869762 221.29867935 C1246.88057281 235.60910362 1246.87796639 249.9195247 1246.87670963 264.22995103 C1246.87452066 287.44731078 1246.86787334 310.66466694 1246.85840702 333.88202477 C1246.84922164 356.43638656 1246.84213849 378.99074741 1246.83789921 401.5451107 C1246.83776768 402.24042007 1246.83763616 402.93572945 1246.83750064 403.6521088 C1246.83618212 410.63473582 1246.8349063 417.61736284 1246.83366178 424.59998988 C1246.82322194 483.15241908 1246.80474535 541.70484258 1246.78296757 600.25726891 C1213.78296757 600.25726891 1180.78296757 600.25726891 1146.78296757 600.25726891 C1146.76314823 586.55662926 1146.7433289 572.85598961 1146.72290897 558.74017906 C1146.65811292 514.91249398 1146.58358421 471.0848301 1146.50291596 427.25717149 C1146.49039024 420.45040073 1146.47796191 413.64362979 1146.46558475 406.83685875 C1146.46435143 406.15950776 1146.46311811 405.48215677 1146.46184741 404.78427999 C1146.42192651 382.8343628 1146.38843442 360.88444153 1146.35828066 338.93450894 C1146.32637675 315.73602885 1146.28713796 292.53757093 1146.24017751 269.3391155 C1146.21228472 255.44311296 1146.19025507 241.54712644 1146.17570506 227.65110342 C1146.16516984 218.12444998 1146.14735465 208.59782755 1146.12380053 199.07119747 C1146.11042287 193.57337642 1146.10026862 188.07559889 1146.09875393 182.5777607 C1146.09729591 177.54280784 1146.08668058 172.50795974 1146.06883316 167.47303908 C1146.06398971 165.65322905 1146.06248455 163.83340638 1146.06468876 162.01359124 C1146.08209968 144.81328689 1144.51581644 128.18303973 1131.78296757 115.25726891 C1120.45892826 105.23984952 1107.79705671 101.08294233 1092.82170701 101.13076907 C1092.04470147 101.12924253 1091.26769594 101.12771598 1090.46714478 101.12614317 C1087.86084814 101.12224323 1085.25460948 101.12545929 1082.64831257 101.12863445 C1080.75386839 101.1272879 1078.85942448 101.12550406 1076.96498108 101.12332222 C1071.73754111 101.11858282 1066.51011852 101.12009692 1061.28267768 101.12259999 C1055.60371673 101.12422989 1049.92475954 101.12009488 1044.24579978 101.11669081 C1034.28540315 101.1115303 1024.32501137 101.11012074 1014.36461353 101.11114693 C1003.67628781 101.11224543 992.98796659 101.11123849 982.29964161 101.10757446 C981.6247316 101.10734481 980.94982159 101.10711516 980.25445976 101.10687854 C977.50568034 101.10593691 974.75690092 101.10498123 972.00812152 101.10400735 C943.32587344 101.09386031 914.64362732 101.09080127 885.96137765 101.09021524 C882.87359271 101.0901505 879.78580778 101.09008256 876.69802284 101.09001184 C875.93179349 101.08999483 875.16556413 101.08997783 874.3761157 101.08996031 C857.40057362 101.08955194 840.42503191 101.08736232 823.44949002 101.08485599 C816.46072917 101.08382764 809.47196832 101.08283761 802.48320746 101.08183974 C801.32492902 101.08167386 801.32492902 101.08167386 800.143251 101.08150462 C755.88956718 101.07518 711.63588359 101.07105557 667.38219929 101.07151318 C665.7258663 101.07152895 664.06953332 101.07154469 662.41320034 101.07156038 C654.93489733 101.07163377 647.45659431 101.07172194 639.9782913 101.07181427 C636.64348612 101.07185539 633.30868095 101.07189554 629.97387577 101.07193558 C628.3047452 101.07195598 626.63561464 101.071977 624.96648408 101.07199864 C572.18330384 101.07267893 519.4001303 101.06536102 466.61695194 101.05145836 C453.31780467 101.04795738 440.0186574 101.04448794 426.71951008 101.04119396 C425.90064604 101.04099109 425.081782 101.04078821 424.23810389 101.04057919 C399.00300129 101.03436495 373.76789924 101.03059878 348.53279591 101.02933598 C347.74060014 101.02929602 346.94840438 101.02925607 346.13220268 101.02921491 C328.74220667 101.02836167 311.35221069 101.02810043 293.96221467 101.02838529 C287.73986733 101.02848177 281.51752 101.02853382 275.29517267 101.02856402 C273.74719112 101.02857193 272.19920957 101.02858214 270.65122802 101.02859464 C245.97892728 101.02877101 221.30663229 101.02307105 196.6343332 101.01444083 C171.78674801 101.00579346 146.93917076 101.00359743 122.0915847 101.01020215 C118.65835574 101.01111445 115.22512676 101.01195773 111.79189777 101.01276016 C111.11888966 101.01292025 110.44588155 101.01308034 109.75247925 101.01324528 C98.44640988 101.01574171 87.14035757 101.01032082 75.83429002 101.00281061 C66.00311579 100.99683055 56.17195987 100.99808401 46.3407865 101.00528111 C40.73479931 101.00917934 35.12886095 101.00989035 29.52287713 101.00182376 C24.42331116 100.99454993 19.32383472 100.99647556 14.22427276 101.00574763 C12.39060847 101.00746945 10.55693718 101.00583891 8.72328001 101.00044642 C-8.16777379 100.95409822 -24.76750794 102.17035 -37.70531368 114.55414391 C-49.7241947 128.09479539 -52.37385413 142.22290865 -52.34566689 159.70950603 C-52.34701423 161.09262458 -52.34879852 162.47574275 -52.35097912 163.85886022 C-52.35570793 167.6665804 -52.35420784 171.47427666 -52.35170135 175.28199801 C-52.35006873 179.42194206 -52.35420873 183.56188099 -52.35761052 187.70182341 C-52.36276663 194.96003648 -52.36418136 202.21824288 -52.36315441 209.4764576 C-52.36163102 220.26971817 -52.36578782 231.06297134 -52.37102904 241.85623048 C-52.38070697 262.25333866 -52.38351344 282.65044433 -52.38408609 303.04755453 C-52.38454537 318.79673209 -52.38660233 334.54590867 -52.38978672 350.29508591 C-52.39068424 354.82599487 -52.39157406 359.35690383 -52.3924616 363.88781279 C-52.39268265 365.0141595 -52.39290369 366.14050621 -52.39313144 367.30098463 C-52.39928679 398.98879662 -52.40323188 430.67660827 -52.40278816 462.36442089 C-52.40277258 463.55945768 -52.402757 464.75449448 -52.40274095 465.98574451 C-52.40265784 472.04290091 -52.4025588 478.10005732 -52.40245625 484.15721373 C-52.4024363 485.36022062 -52.40241636 486.56322752 -52.40239581 487.80268917 C-52.40235537 490.23546248 -52.40231357 492.66823579 -52.40227041 495.10100909 C-52.40165754 532.95819394 -52.40916593 570.81536983 -52.42284298 608.67255211 C-52.43819701 651.18918523 -52.44680962 693.70581246 -52.44587976 736.22244853 C-52.44580512 740.75430055 -52.44575642 745.28615258 -52.44572544 749.81800461 C-52.44570796 751.49183339 -52.44570796 751.49183339 -52.44569012 753.1994769 C-52.44565933 771.17172486 -52.45205032 789.14396506 -52.46065771 807.11621071 C-52.46912645 825.17215691 -52.47013024 843.22809173 -52.46354838 861.28403882 C-52.45984761 872.01542787 -52.46170082 882.7467824 -52.47149072 893.4781678 C-52.47747639 900.64392618 -52.47621103 907.80965946 -52.46902023 914.97541667 C-52.46512677 919.05986498 -52.46439737 923.14424633 -52.47247758 927.22869001 C-52.47976811 930.9464772 -52.47780619 934.66414179 -52.46855371 938.38192357 C-52.46602804 940.34463644 -52.47328664 942.30735452 -52.48097649 944.27005395 C-52.41994411 959.41480865 -49.18907069 974.11898765 -38.21703243 985.25726891 C-27.33137829 994.88688603 -14.98711824 999.33286842 -0.52881527 999.41548729 C0.7765871 999.42527611 2.08198948 999.43506493 3.4269495 999.44515038 C4.85608732 999.45105307 6.28522552 999.45686361 7.71436405 999.46259117 C9.2326213 999.47218048 10.75087593 999.48219116 12.26912785 999.49258995 C16.37600359 999.51953111 20.48289071 999.5405988 24.58980536 999.56059194 C28.88729162 999.58251836 33.18474328 999.60987437 37.48220158 999.63664818 C45.61345558 999.68648531 53.74472888 999.73145731 61.87602049 999.77467054 C71.1360053 999.82411984 80.39595538 999.87900935 89.65590656 999.93435013 C108.69822795 1000.04803227 127.74058216 1000.15490109 146.78296757 1000.25726891 C145.84053311 1001.52203741 144.89694742 1002.78594811 143.95288944 1004.04950523 C143.16488956 1005.10540604 143.16488956 1005.10540604 142.3609705 1006.18263817 C140.9656144 1008.01713961 139.53601626 1009.80815851 138.06421757 1011.58148766 C122.23617154 1030.6595818 109.78707768 1051.67610167 99.03296757 1073.94476891 C98.59702274 1074.84630699 98.16107792 1075.74784508 97.71192265 1076.6767025 C95.14714258 1082.08621589 92.82259675 1087.56040315 90.6179285 1093.12372398 C90.34367039 1093.8127002 90.06941227 1094.50167641 89.7868433 1095.21153069 C89.11771001 1096.89297642 88.45017284 1098.57505719 87.78296757 1100.25726891 C74.27319043 1100.32714433 60.76345713 1100.38026937 47.25353527 1100.41270542 C40.97861258 1100.42828237 34.70381461 1100.44937313 28.42896366 1100.48358727 C22.3599804 1100.51646732 16.29111621 1100.53418166 10.22205067 1100.54190063 C7.92030688 1100.54739318 5.61856873 1100.55811675 3.31687641 1100.57445908 C-13.29588372 1100.68759347 -29.16171781 1099.67003521 -45.21703243 1095.06976891 C-45.94720577 1094.86182701 -46.67737911 1094.65388512 -47.42967892 1094.43964195 C-66.73540393 1088.67042337 -85.18231378 1078.65313197 -100.21703243 1065.25726891 C-101.0433215 1064.55086266 -101.86961056 1063.84445641 -102.72093868 1063.11664391 C-131.22537467 1038.31466205 -148.7558585 1003.66594806 -153.21703243 966.25726891 C-153.48048063 961.41092472 -153.48971227 956.5781096 -153.47430134 951.72544765 C-153.47700071 950.29803596 -153.48057191 948.87062569 -153.48492581 947.44321808 C-153.49432074 943.54038816 -153.49140379 939.63765235 -153.48637026 935.73481801 C-153.4830887 931.48118351 -153.49139856 927.22756849 -153.49818861 922.97394031 C-153.50847471 915.52506585 -153.51133482 908.07621737 -153.50927639 900.6273365 C-153.50622277 889.55001863 -153.51455842 878.47272944 -153.52502564 867.39541715 C-153.54435779 846.45757651 -153.54999359 825.51974566 -153.55113976 804.58189715 C-153.55205926 788.40962392 -153.55617812 772.23735453 -153.56254101 756.06508255 C-153.56433613 751.40787075 -153.56611576 746.75065895 -153.56789076 742.09344715 C-153.56833286 740.93560473 -153.56877496 739.77776231 -153.56923045 738.58483376 C-153.58153742 706.02036967 -153.58943173 673.45590691 -153.58854389 640.89144039 C-153.58851273 639.66391367 -153.58848158 638.43638695 -153.58844948 637.17166245 C-153.58828326 630.95022937 -153.58808518 624.72879629 -153.58788006 618.50736321 C-153.58784017 617.27179416 -153.58780028 616.03622512 -153.58775918 614.76321459 C-153.58767831 612.26459235 -153.58759471 609.76597011 -153.5875084 607.26734787 C-153.58628318 568.40207546 -153.60129132 529.53683796 -153.62865353 490.67157555 C-153.65939233 446.99235326 -153.67658491 403.31315392 -153.67472708 359.63392013 C-153.67457782 354.97387914 -153.67448041 350.31383815 -153.67441845 345.65379715 C-153.67439514 344.50640376 -153.67437183 343.35901037 -153.67434782 342.17684749 C-153.67428634 323.73307454 -153.68704401 305.28933196 -153.70428298 286.84556803 C-153.7212587 268.29948553 -153.72319814 249.75344733 -153.71006434 231.20736135 C-153.70268796 220.1984829 -153.70629384 209.18973928 -153.72594902 198.18087519 C-153.73798536 190.81504583 -153.73531748 183.44931368 -153.72100802 176.0834887 C-153.71327575 171.89466255 -153.71160351 167.70609649 -153.72792272 163.51728911 C-153.87786835 122.29614195 -145.59920609 85.25620441 -118.21703243 53.25726891 C-117.53125118 52.44902672 -116.84546993 51.64078453 -116.13890743 50.80805016 C-94.52199331 26.04190934 -64.64823951 8.36109627 -32.21703243 2.25726891 C-31.37049624 2.09044985 -30.52396005 1.9236308 -29.65177124 1.75175663 C-19.73923613 0.00095415 -10.02712407 -0.02416843 0 0 Z " fill="#ffffff" transform="translate(253.21703243255615,199.74273109436035)"/>
<path d="M0 0 C0.99128906 0.70769531 1.98257812 1.41539062 3.00390625 2.14453125 C9.17299 6.64331391 14.89035494 11.46200675 20.4765625 16.6640625 C22.64802889 18.67418155 24.8621479 20.59491108 27.125 22.5 C42.80257748 36.28109634 54.61118712 54.53041755 64 73 C64.32548828 73.62793457 64.65097656 74.25586914 64.98632812 74.90283203 C72.33707985 89.201502 77.15437432 104.56777413 80.8125 120.1875 C81.10471436 121.41255249 81.10471436 121.41255249 81.40283203 122.66235352 C84.02891477 134.53525535 85.48817421 146.34754078 84.31640625 158.47265625 C82.29409013 174.89758894 82.29409013 174.89758894 87.04199219 190.11523438 C92.68852435 195.52135514 99.46123187 198.85284485 106.45898438 202.20458984 C112.24058174 205.13604786 117.4038071 208.8908137 122.6875 212.625 C124.77194622 214.0483702 126.85916587 215.46768786 128.94921875 216.8828125 C135.53384708 221.36199465 142.11331619 225.84872263 148.69213867 230.33642578 C155.62379636 235.06394477 162.56103862 239.78320908 169.5 244.5 C177.33734312 249.82747005 185.17136342 255.15974387 193 260.5 C204.99133616 268.6794129 216.9954507 276.83999683 229 285 C241.9029386 293.77067662 254.80360465 302.54459184 267.69213867 311.33642578 C274.62379636 316.06394477 281.56103862 320.78320908 288.5 325.5 C297.23548179 331.43798394 305.96564689 337.38367785 314.69140625 343.3359375 C321.62331969 348.06360221 328.56079596 352.78304413 335.5 357.5 C344.23548179 363.43798394 352.96564689 369.38367785 361.69140625 375.3359375 C368.62331969 380.06360221 375.56079596 384.78304413 382.5 389.5 C390.33734312 394.82747005 398.17136342 400.15974387 406 405.5 C417.99133616 413.6794129 429.9954507 421.83999683 442 430 C454.9029386 438.77067662 467.80360465 447.54459184 480.69213867 456.33642578 C487.62379636 461.06394477 494.56103862 465.78320908 501.5 470.5 C510.23548179 476.43798394 518.96564689 482.38367785 527.69140625 488.3359375 C534.62331969 493.06360221 541.56079596 497.78304413 548.5 502.5 C557.23548179 508.43798394 565.96564689 514.38367785 574.69140625 520.3359375 C581.62331969 525.06360221 588.56079596 529.78304413 595.5 534.5 C603.33734312 539.82747005 611.17136342 545.15974387 619 550.5 C630.99133616 558.6794129 642.9954507 566.83999683 655 575 C667.9029386 583.77067662 680.80360465 592.54459184 693.69213867 601.33642578 C700.62379636 606.06394477 707.56103862 610.78320908 714.5 615.5 C722.33734324 620.82747013 730.17131965 626.15980793 738 631.5 C746.03922282 636.98275879 754.08043017 642.46259014 762.125 647.9375 C763.13175781 648.62328125 764.13851563 649.3090625 765.17578125 650.015625 C771.27072137 654.16357428 771.27072137 654.16357428 777.40917969 658.24658203 C778.50907227 658.97087402 779.60896484 659.69516602 780.7421875 660.44140625 C781.74878418 661.09955322 782.75538086 661.7577002 783.79248047 662.43579102 C784.52096191 662.95197998 785.24944336 663.46816895 786 664 C786 664.33 786 664.66 786 665 C765.77040799 665.68522917 745.54324483 666.19250176 725.30435562 666.50255299 C715.90086832 666.6505185 706.50475967 666.85192359 697.10595703 667.18774414 C618.48802722 669.94117984 618.48802722 669.94117984 584.91931152 639.44667053 C579.38799257 634.45626402 573.22620318 630.58979581 566.9375 626.625 C564.82220646 625.22980088 562.72006668 623.81629406 560.6171875 622.40234375 C552.95572026 617.29508716 545.25993605 612.24032317 537.5625 607.1875 C536.84279022 606.71504852 536.12308044 606.24259705 535.38156128 605.75582886 C533.90080604 604.78382352 532.42004731 603.81182348 530.93928528 602.83982849 C530.1871727 602.34612259 529.43506012 601.85241669 528.66015625 601.34375 C527.51198677 600.59007896 527.51198677 600.59007896 526.34062195 599.82118225 C516.38727716 593.28645241 506.44259681 586.73856821 496.5 580.1875 C495.55368713 579.56400665 494.60737427 578.94051331 493.63238525 578.29812622 C481.65873839 570.40747214 469.70641357 562.48678749 457.78491211 554.51757812 C449.07136404 548.69914418 440.32151925 542.93717757 431.5625 537.1875 C430.84279022 536.71504852 430.12308044 536.24259705 429.38156128 535.75582886 C427.90080604 534.78382352 426.42004731 533.81182348 424.93928528 532.83982849 C424.1871727 532.34612259 423.43506012 531.85241669 422.66015625 531.34375 C421.51198677 530.59007896 421.51198677 530.59007896 420.34062195 529.82118225 C410.38727636 523.28645188 400.44283931 516.7382014 390.5 510.1875 C389.56299255 509.57032104 388.62598511 508.95314209 387.6605835 508.31726074 C378.57553235 502.33230222 369.49344469 496.34341208 360.44921875 490.296875 C359.81287506 489.87154984 359.17653137 489.44622467 358.52090454 489.00801086 C355.67004773 487.10140617 352.82169699 485.19126718 349.9765625 483.27612305 C345.07448556 479.98835357 340.17694772 476.83757385 335 474 C319.68164981 484.15579789 304.45705823 494.44645189 289.2474823 504.76396179 C282.21682313 509.53265357 275.17999876 514.29221497 268.14266968 519.05105591 C256.59163775 526.86224568 245.04374299 534.67804252 233.5 542.5 C222.67002947 549.83831038 211.83629915 557.17103827 201 564.5 C190.10153292 571.87111558 179.20513874 579.24527397 168.3125 586.625 C167.67744537 587.05524475 167.04239075 587.4854895 166.38809204 587.92877197 C161.92528378 590.95235096 157.46262379 593.97614875 153 597 C136.42019828 608.23438956 119.83809456 619.46535744 103.25 630.6875 C102.50172943 631.19375916 101.75345886 631.70001831 100.98251343 632.22161865 C98.86863016 633.65176964 96.75464683 635.08177259 94.640625 636.51171875 C93.69601158 637.15080925 93.69601158 637.15080925 92.73231506 637.80281067 C90.15973404 639.54268192 87.58410557 641.27726295 85 643 C84.76855777 645.64673472 84.72405701 648.05832259 84.8125 650.69921875 C84.83875374 652.30582074 84.86461705 653.91242915 84.89013672 655.51904297 C84.90880798 656.36287537 84.92747925 657.20670776 84.94671631 658.07611084 C86.00603898 709.99262892 70.84814691 760.00187718 35.11328125 798.69921875 C33.20404395 800.77785234 31.38023356 802.90420746 29.5625 805.0625 C13.65437221 823.22761617 -8.25767222 836.9228938 -30 847 C-31.09054687 847.52078125 -32.18109375 848.0415625 -33.3046875 848.578125 C-81.52177591 870.54754178 -138.02897486 870.14729649 -187.265625 851.890625 C-193.83714857 849.34008249 -200.09632253 846.24180883 -206.30126953 842.90820312 C-207.81334686 842.09979156 -209.34125966 841.32115838 -210.87109375 840.546875 C-231.46516334 829.8979356 -251.36921487 814.01896695 -266 796 C-266.89941705 794.93592521 -267.79919034 793.87215149 -268.69921875 792.80859375 C-303.02375866 751.69071356 -318.1914076 697.60915681 -313.50390625 644.5390625 C-310.84113003 619.44720886 -303.87571441 594.97670676 -291.92138672 572.71630859 C-291.0796218 571.14831511 -290.25935512 569.56882906 -289.44140625 567.98828125 C-278.6847078 547.55346929 -263.09206571 527.50595983 -245 513 C-244.01 512.18402344 -243.02 511.36804687 -242 510.52734375 C-199.9460374 476.28112646 -146.55112993 460.48464026 -92.63037109 465.77148438 C-59.90427316 469.46727207 -26.77384168 480.44779711 0 500 C0.99128906 500.70769531 1.98257812 501.41539062 3.00390625 502.14453125 C9.16995851 506.6411032 14.88474694 511.4573506 20.46875 516.65625 C22.68482777 518.70817386 24.94505634 520.67466306 27.25 522.625 C33.93465166 528.47068728 39.21416442 535.45640246 44.53662109 542.52001953 C46.5578556 545.19171091 48.59887309 547.66739053 51 550 C51.75953979 549.46596558 51.75953979 549.46596558 52.53442383 548.92114258 C64.22481581 540.7067341 75.96632137 532.57354803 87.77001953 524.52294922 C91.24772577 522.14787461 94.71802545 519.76207699 98.1875 517.375 C98.8362207 516.92874268 99.48494141 516.48248535 100.15332031 516.02270508 C101.45170359 515.12945766 102.75004364 514.2361474 104.04833984 513.34277344 C106.69565963 511.52137503 109.34364741 509.70094917 111.99169922 507.88061523 C113.33324661 506.95836256 114.67471767 506.03599883 116.01611328 505.11352539 C119.26070913 502.88232419 122.50615999 500.65239463 125.75390625 498.42578125 C133.56706127 493.06622751 141.35247139 487.66831807 149.125 482.25 C158.67817169 475.59268788 168.28220169 469.01338386 177.91015625 462.46484375 C184.33236212 458.09659201 190.73103546 453.69447286 197.12744141 449.28857422 C198.9938055 448.00426266 200.86185805 446.72244649 202.73046875 445.44140625 C210.86140487 439.86501311 218.96755065 434.25351447 227.0625 428.625 C228.52635132 427.60756714 228.52635132 427.60756714 230.01977539 426.56958008 C230.95297607 425.92013428 231.88617676 425.27068848 232.84765625 424.6015625 C233.73340332 423.98571289 234.61915039 423.36986328 235.53173828 422.73535156 C237.72824334 421.19106294 239.89503887 419.61328444 242.05859375 418.0234375 C245 416 245 416 247 416 C247 415.34 247 414.68 247 414 C246.30205322 413.7522583 245.60410645 413.5045166 244.88500977 413.24926758 C241.57993272 411.81810237 238.82601974 410.02776196 235.83984375 408.01171875 C235.23448288 407.60534683 234.62912201 407.19897491 234.00541687 406.7802887 C232.68086053 405.89060229 231.3576784 404.99886738 230.03570557 404.10534668 C226.35992293 401.62146412 222.67343429 399.15354308 218.98828125 396.68359375 C218.19629333 396.15222809 217.40430542 395.62086243 216.58831787 395.07339478 C206.64012943 388.40567216 196.63027605 381.83158745 186.625 375.25 C174.64488392 367.36565882 162.67202081 359.47195915 150.75 351.5 C140.24892072 344.48017342 129.70039657 337.53554759 119.13427734 330.61425781 C110.97295358 325.26738331 102.82026977 319.90764748 94.67578125 314.53515625 C93.69990555 313.89148605 92.72402985 313.24781586 91.71858215 312.5846405 C87.82245199 310.01456821 83.92645646 307.44429416 80.03152466 304.87240601 C63.42010829 293.25025926 63.42010829 293.25025926 46 283 C45.77570313 283.69609375 45.55140625 284.3921875 45.3203125 285.109375 C43.69979629 288.65725073 41.42382955 291.34751335 38.875 294.25 C38.38217529 294.81992676 37.88935059 295.38985352 37.3815918 295.97705078 C36.38780765 297.12373722 35.39102366 298.26783138 34.39111328 299.40917969 C33.17661114 300.79803472 31.9757813 302.19882189 30.77734375 303.6015625 C26.51607872 308.53209182 22.04550406 312.88019999 17 317 C16.00355469 317.82242187 15.00710938 318.64484375 13.98046875 319.4921875 C0.38145265 330.54685872 -14.1065369 339.6337181 -30 347 C-31.09054687 347.52078125 -32.18109375 348.0415625 -33.3046875 348.578125 C-81.52177591 370.54754178 -138.02897486 370.14729649 -187.265625 351.890625 C-193.83714857 349.34008249 -200.09632253 346.24180883 -206.30126953 342.90820312 C-207.81334686 342.09979156 -209.34125966 341.32115838 -210.87109375 340.546875 C-231.46516334 329.8979356 -251.36921487 314.01896695 -266 296 C-266.89941705 294.93592521 -267.79919034 293.87215149 -268.69921875 292.80859375 C-303.02375866 251.69071356 -318.1914076 197.60915681 -313.50390625 144.5390625 C-310.84113003 119.44720886 -303.87571441 94.97670676 -291.92138672 72.71630859 C-291.0796218 71.14831511 -290.25935512 69.56882906 -289.44140625 67.98828125 C-278.6847078 47.55346929 -263.09206571 27.50595983 -245 13 C-244.01 12.18402344 -243.02 11.36804688 -242 10.52734375 C-174.60055077 -44.35871312 -71.66105347 -52.33210361 0 0 Z M-179 89 C-180.06177748 89.83425373 -181.1241789 90.66771463 -182.1875 91.5 C-199.93100506 107.27200449 -211.85652743 131.42180176 -214 155 C-215.42361189 180.14309097 -209.90272324 206.4669845 -193.375 226.2734375 C-190.98227851 228.9296432 -188.54215121 231.48731081 -186 234 C-185.15566406 234.84691406 -184.31132813 235.69382812 -183.44140625 236.56640625 C-182.63574219 237.36949219 -181.83007812 238.17257812 -181 239 C-180.37480469 239.63421875 -179.74960937 240.2684375 -179.10546875 240.921875 C-161.27797705 257.91427035 -135.60556939 265.57216109 -111.43164062 265.3515625 C-86.50712685 264.66187572 -62.54559283 254.75132005 -45 237 C-44.1440625 236.14921875 -43.288125 235.2984375 -42.40625 234.421875 C-23.91993371 215.8155177 -13.95839058 191.40571662 -13.6875 165.25 C-13.80217234 140.68947803 -22.45038157 116.16831324 -39.640625 98.33203125 C-40.80851562 97.17767578 -40.80851562 97.17767578 -42 96 C-42.84175781 95.154375 -43.68351563 94.30875 -44.55078125 93.4375 C-45.35902344 92.633125 -46.16726563 91.82875 -47 91 C-47.64839844 90.35417969 -48.29679688 89.70835937 -48.96484375 89.04296875 C-68.92209392 70.2712978 -95.6783645 64.14159332 -122.3046875 64.86376953 C-143.09858704 65.91476554 -163.45022882 75.474633 -179 89 Z M-179 589 C-180.06177748 589.83425373 -181.1241789 590.66771463 -182.1875 591.5 C-199.93100506 607.27200449 -211.85652743 631.42180176 -214 655 C-215.42361189 680.14309097 -209.90272324 706.4669845 -193.375 726.2734375 C-190.98227851 728.9296432 -188.54215121 731.48731081 -186 734 C-185.15566406 734.84691406 -184.31132813 735.69382812 -183.44140625 736.56640625 C-182.63574219 737.36949219 -181.83007812 738.17257812 -181 739 C-180.37480469 739.63421875 -179.74960937 740.2684375 -179.10546875 740.921875 C-161.27797705 757.91427035 -135.60556939 765.57216109 -111.43164062 765.3515625 C-86.50712685 764.66187572 -62.54559283 754.75132005 -45 737 C-44.1440625 736.14921875 -43.288125 735.2984375 -42.40625 734.421875 C-23.91993371 715.8155177 -13.95839058 691.40571662 -13.6875 665.25 C-13.80217234 640.68947803 -22.45038157 616.16831324 -39.640625 598.33203125 C-40.80851562 597.17767578 -40.80851562 597.17767578 -42 596 C-42.84175781 595.154375 -43.68351563 594.30875 -44.55078125 593.4375 C-45.35902344 592.633125 -46.16726563 591.82875 -47 591 C-47.64839844 590.35417969 -48.29679688 589.70835937 -48.96484375 589.04296875 C-68.92209392 570.2712978 -95.6783645 564.14159332 -122.3046875 564.86376953 C-143.09858704 565.91476554 -163.45022882 575.474633 -179 589 Z " fill="#ffffff" transform="translate(814,735)"/>
<path d="M0 0 C4.45861114 0.08226728 8.91738443 0.08898048 13.37663746 0.1043303 C21.78833826 0.14444902 30.19779536 0.25072278 38.60851598 0.38187367 C48.19735353 0.52809162 57.78630854 0.59888269 67.37598658 0.66391432 C87.07241391 0.79914426 106.7668333 1.02722591 126.46153736 1.31812119 C122.67007678 4.36652768 118.82267618 7.31744698 114.89903736 10.19312119 C114.25627857 10.6643541 113.61351978 11.13558702 112.95128345 11.62109971 C105.0239993 17.40387253 96.96265448 22.99511564 88.91319752 28.60571885 C85.19113683 31.20545334 81.48161193 33.82278532 77.77403736 36.44312119 C77.08455006 36.93030625 76.39506275 37.41749131 75.68468189 37.91943955 C74.30244005 38.89629522 72.92027817 39.87326405 71.53819752 40.85034776 C67.30343852 43.8434551 63.06606283 46.83285728 58.82921314 49.82300401 C55.32431407 52.29676676 51.81998269 54.77132419 48.31700611 57.24780869 C39.86396039 63.22214176 31.39294143 69.17011153 22.91026783 75.10230088 C15.4376393 80.33011316 7.98494112 85.585755 0.53819752 90.85034776 C-2.9861378 93.34133105 -6.51240965 95.82957022 -10.03846264 98.31812119 C-11.45513832 99.31810842 -12.871805 100.31810841 -14.28846264 101.31812119 C-22.78846264 107.31812119 -31.28846264 113.31812119 -39.78846264 119.31812119 C-40.48947094 119.81296006 -41.19047924 120.30779893 -41.91273022 120.81763291 C-43.33180222 121.81931162 -44.75091039 122.82093909 -46.17005444 123.82251573 C-49.67521538 126.29641614 -53.17977779 128.77115486 -56.68299389 131.24780869 C-65.13603961 137.22214176 -73.60705857 143.17011153 -82.08973217 149.10230088 C-89.5623607 154.33011316 -97.01505888 159.585755 -104.46180248 164.85034776 C-106.56624834 166.33775999 -108.6713658 167.82421633 -110.77674389 169.31030869 C-111.48073315 169.80732285 -112.1847224 170.30433702 -112.91004467 170.81641221 C-114.31804873 171.80983192 -115.72656956 172.80251963 -117.13563061 173.79443955 C-120.85256652 176.41269929 -124.55672397 179.04701251 -128.24549389 181.70483994 C-129.40178295 182.53338487 -129.40178295 182.53338487 -130.58143139 183.37866807 C-132.06026959 184.43879907 -133.53571721 185.5036809 -135.00721264 186.57398057 C-135.67365795 187.05028916 -136.34010326 187.52659776 -137.02674389 188.01733994 C-137.60980297 188.43846055 -138.19286205 188.85958116 -138.79358959 189.29346299 C-140.7818348 190.46103892 -142.25147052 190.99003828 -144.53846264 191.31812119 C-146.40053844 190.53256822 -146.40053844 190.53256822 -148.34925365 189.22974229 C-149.09259457 188.74163575 -149.83593548 188.25352921 -150.60180187 187.75063157 C-151.40718899 187.20313752 -152.2125761 186.65564347 -153.04236889 186.09155869 C-153.89766689 185.52452729 -154.7529649 184.95749589 -155.63418102 184.37328172 C-158.46476858 182.49206545 -161.28281031 180.59290509 -164.10096264 178.69312119 C-166.05913027 177.38574465 -168.0179606 176.07936019 -169.97742748 174.77393174 C-175.12524355 171.33915476 -180.26188489 167.88803365 -185.39557934 164.4321959 C-188.52568108 162.32671877 -191.65871863 160.22568922 -194.79285717 158.12622666 C-200.75349915 154.13329473 -206.71015699 150.13448279 -212.66346264 146.13062119 C-214.07693478 145.18022965 -214.07693478 145.18022965 -215.51896191 144.21063828 C-218.1757636 142.42238677 -220.83022705 140.63072732 -223.48377514 138.83765244 C-224.2744186 138.30562715 -225.06506207 137.77360185 -225.87966442 137.22545457 C-226.59996334 136.73758973 -227.32026226 136.24972489 -228.06238842 135.74707627 C-228.68912457 135.32380555 -229.31586071 134.90053483 -229.96158886 134.46443772 C-231.53846264 133.31812119 -231.53846264 133.31812119 -233.53846264 131.31812119 C-227.70412526 126.89292462 -221.77973566 122.77077692 -215.53846264 118.94312119 C-207.90894526 114.2598237 -200.47141129 109.30431939 -193.03846264 104.31812119 C-185.31814736 99.14249744 -177.58510845 94.01414387 -169.66761303 89.14307237 C-163.36508691 85.2495409 -157.17138834 81.19170008 -150.97596264 77.13062119 C-150.41905743 76.76560502 -149.86215221 76.40058885 -149.28837109 76.02451158 C-147.03143666 74.5448973 -144.77477321 73.06487119 -142.5185194 71.58421922 C-136.90687111 67.90189429 -131.28616283 64.23354023 -125.66346264 60.56812119 C-124.72131908 59.95380235 -123.77917553 59.3394835 -122.80848217 58.70654893 C-114.20767237 53.09982419 -105.59987343 47.50387675 -96.9901228 41.91089463 C-92.83906881 39.21407366 -88.68881026 36.51602906 -84.53846264 33.81812119 C-82.87179969 32.73478214 -81.20513303 31.65144881 -79.53846264 30.56812119 C-78.71346264 30.03187119 -77.88846264 29.49562119 -77.03846264 28.94312119 C-74.53846264 27.31812119 -72.03846264 25.69312119 -69.53846264 24.06812119 C-68.76076897 23.56077597 -67.98307529 23.05343074 -67.18181515 22.53071141 C-65.51290752 21.44945007 -63.8378799 20.37752455 -62.15454006 19.31887174 C-58.04339597 16.71337357 -54.16490334 14.0857703 -50.49372387 10.88423753 C-35.29971355 -1.69634822 -18.64562302 -0.40311358 0 0 Z " fill="#ffffff" transform="translate(1473.538462638855,898.6818788051605)"/>
<path d="M0 0 C33 0 66 0 100 0 C100 33 100 66 100 100 C67 100 34 100 0 100 C0 67 0 34 0 0 Z " fill="#ffffff" transform="translate(300,1000)"/>
<path d="M0 0 C33 0 66 0 100 0 C100 33 100 66 100 100 C67 100 34 100 0 100 C0 67 0 34 0 0 Z " fill="#ffffff" transform="translate(300,800)"/>
<path d="M0 0 C33 0 66 0 100 0 C100 33 100 66 100 100 C67 100 34 100 0 100 C0 67 0 34 0 0 Z " fill="#ffffff" transform="translate(1200,600)"/>
<path d="M0 0 C33 0 66 0 100 0 C100 33 100 66 100 100 C67 100 34 100 0 100 C0 67 0 34 0 0 Z " fill="#ffffff" transform="translate(300,600)"/>
<path d="M0 0 C33 0 66 0 100 0 C100 33 100 66 100 100 C67 100 34 100 0 100 C0 67 0 34 0 0 Z " fill="#ffffff" transform="translate(1200,400)"/>
<path d="M0 0 C33 0 66 0 100 0 C100 33 100 66 100 100 C67 100 34 100 0 100 C0 67 0 34 0 0 Z " fill="#ffffff" transform="translate(300,400)"/>
<path d="M0 0 C33 0 66 0 100 0 C100.37125 11.818125 100.7425 23.63625 101.125 35.8125 C101.28887207 39.52346924 101.45274414 43.23443848 101.62158203 47.05786133 C102.2048443 69.62046148 102.2048443 69.62046148 98.30508423 75.59793091 C94.20258237 79.47777082 89.64111648 81.4367378 84.32136536 83.13856506 C80.458876 84.57189535 77.26745528 86.92881579 73.9375 89.3125 C72.22958185 90.47154334 70.51632659 91.62053781 68.79257202 92.75590515 C66.95294503 93.99448391 66.95294503 93.99448391 65.16372681 95.52497864 C58.4811579 100.73497876 52.6924671 100.79609818 44.43359375 100.5859375 C43.30248169 100.57989502 42.17136963 100.57385254 41.00598145 100.56762695 C36.81611167 100.53644208 32.62676579 100.45267447 28.4375 100.375 C19.053125 100.25125 9.66875 100.1275 0 100 C0 67 0 34 0 0 Z " fill="#ffffff" transform="translate(1200,800)"/>
</svg>