<svg version="1.1" xmlns="http://www.w3.org/2000/svg" width="1600px" height="1600px" transform="rotate(0) scale(1, 1)">
<path d="M0 0 C524.04 0 1048.08 0 1588 0 C1588.020625 157.059375 1588.04125 314.11875 1588.0625 475.9375 C1588.071604 525.62948975 1588.08070801 575.32147949 1588.09008789 626.51928711 C1588.09460449 686.94445801 1588.09460449 686.94445801 1588.09544373 715.18287659 C1588.09644163 736.32232007 1588.1007657 757.46176039 1588.10667343 778.60120299 C1588.11260892 800.12945173 1588.11484069 821.65769846 1588.11344495 843.18594799 C1588.11272434 856.00559642 1588.11474671 868.82523738 1588.1208076 881.64488443 C1588.12453192 890.09101357 1588.12468823 898.5371377 1588.12183534 906.98326717 C1588.12031143 911.80569983 1588.1204353 916.62811808 1588.12488258 921.45054924 C1588.12889534 925.83581907 1588.12840291 930.22106315 1588.12413984 934.60633252 C1588.12341891 936.19267769 1588.12441597 937.77902468 1588.12723528 939.36536751 C1588.13079363 941.50079394 1588.12831917 943.63612638 1588.1241985 945.77154964 C1588.12435448 946.9593421 1588.12451046 948.14713455 1588.12467116 949.37092071 C1588 952 1588 952 1587 953 C1583.87266658 953.15699128 1580.76543967 953.24818033 1577.63565636 953.29902649 C1576.63528776 953.31905491 1575.63491916 953.33908334 1574.60423636 953.35971868 C1571.20672278 953.42622942 1567.80912276 953.4853314 1564.41146851 953.54418945 C1561.96824547 953.58968446 1559.52502755 953.63545439 1557.08181441 953.68147755 C1550.33064799 953.80669716 1543.57937179 953.92424354 1536.82803154 954.03958559 C1533.23827731 954.10096393 1529.64855044 954.16380377 1526.05883034 954.2271436 C1489.74392317 954.86774253 1453.42844589 955.38926569 1417.10977173 955.76098633 C1416.26847204 955.76960947 1415.42717236 955.7782326 1414.56037874 955.78711705 C1396.26621832 955.97401674 1377.97194973 956.14608715 1359.67748936 956.30083317 C1350.7035904 956.37676181 1341.72971857 956.45564999 1332.75585938 956.53613281 C1331.86298994 956.54408775 1330.9701205 956.55204268 1330.05019441 956.56023867 C1301.24636154 956.81833503 1272.4505961 957.2838926 1243.65153874 957.86125799 C1213.98606529 958.45489471 1184.32501619 958.83560328 1154.65368383 958.95773638 C1150.43713803 958.97518277 1146.22060629 958.99498012 1142.00407791 959.01620483 C1141.17443232 959.02030598 1140.34478673 959.02440713 1139.49000037 959.02863256 C1127.90401312 959.09116585 1116.32864409 959.29918808 1104.74713128 959.62320317 C1085.32435514 960.1665318 1065.9195881 960.45404333 1046.48974609 960.16796875 C1045.765841 960.15785244 1045.04193591 960.14773614 1044.29609429 960.13731328 C1007.31251653 959.57558183 976.98477333 955.47614669 949.97738624 927.87617499 C921 897.08014559 921 897.08014559 921 889 C1119.99 889 1318.98 889 1524 889 C1524 616.75 1524 344.5 1524 64 C1042.2 64 560.4 64 64 64 C64 336.25 64 608.5 64 889 C197.08935509 886.51199142 197.08935509 886.51199142 330.16235352 883.32446289 C356.09362793 883.03991699 356.09362793 883.03991699 368.29161072 882.98704529 C376.69477599 882.9290444 385.0703377 882.7005638 393.46580505 882.34873962 C469.97173032 879.23955282 469.97173032 879.23955282 499.32034799 905.49386384 C514.39099285 919.40240518 528.17646269 935.23510435 540 952 C540 952.33 540 952.66 540 953 C361.8 953 183.6 953 0 953 C0 638.51 0 324.02 0 0 Z " fill="#ffffff" transform="translate(0,95)"/>
<path d="M0 0 C5.19158242 3.50695395 9.47397339 7.65797755 13.85743713 12.11106873 C14.70421524 12.95901505 15.55099335 13.80696136 16.4234314 14.68060303 C18.72217298 16.98525886 21.01416726 19.29637444 23.30338979 21.61047816 C25.71484256 24.0446104 28.13538459 26.46966992 30.55505371 28.89562988 C35.13390264 33.48891139 39.70547394 38.08935952 44.27404159 42.69286495 C52.4478947 50.92877334 60.63398776 59.15250701 68.82296175 67.37337786 C71.22291117 69.78315744 73.62135962 72.19439729 76.01654243 74.60891533 C78.68927388 77.30313294 81.36494454 79.99440282 84.04103088 82.68528748 C84.82099426 83.47355927 85.60095764 84.26183105 86.40455627 85.07398987 C89.69695919 88.37959392 92.99689372 91.60701776 96.55078125 94.63110352 C103.05950475 100.24158636 109.00789311 106.46454908 115.06813049 112.54881287 C116.49451229 113.97711627 117.92112373 115.40519037 119.34794617 116.83305359 C122.40822358 119.89648053 125.46694314 122.96145136 128.52445984 126.02763367 C133.36364495 130.88039287 138.20668816 135.72928941 143.05030823 140.57762146 C154.2049028 151.74423623 165.35447082 162.91586548 176.5039978 174.08753967 C186.72672584 184.33047014 196.95052177 194.57232866 207.17838001 204.8101368 C211.98875283 209.62547866 216.79667973 214.44324522 221.60272217 219.26290894 C224.59737159 222.26504079 227.59411211 225.26507867 230.59141159 228.26456451 C231.97574788 229.65076578 233.35922301 231.0378277 234.74174881 232.42583466 C242.60344593 240.41716429 242.60344593 240.41716429 250.88453674 247.96287537 C257.30478471 253.43005602 263.12172779 259.57883507 269.06813049 265.54881287 C270.49451229 266.97711627 271.92112373 268.40519037 273.34794617 269.83305359 C276.40822358 272.89648053 279.46694314 275.96145136 282.52445984 279.02763367 C287.36364495 283.88039287 292.20668816 288.72928941 297.05030823 293.57762146 C308.2049028 304.74423623 319.35447082 315.91586548 330.5039978 327.08753967 C340.72672584 337.33047014 350.95052177 347.57232866 361.17838001 357.8101368 C365.98875283 362.62547866 370.79667973 367.44324522 375.60272217 372.26290894 C378.59737159 375.26504079 381.59411211 378.26507867 384.59141159 381.26456451 C385.97574788 382.65076578 387.35922301 384.0378277 388.74174881 385.42583466 C396.60344593 393.41716429 396.60344593 393.41716429 404.88453674 400.96287537 C411.30478471 406.43005602 417.12172779 412.57883507 423.06813049 418.54881287 C424.49451229 419.97711627 425.92112373 421.40519037 427.34794617 422.83305359 C430.40822358 425.89648053 433.46694314 428.96145136 436.52445984 432.02763367 C441.36364495 436.88039287 446.20668816 441.72928941 451.05030823 446.57762146 C462.2049028 457.74423623 473.35447082 468.91586548 484.5039978 480.08753967 C494.72672584 490.33047014 504.95052177 500.57232866 515.17838001 510.8101368 C519.98875283 515.62547866 524.79667973 520.44324522 529.60272217 525.26290894 C532.59737159 528.26504079 535.59411211 531.26507867 538.59141159 534.26456451 C539.97574788 535.65076578 541.35922301 537.0378277 542.74174881 538.42583466 C551.758142 547.4890326 551.758142 547.4890326 561.25660706 556.03926468 C563.84259882 558.30069251 566.1268725 560.76828471 568.46070862 563.29051208 C569.49354892 564.39950939 570.52698212 565.50795472 571.56092834 566.61592102 C572.09607559 567.19087185 572.63122284 567.76582268 573.18258667 568.35819626 C576.69068363 572.10496755 580.25450362 575.7989609 583.81142426 579.49931145 C586.9107144 582.72952949 589.98559196 585.9773883 593.01490784 589.27342224 C607.69194204 606.55883216 607.69194204 606.55883216 627.84352112 614.58717346 C631.6655803 614.5494101 635.36715496 614.19305614 639.15159607 613.67634583 C668.29574118 611.39989171 701.69846878 629.56824055 723.46749878 647.47787476 C730.89334877 653.84001701 737.68685986 660.9354553 744.59938049 667.84178162 C746.30355009 669.53950872 748.00786287 671.23709211 749.71231079 672.93453979 C753.2718872 676.48219486 756.82736113 680.03390398 760.38038635 683.58811951 C764.8963247 688.10426069 769.42585139 692.60649766 773.9590826 697.10527134 C777.48111211 700.60488011 780.99382803 704.11372828 784.50413704 707.62508965 C786.16839025 709.28700919 787.83582528 710.94574969 789.50671196 712.60099983 C801.96463381 724.95320199 813.92098826 737.77484431 822.19703674 753.40037537 C822.59890198 754.14505066 823.00076721 754.88972595 823.41481018 755.65696716 C844.65889393 795.82659639 847.4911906 839.61136629 834.61109924 882.82615662 C826.56160159 908.2368489 811.56120144 928.89787982 792.88453674 947.46287537 C792.35215393 948.01233826 791.81977112 948.56180115 791.27125549 949.12791443 C772.62529107 968.22330512 747.55990708 980.47324709 722.00953674 987.33787537 C721.29805481 987.52905945 720.58657288 987.72024353 719.85353088 987.91722107 C707.75366545 990.9459682 695.63674198 991.84491871 683.19703674 991.77537537 C682.49832458 991.77322021 681.79961243 991.77106506 681.07972717 991.7688446 C647.20416688 991.60181297 614.97769849 980.86232338 587.69703674 960.65037537 C587.10471252 960.21378601 586.51238831 959.77719666 585.90211487 959.32737732 C573.54398845 949.8804762 562.63920197 938.40058103 551.63453674 927.45115662 C550.93453552 926.75523092 550.2345343 926.05930523 549.51332092 925.34229088 C545.81253643 921.66216994 542.11489818 917.97892029 538.41969299 914.29319763 C534.65328644 910.53785322 530.87533064 906.7943539 527.09468079 903.05335712 C524.1415102 900.12660744 521.19752356 897.19074205 518.25575256 894.25253868 C516.86880356 892.87038482 515.47855083 891.49153619 514.08460999 890.1164341 C488.22286933 864.58283886 471.40767617 835.40644296 465.13453674 799.40037537 C464.93528595 798.29504707 464.93528595 798.29504707 464.73200989 797.16738892 C464.02430842 792.60857118 463.87539835 788.75913141 464.6709137 784.20359802 C465.86761094 775.49310471 465.50507221 767.75143642 460.21052551 760.51893616 C452.16141446 750.50912947 442.53298286 741.80489162 433.14790344 733.07829285 C429.2500247 729.42835957 425.42129587 725.70731715 421.58570862 721.99217224 C414.08366951 714.74559854 406.50961623 707.57971546 398.88453674 700.46287537 C394.69190573 702.14648583 391.67535796 705.17905744 388.41944885 708.20896912 C387.77994797 708.79838287 387.14044708 709.38779663 386.48156738 709.99507141 C380.55149714 715.48542618 374.71023967 721.06944789 368.89545345 726.68151855 C365.00090121 730.43776051 361.08346304 734.15909271 357.08937073 737.80955505 C334.65070683 757.45802277 334.65070683 757.45802277 325.53724861 784.69148254 C325.38557997 789.43139252 325.54907912 794.13375301 325.81558228 798.86932373 C326.31254896 824.7686671 310.47784952 855.39966104 293.88453674 874.46287537 C293.33080887 875.10012543 292.77708099 875.73737549 292.20657349 876.39393616 C284.81265778 884.74502823 276.93841892 892.61100217 269.07203674 900.51365662 C268.31819702 901.27157187 267.5643573 902.02948711 266.78767395 902.81036949 C262.79638019 906.82240387 258.80190077 910.83123604 254.8049469 914.83763123 C250.7232966 918.93031821 246.65346719 923.03455188 242.58621216 927.14153767 C239.41496343 930.33918761 236.23461544 933.52767518 233.05192566 936.71393394 C231.54976116 938.22090413 230.05091283 939.73118886 228.55577087 941.24512672 C214.19841556 955.77169271 199.16307416 968.20174974 180.88453674 977.46287537 C180.25305725 977.78481873 179.62157776 978.10676208 178.97096252 978.4384613 C156.95435424 989.52334989 133.64799384 994.69284827 109.07203674 994.71287537 C108.33121857 994.71355011 107.59040039 994.71422485 106.82713318 994.71492004 C95.5811258 994.69863758 84.83526532 994.16169663 73.88453674 991.46287537 C73.17974182 991.30190369 72.4749469 991.14093201 71.74879456 990.9750824 C42.88220664 984.30617028 18.27001787 969.66227098 -3.11546326 949.46287537 C-3.85151794 948.77967224 -4.58757263 948.09646912 -5.34593201 947.39256287 C-16.28578027 936.89805356 -24.83686009 924.70066702 -32.11546326 911.46287537 C-32.46737732 910.82623962 -32.81929138 910.18960388 -33.18186951 909.53367615 C-45.53100038 886.88031199 -51.34373665 861.93496286 -51.36546326 836.21287537 C-51.366138 835.49734497 -51.36681274 834.78181458 -51.36750793 834.04460144 C-51.35040315 822.61572704 -50.73520151 811.61912655 -48.11546326 800.46287537 C-47.94385681 799.71441345 -47.77225037 798.96595154 -47.59544373 798.19480896 C-44.96649217 787.06111689 -41.11246568 776.73822613 -36.11546326 766.46287537 C-35.78562439 765.77338806 -35.45578552 765.08390076 -35.11595154 764.3735199 C-23.86583228 741.10902149 -6.28902223 723.4828415 11.74391174 705.36521912 C12.48738106 704.61767427 13.23085037 703.87012943 13.99684906 703.09993172 C17.92751582 699.14857267 21.86133179 695.20037941 25.79762268 691.25462341 C29.82110232 687.22007016 33.83275063 683.1739609 37.84189987 679.12517452 C40.96676865 675.97396109 44.10068219 672.83185669 47.23696136 669.69200325 C48.7184462 668.20570447 50.19660635 666.71608283 51.67108917 665.22283745 C71.98203258 644.66942471 94.85639343 629.59423935 122.88453674 621.46287537 C124.74465393 620.92146912 124.74465393 620.92146912 126.64234924 620.36912537 C127.99166346 620.01665352 129.34335785 619.67319417 130.69703674 619.33787537 C131.3846962 619.16326279 132.07235565 618.98865021 132.78085327 618.80874634 C138.0274498 617.65719012 142.68303478 617.47528716 148.04689026 617.82542419 C163.44986496 618.40465323 174.49945033 616.26731672 186.29621792 605.84054565 C194.17661508 598.52982139 201.49245589 590.66347439 208.74134827 582.73466492 C212.55886327 578.59551385 216.46979374 574.54658338 220.37281799 570.48826599 C227.96865212 562.56351586 235.45879863 554.54700421 242.88453674 546.46287537 C241.27613944 543.06413675 239.49240807 540.82529797 236.81422424 538.16209412 C235.59219299 536.94296326 235.59219299 536.94296326 234.34547424 535.69920349 C233.49211487 534.85809021 232.63875549 534.01697693 231.75953674 533.15037537 C230.92938049 532.32086365 230.09922424 531.49135193 229.24391174 530.63670349 C225.66612593 527.08415284 222.07393221 523.61220418 218.24773502 520.32805729 C213.79906097 516.44258777 209.61793544 512.3299706 205.45275879 508.1446228 C204.64231898 507.33433186 203.83187918 506.52404091 202.99688059 505.68919569 C200.29941781 502.99104203 197.60553982 500.28933823 194.91163635 497.58763123 C192.97160583 495.64511394 191.03080632 493.70336565 189.09002686 491.76159668 C184.91973019 487.58842253 180.75121131 483.41347952 176.5838604 479.23736382 C170.55156252 473.19247275 164.51599299 467.15085662 158.47954256 461.11011261 C148.67487351 451.29838683 138.87207502 441.48479464 129.07081604 431.66966248 C128.4850345 431.08305312 127.89925296 430.49644377 127.29572047 429.89205838 C123.13777618 425.72821368 118.97989893 421.56430205 114.82203674 417.40037537 C110.07070002 412.64210929 105.31933225 407.88387422 100.56788635 403.12571716 C99.98252084 402.53952352 99.39715532 401.95332988 98.79405146 401.3493728 C89.02658877 391.56821453 79.25715499 381.78902726 69.48631865 372.01123911 C63.46633131 365.98677757 57.44812583 359.96054651 51.43222678 353.93200243 C47.31024085 349.80157727 43.1864769 345.67293295 39.06132215 341.54567259 C36.6834675 339.16647605 34.30672876 336.78619212 31.93164062 334.40423203 C29.35318189 331.81854844 26.77164193 329.23597994 24.18933105 326.65414429 C23.44477014 325.90598841 22.70020923 325.15783254 21.93308586 324.38700527 C18.18205293 320.64335049 14.36970804 317.05895974 10.29891592 313.66402155 C7.10385683 310.95065226 4.54894969 307.68237435 1.88453674 304.46287537 C1.46043518 303.96175232 1.03633362 303.46062927 0.59938049 302.94432068 C-11.88713975 288.15353312 -22.0177019 272.0359483 -30.11546326 254.46287537 C-30.64655701 253.32850037 -31.17765076 252.19412537 -31.72483826 251.02537537 C-37.74261212 237.62497171 -41.80784269 223.7442299 -44.86546326 209.40037537 C-45.06405945 208.48079041 -45.26265564 207.56120544 -45.4672699 206.61375427 C-49.5566326 186.44890536 -49.44363501 166.32658423 -49.4499774 145.86037445 C-49.45141138 143.2560849 -49.45570371 140.65181559 -49.46097183 138.04753113 C-49.47937518 128.93905833 -49.48765286 119.83064349 -49.48606873 110.72215271 C-49.48486315 102.26379585 -49.5060717 93.80569239 -49.53755605 85.34739971 C-49.56374998 78.04756578 -49.57443504 70.74781468 -49.57315791 63.44793415 C-49.57265011 59.10391564 -49.57823491 54.76012412 -49.59951401 50.41615295 C-49.6189548 46.3381267 -49.61898145 42.26054322 -49.60448074 38.18250084 C-49.60240026 36.69345129 -49.60704789 35.20437349 -49.61920166 33.71537209 C-49.70502325 22.4671014 -48.23392583 11.91270375 -40.11546326 3.46287537 C-28.15961258 -6.59522123 -13.33227942 -8.5804466 0 0 Z M14.88453674 105.46287537 C14.814187 114.34012964 14.7613037 123.21728405 14.72910023 132.09475899 C14.71362318 136.21951964 14.69272604 140.34408592 14.65821838 144.46873474 C14.30286233 188.12979 20.27974279 226.85107468 48.88453674 261.46287537 C49.51359924 262.23373474 50.14266174 263.00459412 50.79078674 263.79881287 C53.5414533 267.06210364 56.40356105 269.98588218 59.65272141 272.75420094 C63.58567491 276.16403256 67.29788868 279.73831722 70.96858215 283.42666626 C71.63725862 284.09448848 72.30593509 284.7623107 72.99487448 285.45036995 C75.22382042 287.67767806 77.44918589 289.90852839 79.67457581 292.13938904 C81.29248518 293.75757858 82.91061639 295.37554635 84.52894974 296.99331188 C88.96709223 301.43115925 93.40211622 305.8721117 97.83664131 310.31357336 C102.13104827 314.61370462 106.42782243 318.91146802 110.72455728 323.20927301 C119.51250215 331.99954955 128.29818881 340.79207975 137.08265686 349.58583069 C149.08049767 361.59628909 161.0816309 373.60345355 173.08363962 385.60974681 C178.67846493 391.20657818 184.27312948 396.80357024 189.86775208 402.40060425 C190.42777026 402.96086344 190.98778844 403.52112264 191.56477687 404.09835938 C204.88734484 417.42673569 218.20833805 430.75668555 231.52906799 444.0868988 C232.11173717 444.66998162 232.69440634 445.25306444 233.29473215 445.85381643 C242.75007694 455.31587802 252.20532613 464.77803513 261.66056347 474.2402041 C270.52033191 483.10646558 279.38013537 491.97269206 288.24000549 500.83885193 C289.1135353 501.71300362 289.1135353 501.71300362 290.00471216 502.60481493 C303.30281041 515.9123633 316.60135949 529.2194607 329.90132141 542.52514648 C330.46044148 543.08450755 331.01956155 543.64386861 331.59562466 544.22018001 C337.17782614 549.80476697 342.7601064 555.38927517 348.34250425 560.97366585 C360.33047126 572.96594724 372.31705794 584.95960365 384.30084884 596.95605829 C393.03588749 605.70028567 401.7726435 614.44279389 410.51118946 623.18351626 C415.24457584 627.91819193 419.97706716 632.65375374 424.70739746 637.39148331 C429.03780856 641.72864255 433.37051942 646.0634905 437.7050662 650.39651644 C439.27246093 651.96418259 440.83900528 653.53269953 442.40461016 655.10215318 C444.53425674 657.23679174 446.66698543 659.36830416 448.80049133 661.49908447 C449.40609186 662.10759786 450.01169238 662.71611124 450.63564444 663.34306443 C454.32769265 667.02239066 458.14542555 670.5043894 462.09708655 673.9036625 C464.69064965 676.1660567 467.11952933 678.55515493 469.5627594 680.97996521 C470.0712291 681.48347 470.57969879 681.98697479 471.10357666 682.5057373 C472.75462525 684.14239543 474.40195016 685.78272917 476.04859924 687.42381287 C476.61849957 687.99088581 477.18839989 688.55795876 477.77556992 689.14221573 C480.78723886 692.13899226 483.79609697 695.1385562 486.80250549 698.14060974 C489.88654314 701.21915417 492.97976169 704.28829776 496.07522011 707.3553524 C498.47566144 709.73707266 500.869274 712.12556945 503.2611351 714.51590347 C504.39799783 715.64976433 505.5373313 716.78115409 506.67929459 717.90987778 C524.52391937 735.56216573 524.52391937 735.56216573 525.0639801 747.39427185 C525.04353524 748.87433108 525.01314926 750.35427648 524.97438049 751.83396912 C524.9539295 753.477846 524.93375651 755.12172637 524.91383362 756.76560974 C524.87075271 759.31906603 524.82263696 761.8722847 524.76808167 764.42552185 C524.17880675 794.19987049 533.51236663 818.33372462 554.21621704 839.99713135 C558.14434282 844.04313712 562.12572878 848.03587765 566.11109924 852.02537537 C567.58701805 853.50773965 569.0627945 854.99024569 570.53843689 856.47288513 C573.61951144 859.56586734 576.70462204 862.65475781 579.79225159 865.74119568 C583.71212763 869.66086881 587.61806826 873.59411377 591.52057838 877.53106689 C594.56119745 880.59412259 597.61106651 883.64784306 600.66344833 886.69917297 C602.10570085 888.14375622 603.54478176 889.59151435 604.98035049 891.04273987 C625.90095636 912.17008536 649.32322901 928.43791767 680.07984924 929.52928162 C704.74158675 929.09884061 727.604871 921.48831587 745.88453674 904.46287537 C746.39967834 903.99397888 746.91481995 903.5250824 747.4455719 903.04197693 C766.52946083 885.54888385 778.63380355 862.64719801 780.04469299 836.49412537 C780.7420088 810.05676074 771.15195243 785.90178222 753.16646957 766.62108231 C748.28407804 761.51809731 743.29678917 756.51850277 738.31031799 751.51756287 C736.69755574 749.89581242 735.08486066 748.27399517 733.472229 746.65211487 C730.10464019 743.26812182 726.73275911 739.88847014 723.3584137 736.51121521 C719.06450136 732.21191783 714.78699357 727.89668557 710.51327229 723.57732964 C707.19208838 720.22621468 703.85952043 716.88659495 700.52383995 713.54991531 C698.94310276 711.96501038 697.36642744 710.37604215 695.79416847 708.78272629 C679.4465909 692.23365684 662.83719609 681.11409831 639.88453674 675.46287537 C639.17377991 675.28127869 638.46302307 675.09968201 637.73072815 674.9125824 C633.89355746 674.30629758 630.12122461 674.41940353 626.25172424 674.50584412 C624.54079855 674.52824927 622.82986019 674.54970281 621.11891174 674.57029724 C618.44635575 674.60719885 615.77446079 674.65004217 613.10231018 674.70970154 C597.6463885 675.03803234 588.0622614 673.93388192 576.46147537 662.97601128 C571.26236092 657.98725227 566.18819082 652.8708327 561.10804367 647.76154709 C558.83074793 645.47132559 556.55020106 643.18438474 554.2688446 640.89820862 C549.42957063 636.04758885 544.59426033 631.19303007 539.75953674 626.33787537 C534.14451765 620.69916538 528.52783689 615.06213116 522.90690994 609.42930984 C520.67153377 607.18750133 518.43921508 604.94267944 516.20701599 602.69770813 C514.82477018 601.31182687 513.44238214 599.92608746 512.05982971 598.54051208 C511.44975067 597.92526672 510.83967163 597.31002136 510.21110535 596.6761322 C507.27881627 593.74349009 504.29876305 590.92552582 501.14875221 588.22709084 C496.96219089 584.57886425 493.01986813 580.73256739 489.10487366 576.79673767 C488.36455981 576.05657268 487.62424596 575.31640769 486.86149836 574.55381346 C484.40130055 572.09292563 481.94468774 569.62849095 479.48805237 567.16404724 C477.71684691 565.39092104 475.94541248 563.61802355 474.17376709 561.84533691 C470.36865994 558.03707595 466.56505361 554.22732556 462.76275635 550.41625977 C457.25718596 544.89808725 451.74833619 539.38319771 446.23860747 533.86917752 C437.28695432 524.91046914 428.33717183 515.94989464 419.38893127 506.98777771 C418.8542525 506.45227112 418.31957372 505.91676453 417.76869255 505.36503047 C413.43096082 501.02055475 409.09331999 496.67598829 404.75568295 492.33141804 C400.96387854 488.53356059 397.17203782 484.7357394 393.38014221 480.93797302 C392.84612103 480.40312371 392.31209984 479.8682744 391.76189619 479.31721753 C382.84533243 470.38694946 373.92679094 461.45865904 365.0068469 452.53176737 C359.51352728 447.03397799 354.0219877 441.53442213 348.53276575 436.03254139 C344.32443251 431.81475623 340.11353646 427.59953619 335.90171242 423.38523674 C334.178741 421.66039688 332.45663248 419.93469456 330.7354641 418.2080555 C328.38069777 415.84604215 326.02282912 413.48716809 323.66419983 411.12901306 C322.98869788 410.44991615 322.31319592 409.77081923 321.61722422 409.07114363 C318.46121161 405.92189257 315.26117164 402.88047662 311.88690948 399.96524811 C307.76425277 396.40312997 303.90808723 392.62027657 300.06690979 388.7587738 C299.32251239 388.01452526 298.57811499 387.27027672 297.81116009 386.50347519 C295.33714282 384.02876784 292.86671053 381.55051343 290.39625549 379.07225037 C288.61519794 377.28927208 286.83391142 375.50652249 285.05241394 373.72398376 C281.22602595 369.89444186 277.40113896 366.06341065 273.57756042 362.23106384 C268.04122071 356.68212247 262.50160202 351.13646365 256.96110427 345.59167433 C247.95953689 336.5830516 238.95984015 327.57256275 229.96168518 318.56053162 C229.15518109 317.75278581 229.15518109 317.75278581 228.33238399 316.9287219 C223.9703837 312.55997762 219.6084743 308.19114259 215.24656868 303.82230377 C211.43355106 300.00323311 207.62049713 296.18419872 203.80738831 292.36521912 C203.27038012 291.82738281 202.73337194 291.2895465 202.18009079 290.73541212 C193.21380636 281.75542362 184.24554438 272.77741259 175.27587986 263.80080032 C169.75185085 258.27230143 164.22960192 252.74203595 158.70967031 247.20944595 C154.47783536 242.96815945 150.24343947 238.72943927 146.00811386 234.49163818 C144.27546714 232.75712295 142.54368336 231.0217452 140.81283951 229.28543091 C138.44493574 226.9102807 136.07393014 224.53826909 133.7021637 222.16697693 C133.0227708 221.48398907 132.3433779 220.80100121 131.64339733 220.09731674 C127.786797 216.2489343 123.8134328 212.60324976 119.69032943 209.04240215 C117.38939318 207.02977331 115.21498795 204.9132974 113.05691528 202.7487793 C111.75522148 201.44697975 111.75522148 201.44697975 110.42723083 200.11888123 C109.50378876 199.19027283 108.58034668 198.26166443 107.62892151 197.30491638 C106.62467503 196.29874658 105.62019756 195.29280727 104.61550903 194.28707886 C102.46865231 192.13708311 100.32335328 189.98554977 98.17927742 187.83278084 C94.79124107 184.43114463 91.39932397 181.03339566 88.00683594 177.63619995 C80.81725562 170.43556346 73.63194464 163.23067361 66.44703674 156.02537537 C58.66501268 148.22132028 50.88224544 140.41801455 43.09462398 132.61954445 C39.71905881 129.23898658 36.34594855 125.85600355 32.9746753 122.47116578 C30.8860846 120.37514782 28.79545294 118.28117497 26.70424461 116.18776894 C25.7314029 115.21304625 24.75943038 114.2374552 23.78836823 113.26095963 C22.46895431 111.9343922 21.14621322 110.61113642 19.82327271 109.28808594 C19.08240197 108.54499459 18.34153124 107.80190325 17.57820988 107.03629398 C16.14772165 105.3494389 16.14772165 105.3494389 14.88453674 105.46287537 Z M286.3095541 593.68268108 C285.4593247 594.54679969 285.4593247 594.54679969 284.59191895 595.42837524 C283.6103331 596.4146138 283.6103331 596.4146138 282.60891724 597.42077637 C281.89670517 598.15162949 281.1844931 598.8824826 280.45069885 599.63548279 C279.69579163 600.3979834 278.9408844 601.16048401 278.1631012 601.9460907 C276.51965291 603.60768965 274.87960446 605.27265646 273.24252129 606.94052696 C270.64706505 609.5834304 268.04160633 612.2160737 265.43301392 614.8460083 C258.01609317 622.32720223 250.61728853 629.82616223 243.22657776 637.33323669 C238.70801835 641.92151214 234.17717372 646.49736576 229.63887215 651.06611061 C227.91455737 652.80715292 226.1950669 654.55298745 224.48061943 656.30374718 C222.07322267 658.76187037 219.65054396 661.20395584 217.22413635 663.64329529 C216.5260939 664.36402725 215.82805145 665.08475922 215.1088562 665.82733154 C208.97440771 671.93868615 201.16595341 677.39047397 192.23365784 677.51292419 C190.70835904 677.48562964 189.18312844 677.45434621 187.65797424 677.41990662 C185.96788249 677.397467 184.27777736 677.3760174 182.58766174 677.35545349 C179.94633333 677.31882228 177.30570824 677.27643104 174.66481018 677.21604919 C146.80037827 676.60972509 122.68328441 685.34624198 102.31565857 704.82958984 C98.08240548 708.9430697 93.90406649 713.11151105 89.72828674 717.28318787 C88.17483867 718.83019409 86.62124715 720.37705627 85.06752014 721.92378235 C81.82312341 725.15625743 78.58283185 728.39278456 75.34498596 731.63182068 C71.22677165 735.75023793 67.09497835 739.85473024 62.95948029 743.95578194 C59.74893209 747.14392638 56.5476839 750.34128931 53.34884644 753.54117966 C51.83086621 755.05682412 50.30969893 756.56928449 48.78509521 758.07826614 C37.74355021 769.0172029 27.26544314 780.27508566 20.50953674 794.46287537 C20.18775452 795.12819275 19.86597229 795.79351013 19.53443909 796.47898865 C9.19013932 818.5583743 8.42979527 843.66600789 16.62770081 866.53611755 C26.43113535 892.0972199 45.69836559 912.33557516 70.32203674 924.21287537 C93.04709134 934.09043214 118.85664333 934.64675925 141.94703674 925.95506287 C163.18596216 917.53727258 178.38034943 901.12682676 194.24781799 885.30271912 C194.95622519 884.5971393 195.66463238 883.89155949 196.39450645 883.16459846 C200.13352053 879.44044163 203.86975556 875.71352446 207.60353088 871.9841156 C211.43394072 868.15921377 215.27356667 864.34370378 219.11536884 860.5302496 C222.09658562 857.56773127 225.07100065 854.59845331 228.04364586 851.6273365 C229.45599937 850.21798668 230.8708259 848.8111102 232.28827858 847.40688896 C239.55175305 840.20648062 246.50778065 833.24279553 251.88453674 824.46287537 C252.27471481 823.84065094 252.66489288 823.21842651 253.06689453 822.5773468 C264.82636295 803.17283075 268.08463491 781.82589852 265.88453674 759.46287537 C265.23727112 750.67183135 265.9851319 742.56150295 271.51768494 735.32746887 C278.50039271 727.70359825 285.84042321 720.45092702 293.20077896 713.1937294 C296.41452601 710.02245517 299.61861371 706.84149387 302.82338524 703.66115379 C308.77180948 697.75832626 314.72424809 691.85967686 320.69264221 685.97703552 C324.86341588 681.86545381 329.02204397 677.74193278 333.1727562 673.61010361 C334.75438809 672.04023974 336.34055229 670.47492879 337.93124771 668.91424942 C340.14289613 666.74335386 342.33875821 664.55761787 344.5315094 662.36766052 C345.52557297 661.40291809 345.52557297 661.40291809 346.53971863 660.41868591 C347.13115662 659.82181976 347.7225946 659.22495361 348.33195496 658.61000061 C348.85214014 658.09572321 349.37232533 657.58144581 349.9082737 657.05158424 C351.09183575 655.48314108 351.09183575 655.48314108 350.69031906 653.43623543 C349.3696535 650.20192684 346.8470344 648.00987128 344.40260315 645.59275818 C343.83181534 645.01671341 343.26102753 644.44066864 342.67294312 643.84716797 C340.78480549 641.94582979 338.88590864 640.05567102 336.98609924 638.16600037 C335.671481 636.84936169 334.35730839 635.53227791 333.04356384 634.21476746 C330.28935488 631.45613528 327.52979119 628.70300369 324.76637268 625.95359802 C321.21953345 622.42386721 317.68635318 618.88081834 314.15705299 615.33356094 C311.44648724 612.61217177 308.72883789 609.89794747 306.00896835 607.18585968 C304.70297673 605.88187317 303.39922063 604.57564383 302.0977211 603.26717377 C300.28071382 601.44257409 298.45441387 599.62782519 296.6252594 597.81541443 C296.0859227 597.27000504 295.546586 596.72459564 294.99090576 596.16265869 C291.11747774 592.08349803 291.11747774 592.08349803 286.3095541 593.68268108 Z " fill="#ffffff" transform="translate(398.11546325683594,531.5371246337891)"/>
<path d="M0 0 C8.41831645 5.91236791 15.53347008 13.00121022 22.75732422 20.29003906 C24.8894868 22.43831002 27.03725568 24.57003432 29.18701172 26.70068359 C46.07377228 43.55864305 46.07377228 43.55864305 50.51513672 54.87646484 C51.09908203 56.32472656 51.09908203 56.32472656 51.69482422 57.80224609 C55.44684962 68.76374181 54.26631948 80.74210268 49.42138672 91.19287109 C42.46019464 103.54898703 31.91479726 114.07772091 18.01123047 118.06787109 C3.87230967 121.0260967 -8.48186487 118.75473394 -20.57421875 110.95532227 C-25.68871308 107.49944999 -29.95936384 103.41478307 -34.30517578 99.05224609 C-35.11928925 98.24337448 -35.93340271 97.43450287 -36.77218628 96.60112 C-38.48176954 94.89792319 -40.18754109 93.19089257 -41.88964844 91.48022461 C-44.4724725 88.88889642 -47.07339459 86.316774 -49.67626953 83.74560547 C-51.34536995 82.07811768 -53.01337536 80.40953294 -54.68017578 78.73974609 C-55.44701691 77.98413895 -56.21385803 77.2285318 -57.00393677 76.45002747 C-68.0491507 65.26311072 -74.35986328 53.41620514 -74.35986328 37.56396484 C-73.20754681 24.38434523 -68.06775651 13.249252 -58.00439453 4.52099609 C-42.24342778 -7.23082172 -17.19892717 -10.46597244 0 0 Z " fill="#ffffff" transform="translate(1056.35986328125,1276.43603515625)"/>
<path d="M0 0 C11.7216167 7.63681088 18.75030249 17.67392441 21.99804688 31.28588867 C22.71277243 35.30266409 22.73021439 39.29681288 22.703125 43.3671875 C22.69748535 44.25196777 22.6918457 45.13674805 22.68603516 46.04833984 C22.39673545 61.57600058 15.47923664 72.04596988 4.625 82.7890625 C3.79156067 83.62632874 2.95812134 84.46359497 2.09942627 85.32623291 C0.34609628 87.08226783 -1.41222687 88.83333024 -3.17529297 90.57958984 C-5.85209031 93.23496112 -8.50686061 95.91101204 -11.16015625 98.58984375 C-12.87632323 100.30336721 -14.59373077 102.01564927 -16.3125 103.7265625 C-17.48646332 104.9126712 -17.48646332 104.9126712 -18.68414307 106.1227417 C-29.13941268 116.4047119 -40.79300917 122.4317947 -55.609375 122.4921875 C-67.98639157 121.86997335 -79.75194088 116.29715182 -88.6484375 107.71484375 C-98.17424842 96.91765966 -103.32690549 83.97267539 -102.42578125 69.5546875 C-99.90374525 49.58640247 -84.37456135 37.03302063 -70.95336914 23.54101562 C-69.42967433 22.00574432 -67.91047163 20.46600198 -66.39575195 18.921875 C-64.17604685 16.65926662 -61.94316627 14.41042133 -59.70703125 12.1640625 C-58.71123802 11.14200714 -58.71123802 11.14200714 -57.69532776 10.0993042 C-42.0236686 -5.50191645 -19.76708161 -11.42229566 0 0 Z " fill="#ffffff" transform="translate(579.609375,1273.5078125)"/>
<path d="M0 0 C21.45 0 42.9 0 65 0 C65.04010881 23.66865404 65.04010881 23.66865404 65.04882812 33.72070312 C65.054817 40.5925371 65.06191848 47.46435782 65.07543945 54.33618164 C65.08626687 59.87339995 65.09227652 65.41060404 65.09487724 70.94783211 C65.09673176 73.06544277 65.10035286 75.18305262 65.10573006 77.30065727 C65.11293856 80.25571274 65.11399102 83.21070871 65.11352539 86.16577148 C65.11712067 87.05049637 65.12071594 87.93522125 65.12442017 88.84675598 C65.11405216 94.88594784 65.11405216 94.88594784 64 96 C62.04175302 96.09925773 60.07990103 96.12799414 58.11914062 96.12939453 C56.2321344 96.13412277 56.2321344 96.13412277 54.30700684 96.13894653 C52.92342087 96.13715675 51.53983522 96.1351058 50.15625 96.1328125 C48.74759911 96.13348559 47.33894834 96.13445565 45.93029785 96.13571167 C42.97451677 96.13718842 40.01876586 96.13503483 37.06298828 96.13037109 C33.26625416 96.12467381 29.46959072 96.12795293 25.67285919 96.13394356 C22.76303572 96.13754979 19.85322912 96.1364103 16.94340515 96.13381577 C15.543106 96.13314667 14.14280533 96.13397432 12.74250793 96.13629532 C10.78862536 96.13882283 8.83473745 96.13429033 6.88085938 96.12939453 C5.76690796 96.12859894 4.65295654 96.12780334 3.50524902 96.12698364 C1 96 1 96 0 95 C-0.09526806 92.04753646 -0.12552452 89.11851579 -0.11352539 86.16577148 C-0.11367142 85.23903625 -0.11381744 84.31230103 -0.1139679 83.35748291 C-0.11326838 80.27866313 -0.10547421 77.19990303 -0.09765625 74.12109375 C-0.09579221 71.99259982 -0.09436824 69.86410547 -0.09336853 67.73561096 C-0.08954228 62.1213768 -0.07971108 56.50716832 -0.06866455 50.89294434 C-0.0566587 44.16324647 -0.0520487 37.43354003 -0.04621124 30.70383453 C-0.03649938 20.46920513 -0.01734357 10.23463214 0 0 Z " fill="#ffffff" transform="translate(285,857)"/>
<path d="M0 0 C1.88700623 -0.00472824 1.88700623 -0.00472824 3.81213379 -0.009552 C5.19571975 -0.00776222 6.5793054 -0.00571127 7.96289062 -0.00341797 C9.37154151 -0.00409106 10.78019229 -0.00506112 12.18884277 -0.00631714 C15.14462385 -0.00779389 18.10037476 -0.0056403 21.05615234 -0.00097656 C24.85288647 0.00472073 28.64954991 0.0014416 32.44628143 -0.00454903 C35.35610491 -0.00815526 38.2659115 -0.00701577 41.17573547 -0.00442123 C42.57603463 -0.00375214 43.9763353 -0.00457979 45.37663269 -0.00690079 C47.33051526 -0.00942829 49.28440318 -0.0048958 51.23828125 0 C52.35223267 0.00079559 53.46618408 0.00159119 54.6138916 0.00241089 C57.11914062 0.12939453 57.11914062 0.12939453 58.11914062 1.12939453 C58.21972306 4.04597082 58.25529273 6.93890399 58.24853516 9.85595703 C58.25116364 11.22902008 58.25116364 11.22902008 58.25384521 12.62982178 C58.25826523 15.67136502 58.25532521 18.71285064 58.25195312 21.75439453 C58.25262612 23.85807303 58.25359611 25.96175146 58.25485229 28.06542969 C58.25632947 32.48063902 58.25417408 36.89582816 58.24951172 41.31103516 C58.24381442 46.98432014 58.24709332 52.65755782 58.25308418 58.33084106 C58.25668926 62.67668009 58.25555145 67.02250781 58.25295639 71.36834717 C58.25228697 73.46083583 58.25311605 75.5533255 58.25543594 77.64581299 C58.2579616 80.56484719 58.2541231 83.48380365 58.24853516 86.40283203 C58.25055939 87.27663513 58.25258362 88.15043823 58.25466919 89.05072021 C58.23340298 95.01513218 58.23340298 95.01513218 57.11914062 96.12939453 C55.12482333 96.22344595 53.1271452 96.24682703 51.13061523 96.24291992 C49.84936264 96.24284439 48.56811005 96.24276886 47.24803162 96.24269104 C45.83918215 96.23758363 44.43033307 96.23236762 43.02148438 96.22705078 C41.58801828 96.22518655 40.15455155 96.22376267 38.72108459 96.22276306 C34.94154106 96.21893825 31.16203573 96.2091083 27.38250732 96.19805908 C23.52844764 96.18784416 19.67438181 96.18326527 15.8203125 96.17822266 C8.25323776 96.16748599 0.68619454 96.15041002 -6.88085938 96.12939453 C-6.90398092 83.76020738 -6.9217735 71.39102534 -6.93267155 59.02182102 C-6.93790079 53.27894391 -6.94499918 47.53608152 -6.95629883 41.79321289 C-6.96712625 36.25599459 -6.9731359 30.71879049 -6.97573662 25.18156242 C-6.97759113 23.06395176 -6.98121224 20.94634191 -6.98658943 18.82873726 C-6.99379793 15.87368179 -6.9948504 12.91868583 -6.99438477 9.96362305 C-6.99798004 9.07889816 -7.00157532 8.19417328 -7.00527954 7.28263855 C-6.99327527 0.29034712 -6.91036276 0.00493544 0 0 Z " fill="#ffffff" transform="translate(291.880859375,189.87060546875)"/>
<path d="M0 0 C21.12 0 42.24 0 64 0 C64 31.68 64 63.36 64 96 C42.88 96 21.76 96 0 96 C0 64.32 0 32.64 0 0 Z " fill="#ffffff" transform="translate(1238,857)"/>
<path d="M0 0 C21.12 0 42.24 0 64 0 C64 31.68 64 63.36 64 96 C42.88 96 21.76 96 0 96 C0 64.32 0 32.64 0 0 Z " fill="#ffffff" transform="translate(95,857)"/>
<path d="M0 0 C21.12 0 42.24 0 64 0 C64 31.68 64 63.36 64 96 C42.88 96 21.76 96 0 96 C0 64.32 0 32.64 0 0 Z " fill="#ffffff" transform="translate(1428,190)"/>
<path d="M0 0 C21.12 0 42.24 0 64 0 C64 31.68 64 63.36 64 96 C42.88 96 21.76 96 0 96 C0 64.32 0 32.64 0 0 Z " fill="#ffffff" transform="translate(1238,190)"/>
<path d="M0 0 C21.12 0 42.24 0 64 0 C64 31.68 64 63.36 64 96 C42.88 96 21.76 96 0 96 C0 64.32 0 32.64 0 0 Z " fill="#ffffff" transform="translate(1047,190)"/>
<path d="M0 0 C21.12 0 42.24 0 64 0 C64 31.68 64 63.36 64 96 C42.88 96 21.76 96 0 96 C0 64.32 0 32.64 0 0 Z " fill="#ffffff" transform="translate(857,190)"/>
<path d="M0 0 C21.12 0 42.24 0 64 0 C64 31.68 64 63.36 64 96 C42.88 96 21.76 96 0 96 C0 64.32 0 32.64 0 0 Z " fill="#ffffff" transform="translate(476,190)"/>
<path d="M0 0 C21.12 0 42.24 0 64 0 C64 31.68 64 63.36 64 96 C42.88 96 21.76 96 0 96 C0 64.32 0 32.64 0 0 Z " fill="#ffffff" transform="translate(95,190)"/>
<path d="M0 0 C21.12 0 42.24 0 64 0 C64 31.68 64 63.36 64 96 C53.625625 96.020625 43.25125 96.04125 32.5625 96.0625 C29.28256104 96.071604 26.00262207 96.08070801 22.62329102 96.09008789 C20.04182984 96.09300676 17.46036822 96.09555538 14.87890625 96.09765625 C14.20391586 96.10026962 13.52892548 96.102883 12.83348083 96.10557556 C10.85457502 96.11285661 8.87564772 96.1133384 6.89672852 96.11352539 C5.77976089 96.115746 4.66279327 96.11796661 3.51197815 96.12025452 C1 96 1 96 0 95 C-0.09526806 92.04753646 -0.12552452 89.11851579 -0.11352539 86.16577148 C-0.11367142 85.23903625 -0.11381744 84.31230103 -0.1139679 83.35748291 C-0.11326838 80.27866313 -0.10547421 77.19990303 -0.09765625 74.12109375 C-0.09579221 71.99259982 -0.09436824 69.86410547 -0.09336853 67.73561096 C-0.08954228 62.1213768 -0.07971108 56.50716832 -0.06866455 50.89294434 C-0.0566587 44.16324647 -0.0520487 37.43354003 -0.04621124 30.70383453 C-0.03649938 20.46920513 -0.01734357 10.23463214 0 0 Z " fill="#ffffff" transform="translate(1428,857)"/>
<path d="M0 0 C21.12 0 42.24 0 64 0 C64 31.68 64 63.36 64 96 C53.625625 96.020625 43.25125 96.04125 32.5625 96.0625 C29.28256104 96.071604 26.00262207 96.08070801 22.62329102 96.09008789 C20.04182984 96.09300676 17.46036822 96.09555538 14.87890625 96.09765625 C14.20391586 96.10026962 13.52892548 96.102883 12.83348083 96.10557556 C10.85457502 96.11285661 8.87564772 96.1133384 6.89672852 96.11352539 C5.77976089 96.115746 4.66279327 96.11796661 3.51197815 96.12025452 C1 96 1 96 0 95 C-0.09526806 92.04753646 -0.12552452 89.11851579 -0.11352539 86.16577148 C-0.11367142 85.23903625 -0.11381744 84.31230103 -0.1139679 83.35748291 C-0.11326838 80.27866313 -0.10547421 77.19990303 -0.09765625 74.12109375 C-0.09579221 71.99259982 -0.09436824 69.86410547 -0.09336853 67.73561096 C-0.08954228 62.1213768 -0.07971108 56.50716832 -0.06866455 50.89294434 C-0.0566587 44.16324647 -0.0520487 37.43354003 -0.04621124 30.70383453 C-0.03649938 20.46920513 -0.01734357 10.23463214 0 0 Z " fill="#ffffff" transform="translate(1047,857)"/>
<path d="M0 0 C1.11696762 0.00222061 2.23393524 0.00444122 3.38475037 0.00672913 C4.66370178 0.00684998 5.9426532 0.00697083 7.26036072 0.00709534 C8.629217 0.01213181 9.99807281 0.01729844 11.3669281 0.02259827 C12.60438782 0.02360535 13.84184753 0.02461243 15.11680603 0.02565002 C19.76138733 0.03090167 24.40595547 0.04486277 29.05052185 0.05775452 C39.42489685 0.07837952 49.79927185 0.09900452 60.48802185 0.12025452 C60.48802185 31.80025452 60.48802185 63.48025452 60.48802185 96.12025452 C39.36802185 96.12025452 18.24802185 96.12025452 -3.51197815 96.12025452 C-3.55208696 72.45160047 -3.55208696 72.45160047 -3.56080627 62.39955139 C-3.56679515 55.52771741 -3.57389662 48.6558967 -3.5874176 41.78407288 C-3.59824502 36.24685457 -3.60425467 30.70965048 -3.60685539 25.17242241 C-3.60870991 23.05481174 -3.61233101 20.9372019 -3.61770821 18.81959724 C-3.62491671 15.86454177 -3.62596917 12.90954581 -3.62550354 9.95448303 C-3.62909882 9.06975815 -3.63269409 8.18503326 -3.63639832 7.27349854 C-3.62420913 0.17349972 -3.62420913 0.17349972 0 0 Z " fill="#ffffff" transform="translate(669.5119781494141,189.87974548339844)"/>
<path d="M0 0 C21.12 0 42.24 0 64 0 C64 31.68 64 63.36 64 96 C25.97108931 96 25.97108931 96 15.90527344 85.97558594 C15.2765332 85.32364258 14.64779297 84.67169922 14 84 C13.32227539 83.34547852 12.64455078 82.69095703 11.94628906 82.01660156 C-0.34017339 69.68362151 -1.96145833 56.27724983 -2.25 39.6640625 C-1.907541 26.42588182 -0.88088528 13.2132792 0 0 Z " fill="#ffffff" transform="translate(857,857)"/>
<path d="M0 0 C7.51554514 5.71780677 11.71438612 12.92736501 13.6640625 22.13671875 C14.87556445 31.9831415 12.92513612 41.34308034 7.125 49.5 C1.63417749 56.03407879 -5.45561282 61.40928962 -14 63 C-26.0318216 63.86346014 -35.56584925 62.47534413 -45.18359375 54.76171875 C-48.46700747 51.57716049 -50.79405471 47.98582015 -53 44 C-53.34160156 43.39671875 -53.68320312 42.7934375 -54.03515625 42.171875 C-57.61855927 34.50505924 -57.20263372 24.13034836 -54.9375 16.125 C-51.24381023 6.9598165 -44.04269086 -0.35180878 -35.05859375 -4.2890625 C-22.28732798 -8.80741645 -11.32312578 -7.42978741 0 0 Z " fill="#ffffff" transform="translate(815,1051)"/>
</svg>