<svg version="1.1" xmlns="http://www.w3.org/2000/svg" width="512px" height="512px" transform="rotate(0) scale(1, 1)">
<path d="M0 0 C3.32984346 0.0161027 6.65847377 0.00003202 9.98828125 -0.01904297 C28.29792981 -0.03795598 46.16545142 1.66317019 63.95703125 6.14111328 C64.99424316 6.39715332 66.03145508 6.65319336 67.10009766 6.91699219 C88.40716281 12.33603574 109.22515986 20.50745236 128.33203125 31.39111328 C129.41226562 31.97119141 130.4925 32.55126953 131.60546875 33.14892578 C145.83401333 40.93066984 158.73831452 50.68045683 170.92578125 61.34423828 C173.14497163 63.39712126 173.14497163 63.39712126 175.33203125 64.39111328 C175.33203125 65.05111328 175.33203125 65.71111328 175.33203125 66.39111328 C175.97140625 66.65923828 176.61078125 66.92736328 177.26953125 67.20361328 C179.33203125 68.39111328 179.33203125 68.39111328 180.33203125 71.39111328 C181.65610794 72.07598053 182.99112366 72.73981531 184.33203125 73.39111328 C186.58203125 75.39111328 186.58203125 75.39111328 188.33203125 77.39111328 C188.33203125 78.05111328 188.33203125 78.71111328 188.33203125 79.39111328 C188.97140625 79.65923828 189.61078125 79.92736328 190.26953125 80.20361328 C192.33203125 81.39111328 192.33203125 81.39111328 193.33203125 84.39111328 C193.99203125 84.39111328 194.65203125 84.39111328 195.33203125 84.39111328 C209.29319901 99.15006206 222.25012496 118.02424665 230.890625 136.36376953 C231.90948771 138.50365734 232.99177898 140.61388424 234.1171875 142.69970703 C243.12662984 159.44420735 249.25856263 177.83729891 253.76953125 196.26611328 C254.10331787 197.61467407 254.10331787 197.61467407 254.44384766 198.99047852 C258.54421817 216.88343484 259.82805096 234.74618553 259.72314453 253.05908203 C259.70704183 256.3889255 259.72311252 259.7175558 259.7421875 263.04736328 C259.76110051 281.35701184 258.05997435 299.22453345 253.58203125 317.01611328 C253.32599121 318.0533252 253.06995117 319.09053711 252.80615234 320.15917969 C247.38710879 341.46624484 239.21569217 362.28424189 228.33203125 381.39111328 C227.75195312 382.47134766 227.171875 383.55158203 226.57421875 384.66455078 C218.79247469 398.89309536 209.0426877 411.79739655 198.37890625 423.98486328 C196.32602327 426.20405366 196.32602327 426.20405366 195.33203125 428.39111328 C194.67203125 428.39111328 194.01203125 428.39111328 193.33203125 428.39111328 C193.06390625 429.03048828 192.79578125 429.66986328 192.51953125 430.32861328 C191.33203125 432.39111328 191.33203125 432.39111328 188.33203125 433.39111328 C187.647164 434.71518997 186.98332922 436.05020569 186.33203125 437.39111328 C184.33203125 439.64111328 184.33203125 439.64111328 182.33203125 441.39111328 C181.67203125 441.39111328 181.01203125 441.39111328 180.33203125 441.39111328 C180.06390625 442.03048828 179.79578125 442.66986328 179.51953125 443.32861328 C178.33203125 445.39111328 178.33203125 445.39111328 175.33203125 446.39111328 C175.33203125 447.05111328 175.33203125 447.71111328 175.33203125 448.39111328 C160.57308247 462.35228104 141.69889788 475.30920699 123.359375 483.94970703 C121.21948719 484.96856974 119.10926029 486.05086101 117.0234375 487.17626953 C100.27893718 496.18571187 81.88584562 502.31764466 63.45703125 506.82861328 C62.10847046 507.1623999 62.10847046 507.1623999 60.73266602 507.50292969 C42.8397097 511.6033002 24.976959 512.88713299 6.6640625 512.78222656 C3.33421904 512.76612386 0.00558873 512.78219455 -3.32421875 512.80126953 C-21.63386731 512.82018254 -39.50138892 511.11905638 -57.29296875 506.64111328 C-58.33018066 506.38507324 -59.36739258 506.1290332 -60.43603516 505.86523438 C-81.74310031 500.44619082 -102.56109736 492.2747742 -121.66796875 481.39111328 C-122.74820313 480.81103516 -123.8284375 480.23095703 -124.94140625 479.63330078 C-139.16995083 471.85155672 -152.07425202 462.10176974 -164.26171875 451.43798828 C-166.48090913 449.3851053 -166.48090913 449.3851053 -168.66796875 448.39111328 C-168.66796875 447.73111328 -168.66796875 447.07111328 -168.66796875 446.39111328 C-169.30734375 446.12298828 -169.94671875 445.85486328 -170.60546875 445.57861328 C-172.66796875 444.39111328 -172.66796875 444.39111328 -173.66796875 441.39111328 C-174.99204544 440.70624603 -176.32706116 440.04241125 -177.66796875 439.39111328 C-179.91796875 437.39111328 -179.91796875 437.39111328 -181.66796875 435.39111328 C-181.66796875 434.73111328 -181.66796875 434.07111328 -181.66796875 433.39111328 C-182.30734375 433.12298828 -182.94671875 432.85486328 -183.60546875 432.57861328 C-185.66796875 431.39111328 -185.66796875 431.39111328 -186.66796875 428.39111328 C-187.32796875 428.39111328 -187.98796875 428.39111328 -188.66796875 428.39111328 C-202.62913651 413.63216451 -215.58606246 394.75797991 -224.2265625 376.41845703 C-225.24542521 374.27856922 -226.32771648 372.16834232 -227.453125 370.08251953 C-236.46256734 353.33801921 -242.59450013 334.94492765 -247.10546875 316.51611328 C-247.32799316 315.61707275 -247.55051758 314.71803223 -247.77978516 313.79174805 C-251.88015567 295.89879173 -253.16398846 278.03604103 -253.05908203 259.72314453 C-253.04297933 256.39330107 -253.05905002 253.06467076 -253.078125 249.73486328 C-253.09703801 231.42521472 -251.39591185 213.55769311 -246.91796875 195.76611328 C-246.66192871 194.72890137 -246.40588867 193.69168945 -246.14208984 192.62304688 C-240.72304629 171.31598172 -232.55162967 150.49798468 -221.66796875 131.39111328 C-221.08789062 130.31087891 -220.5078125 129.23064453 -219.91015625 128.11767578 C-212.12841219 113.8891312 -202.3786252 100.98483001 -191.71484375 88.79736328 C-189.66196077 86.5781729 -189.66196077 86.5781729 -188.66796875 84.39111328 C-188.00796875 84.39111328 -187.34796875 84.39111328 -186.66796875 84.39111328 C-186.39984375 83.75173828 -186.13171875 83.11236328 -185.85546875 82.45361328 C-184.66796875 80.39111328 -184.66796875 80.39111328 -181.66796875 79.39111328 C-180.9831015 78.0670366 -180.31926672 76.73202087 -179.66796875 75.39111328 C-177.66796875 73.14111328 -177.66796875 73.14111328 -175.66796875 71.39111328 C-175.00796875 71.39111328 -174.34796875 71.39111328 -173.66796875 71.39111328 C-173.39984375 70.75173828 -173.13171875 70.11236328 -172.85546875 69.45361328 C-171.66796875 67.39111328 -171.66796875 67.39111328 -168.66796875 66.39111328 C-168.66796875 65.73111328 -168.66796875 65.07111328 -168.66796875 64.39111328 C-153.90901997 50.42994552 -135.03483538 37.47301957 -116.6953125 28.83251953 C-114.55542469 27.81365682 -112.44519779 26.73136555 -110.359375 25.60595703 C-93.61487468 16.59651469 -75.22178312 10.4645819 -56.79296875 5.95361328 C-55.89392822 5.73108887 -54.9948877 5.50856445 -54.06860352 5.27929688 C-36.1756472 1.17892636 -18.3128965 -0.10490643 0 0 Z " fill="#00000000" transform="translate(252.66796875,-0.39111328125)"/>
<path d="M0 0 C2.54888895 0.96358404 3.80991796 2.16684273 5.70480347 4.12078857 C6.39231689 4.82143936 7.07983032 5.52209015 7.78817749 6.24397278 C8.52056641 7.00439377 9.25295532 7.76481476 10.00753784 8.54827881 C11.57124191 10.14017197 13.13504707 11.73196584 14.69894409 13.32366943 C17.15763991 15.84465747 19.61293782 18.36887455 22.06564331 20.89569092 C24.43371778 23.32992729 26.81371183 25.75201531 29.19503784 28.17327881 C29.92742676 28.93572403 30.65981567 29.69816925 31.41439819 30.48371887 C32.44566833 31.52996681 32.44566833 31.52996681 33.49777222 32.59735107 C34.09859619 33.21610611 34.69942017 33.83486115 35.31845093 34.47236633 C37.2668757 36.19145974 37.2668757 36.19145974 41.10128784 35.79437256 C41.43128784 34.80437256 41.76128784 33.81437256 42.10128784 32.79437256 C42.76128784 32.79437256 43.42128784 32.79437256 44.10128784 32.79437256 C44.10128784 32.13437256 44.10128784 31.47437256 44.10128784 30.79437256 C44.76128784 30.79437256 45.42128784 30.79437256 46.10128784 30.79437256 C46.59628784 29.30937256 46.59628784 29.30937256 47.10128784 27.79437256 C47.76128784 27.79437256 48.42128784 27.79437256 49.10128784 27.79437256 C49.10128784 27.13437256 49.10128784 26.47437256 49.10128784 25.79437256 C49.76128784 25.79437256 50.42128784 25.79437256 51.10128784 25.79437256 C51.59628784 24.30937256 51.59628784 24.30937256 52.10128784 22.79437256 C52.76128784 22.79437256 53.42128784 22.79437256 54.10128784 22.79437256 C54.10128784 22.13437256 54.10128784 21.47437256 54.10128784 20.79437256 C54.76128784 20.79437256 55.42128784 20.79437256 56.10128784 20.79437256 C56.59628784 19.30937256 56.59628784 19.30937256 57.10128784 17.79437256 C57.76128784 17.79437256 58.42128784 17.79437256 59.10128784 17.79437256 C59.10128784 17.13437256 59.10128784 16.47437256 59.10128784 15.79437256 C59.76128784 15.79437256 60.42128784 15.79437256 61.10128784 15.79437256 C61.43128784 14.80437256 61.76128784 13.81437256 62.10128784 12.79437256 C62.76128784 12.79437256 63.42128784 12.79437256 64.10128784 12.79437256 C64.10128784 12.13437256 64.10128784 11.47437256 64.10128784 10.79437256 C64.76128784 10.79437256 65.42128784 10.79437256 66.10128784 10.79437256 C66.43128784 9.80437256 66.76128784 8.81437256 67.10128784 7.79437256 C67.76128784 7.79437256 68.42128784 7.79437256 69.10128784 7.79437256 C69.10128784 7.13437256 69.10128784 6.47437256 69.10128784 5.79437256 C70.47628784 4.16937256 70.47628784 4.16937256 72.10128784 2.79437256 C72.76128784 2.79437256 73.42128784 2.79437256 74.10128784 2.79437256 C74.10128784 2.13437256 74.10128784 1.47437256 74.10128784 0.79437256 C75.81491089 0.04949951 75.81491089 0.04949951 78.10128784 -0.20562744 C80.31539917 1.36151123 80.31539917 1.36151123 82.68331909 3.71234131 C83.53216675 4.55474365 84.3810144 5.397146 85.25558472 6.26507568 C86.13279175 7.16161865 87.00999878 8.05816162 87.91378784 8.98187256 C89.25860229 10.29768311 89.25860229 10.29768311 90.63058472 11.64007568 C91.47298706 12.48892334 92.3153894 13.337771 93.18331909 14.21234131 C93.95909302 14.99375488 94.73486694 15.77516846 95.53414917 16.58026123 C97.10128784 18.79437256 97.10128784 18.79437256 96.90713501 20.7035675 C95.92977727 23.23936409 94.70548021 24.55151559 92.77487183 26.46136475 C92.07422104 27.16178894 91.37357025 27.86221313 90.65168762 28.5838623 C89.51105614 29.70126801 89.51105614 29.70126801 88.34738159 30.84124756 C87.57193497 31.61244934 86.79648834 32.38365112 85.99754333 33.17822266 C83.51823843 35.64072966 81.02870793 38.09260389 78.53878784 40.54437256 C76.85646344 42.21165165 75.17481417 43.87961225 73.49386597 45.54827881 C69.3708091 49.63825158 65.23930726 53.71954177 61.10128784 57.79437256 C62.47525072 60.8920208 64.03580766 62.95530746 66.46530151 65.30609131 C67.14908371 65.97358398 67.83286591 66.64107666 68.53736877 67.32879639 C69.27389175 68.03931152 70.01041473 68.74982666 70.76925659 69.48187256 C72.31720329 70.99967284 73.86471644 72.51791537 75.41183472 74.03656006 C77.85623177 76.42501618 80.30429247 78.80937634 82.76022339 81.18597412 C85.12844513 83.48194343 87.48097577 85.79306812 89.83175659 88.10687256 C90.57435226 88.8173877 91.31694794 89.52790283 92.08204651 90.25994873 C92.75637222 90.92744141 93.43069794 91.59493408 94.12545776 92.28265381 C94.72565231 92.86571289 95.32584686 93.44877197 95.94422913 94.04949951 C97.10128784 95.79437256 97.10128784 95.79437256 96.89367676 97.88121033 C95.02250688 102.3990064 90.69562808 105.71058798 87.28878784 109.10687256 C86.46829956 109.95572021 85.64781128 110.80456787 84.80245972 111.67913818 C83.61039917 112.87506592 83.61039917 112.87506592 82.39425659 114.09515381 C81.66746704 114.8290332 80.94067749 115.5629126 80.19186401 116.31903076 C78.10128784 117.79437256 78.10128784 117.79437256 75.89547729 117.64666748 C73.50103904 116.509236 73.23698572 115.13674943 72.10128784 112.79437256 C70.77608282 112.11169118 69.44316603 111.44366845 68.10128784 110.79437256 C67.77128784 109.80437256 67.44128784 108.81437256 67.10128784 107.79437256 C66.44128784 107.46437256 65.78128784 107.13437256 65.10128784 106.79437256 C63.10128784 105.79437256 63.10128784 105.79437256 62.10128784 102.79437256 C60.61628784 102.29937256 60.61628784 102.29937256 59.10128784 101.79437256 C59.10128784 101.13437256 59.10128784 100.47437256 59.10128784 99.79437256 C58.46191284 99.52624756 57.82253784 99.25812256 57.16378784 98.98187256 C55.10128784 97.79437256 55.10128784 97.79437256 54.10128784 94.79437256 C53.44128784 94.46437256 52.78128784 94.13437256 52.10128784 93.79437256 C50.10128784 92.79437256 50.10128784 92.79437256 49.10128784 89.79437256 C48.44128784 89.46437256 47.78128784 89.13437256 47.10128784 88.79437256 C45.10128784 87.79437256 45.10128784 87.79437256 44.10128784 84.79437256 C41.11669655 82.83895068 39.83713994 82.79437256 36.10128784 82.79437256 C34.22540744 84.12469479 34.22540744 84.12469479 32.49777222 86.02313232 C31.81025879 86.72708633 31.12274536 87.43104034 30.41439819 88.15632629 C29.68200928 88.92504562 28.94962036 89.69376495 28.19503784 90.48577881 C26.63131449 92.08546515 25.06750994 93.68507212 23.50363159 95.28460693 C21.04434744 97.82491496 18.58935445 100.36926584 16.13693237 102.91619873 C13.77084453 105.36640046 11.39000197 107.80151445 9.00753784 110.23577881 C7.90895447 111.39189415 7.90895447 111.39189415 6.78817749 112.57136536 C6.10066406 113.27216721 5.41315063 113.97296906 4.70480347 114.69500732 C4.10397949 115.31899918 3.50315552 115.94299103 2.88412476 116.58589172 C1.10128784 117.79437256 1.10128784 117.79437256 -0.99227905 117.59844971 C-3.65312479 116.4761836 -5.21042176 114.81884061 -7.22683716 112.75921631 C-8.42566528 111.54588623 -8.42566528 111.54588623 -9.64871216 110.30804443 C-10.47371216 109.45790771 -11.29871216 108.607771 -12.14871216 107.73187256 C-12.98918091 106.87786865 -13.82964966 106.02386475 -14.69558716 105.14398193 C-16.77018813 103.03401844 -18.83747048 100.91737548 -20.89871216 98.79437256 C-20.23871216 97.14437256 -19.57871216 95.49437256 -18.89871216 93.79437256 C-18.23871216 93.79437256 -17.57871216 93.79437256 -16.89871216 93.79437256 C-16.89871216 93.13437256 -16.89871216 92.47437256 -16.89871216 91.79437256 C-16.23871216 91.79437256 -15.57871216 91.79437256 -14.89871216 91.79437256 C-14.56871216 90.80437256 -14.23871216 89.81437256 -13.89871216 88.79437256 C-13.23871216 88.79437256 -12.57871216 88.79437256 -11.89871216 88.79437256 C-11.89871216 88.13437256 -11.89871216 87.47437256 -11.89871216 86.79437256 C-11.23871216 86.79437256 -10.57871216 86.79437256 -9.89871216 86.79437256 C-9.56871216 85.80437256 -9.23871216 84.81437256 -8.89871216 83.79437256 C-8.23871216 83.79437256 -7.57871216 83.79437256 -6.89871216 83.79437256 C-6.89871216 83.13437256 -6.89871216 82.47437256 -6.89871216 81.79437256 C-5.52371216 80.16937256 -5.52371216 80.16937256 -3.89871216 78.79437256 C-3.23871216 78.79437256 -2.57871216 78.79437256 -1.89871216 78.79437256 C-1.89871216 78.13437256 -1.89871216 77.47437256 -1.89871216 76.79437256 C-0.52371216 75.16937256 -0.52371216 75.16937256 1.10128784 73.79437256 C1.76128784 73.79437256 2.42128784 73.79437256 3.10128784 73.79437256 C3.10128784 73.13437256 3.10128784 72.47437256 3.10128784 71.79437256 C4.47628784 70.16937256 4.47628784 70.16937256 6.10128784 68.79437256 C6.76128784 68.79437256 7.42128784 68.79437256 8.10128784 68.79437256 C8.59628784 67.30937256 8.59628784 67.30937256 9.10128784 65.79437256 C9.76128784 65.79437256 10.42128784 65.79437256 11.10128784 65.79437256 C11.10128784 65.13437256 11.10128784 64.47437256 11.10128784 63.79437256 C11.76128784 63.79437256 12.42128784 63.79437256 13.10128784 63.79437256 C13.43128784 62.80437256 13.76128784 61.81437256 14.10128784 60.79437256 C14.76128784 60.79437256 15.42128784 60.79437256 16.10128784 60.79437256 C16.10128784 59.47437256 16.10128784 58.15437256 16.10128784 56.79437256 C15.46191284 56.52624756 14.82253784 56.25812256 14.16378784 55.98187256 C12.10128784 54.79437256 12.10128784 54.79437256 11.10128784 51.79437256 C10.44128784 51.46437256 9.78128784 51.13437256 9.10128784 50.79437256 C7.10128784 49.79437256 7.10128784 49.79437256 6.10128784 46.79437256 C5.44128784 46.46437256 4.78128784 46.13437256 4.10128784 45.79437256 C2.10128784 44.79437256 2.10128784 44.79437256 1.10128784 41.79437256 C0.44128784 41.46437256 -0.21871216 41.13437256 -0.89871216 40.79437256 C-2.89871216 39.79437256 -2.89871216 39.79437256 -3.89871216 36.79437256 C-4.55871216 36.46437256 -5.21871216 36.13437256 -5.89871216 35.79437256 C-7.89871216 34.79437256 -7.89871216 34.79437256 -8.89871216 31.79437256 C-9.55871216 31.46437256 -10.21871216 31.13437256 -10.89871216 30.79437256 C-12.89871216 29.79437256 -12.89871216 29.79437256 -13.89871216 26.79437256 C-14.51746216 26.48499756 -15.13621216 26.17562256 -15.77371216 25.85687256 C-18.30468591 24.59138568 -19.34719774 23.12164418 -20.89871216 20.79437256 C-18.59781038 15.55228611 -14.50379009 11.9917019 -10.52371216 7.98187256 C-9.75543091 7.18072021 -8.98714966 6.37956787 -8.19558716 5.55413818 C-7.45050903 4.80197021 -6.70543091 4.04980225 -5.93777466 3.27484131 C-5.25924438 2.58285645 -4.58071411 1.89087158 -3.88162231 1.17791748 C-1.89871216 -0.20562744 -1.89871216 -0.20562744 0 0 Z " fill="#fafffd" transform="translate(320.8987121582031,197.20562744140625)"/>
<path d="M0 0 C10.23 0 20.46 0 31 0 C33.8125 8.5625 33.8125 8.5625 34.67895508 11.21704102 C36.23723268 15.92483637 38.009011 20.45364717 40 25 C41.03317718 27.59186415 42.02107753 30.19971986 43 32.8125 C43.39517822 33.8646167 43.39517822 33.8646167 43.79833984 34.93798828 C45.48357046 39.47546911 46.9595429 44.03005594 48.28125 48.6875 C49.35337463 52.13694446 50.73432245 55.44524801 52.1328125 58.7734375 C52.936645 60.83733175 53.51699739 62.84127405 54 65 C57.93241427 57.26202352 60.65331623 49.27994194 63.33984375 41.04736328 C65.77310258 33.60933345 68.43959764 26.28994543 71.24414062 18.98535156 C72.06638191 16.82564028 72.87070069 14.65979882 73.671875 12.4921875 C73.94636475 11.75137939 74.22085449 11.01057129 74.50366211 10.24731445 C75.03228207 8.81941827 75.55921064 7.39089447 76.08422852 5.96166992 C77.88804448 1.11195552 77.88804448 1.11195552 79 0 C81.21855264 -0.08783542 83.43988496 -0.10694609 85.66015625 -0.09765625 C86.65685585 -0.09553383 86.65685585 -0.09553383 87.6736908 -0.09336853 C89.80333899 -0.08775518 91.93288339 -0.07520054 94.0625 -0.0625 C95.50325369 -0.05748671 96.94400903 -0.05292351 98.38476562 -0.04882812 C101.92321102 -0.03778145 105.46159539 -0.02050792 109 0 C108.69908447 0.89078247 108.69908447 0.89078247 108.39208984 1.79956055 C107.0532575 5.78483707 105.74933784 9.76050325 104.625 13.8125 C103.22635616 18.52751582 101.38067951 22.96212662 99.44921875 27.48046875 C97.11108886 33.1587842 95.04169259 38.93358098 92.94140625 44.703125 C90.64895431 50.98577586 88.29008882 57.2434512 85.93759155 63.50378418 C84.11511583 68.35588926 82.29618842 73.20932565 80.4765625 78.0625 C79.67579469 80.19792171 78.87501331 82.33333833 78.07421875 84.46875 C77.4716626 86.07556641 77.4716626 86.07556641 76.85693359 87.71484375 C73.57128906 96.4765625 70.28564453 105.23828125 67 114 C58.75 114 50.5 114 42 114 C40.28761263 109.43363368 38.57639316 104.86814537 36.88696289 100.29345703 C36.30604637 98.72109787 36.30604637 98.72109787 35.71339417 97.11697388 C35.30395065 96.00845062 34.89450714 94.89992737 34.47265625 93.7578125 C33.58926287 91.36846364 32.70579709 88.97914155 31.82226562 86.58984375 C30.4414752 82.85555039 29.06106659 79.12111826 27.68188477 75.38623047 C26.34253649 71.75963593 25.00149 68.13367308 23.66015625 64.5078125 C23.25273697 63.40333771 22.84531769 62.29886292 22.42555237 61.16091919 C20.317384 55.46679549 18.15424954 49.80366518 15.8671875 44.17883301 C14.44900445 40.61560818 13.19155191 36.99856779 11.9375 33.375 C8.85761418 24.5193071 5.55412287 15.78785652 1.98632812 7.1171875 C0 2.21857378 0 2.21857378 0 0 Z " fill="#fbfffd" transform="translate(93,199)"/>
<path d="M0 0 C25.41 0 50.82 0 77 0 C77 9.24 77 18.48 77 28 C61.16 28 45.32 28 29 28 C29 32.95 29 37.9 29 43 C36.92 43 44.84 43 53 43 C53 51.91 53 60.82 53 70 C45.08 70 37.16 70 29 70 C29 84.52 29 99.04 29 114 C19.43 114 9.86 114 0 114 C0 76.38 0 38.76 0 0 Z " fill="#fafffd" transform="translate(213,199)"/>
</svg>