<svg version="1.1" xmlns="http://www.w3.org/2000/svg" width="512px" height="512px" transform="rotate(0) scale(1, 1)">
<path d="M0 0 C2.30275556 1.8670991 3.67823871 3.35647741 5 6 C5.10104893 8.2437632 5.13513957 10.49061738 5.14044189 12.73664856 C5.14341302 13.43720059 5.14638414 14.13775261 5.1494453 14.85953349 C5.15815123 17.21862346 5.15964214 19.57766279 5.16113281 21.93676758 C5.16575967 23.62351083 5.17078415 25.31025304 5.17617798 26.99699402 C5.18931721 31.58797358 5.19574996 36.17893851 5.20018864 40.76993394 C5.20311705 43.63674699 5.20722142 46.50355602 5.21169281 49.37036705 C5.22537206 58.3356893 5.23503649 67.30100239 5.2388947 76.26633435 C5.24337597 86.62330464 5.26092525 96.98014299 5.2898953 107.33707315 C5.31149763 115.33712817 5.32159822 123.33714603 5.32293582 131.33722991 C5.32398493 136.11779864 5.32991524 140.89824342 5.34775543 145.67878151 C5.36421099 150.1759204 5.36640389 154.67284184 5.35761642 159.17000008 C5.35684468 160.82077872 5.36120678 162.47156894 5.37107468 164.12231827 C5.38375646 166.37593907 5.37793847 168.62878531 5.36749268 170.88240051 C5.36895924 172.14358106 5.3704258 173.4047616 5.3719368 174.70415974 C4.88400335 179.02788009 3.1364006 181.45036282 0.625 184.875 C-1 186 -1 186 -3.6875 185.6875 C-4.8321875 185.3471875 -4.8321875 185.3471875 -6 185 C-6 184.34 -6 183.68 -6 183 C-6.639375 182.690625 -7.27875 182.38125 -7.9375 182.0625 C-10 181 -10 181 -11 180 C-11.11815788 177.75659011 -11.16476263 175.50941221 -11.18513489 173.26298523 C-11.19677525 172.19400449 -11.19677525 172.19400449 -11.20865077 171.10342818 C-11.23352263 168.69747219 -11.25116451 166.29151722 -11.26879883 163.88549805 C-11.28491515 162.16772107 -11.30141369 160.44994763 -11.31826782 158.73217773 C-11.37178876 153.07540944 -11.41460617 147.41857926 -11.45703125 141.76171875 C-11.47222402 139.81748718 -11.48748489 137.87325615 -11.50281334 135.92902565 C-11.57419549 126.79661227 -11.64073782 117.66417922 -11.70140249 108.53168839 C-11.77168461 97.97590816 -11.85858112 87.420434 -11.95958501 76.86490411 C-12.0364918 68.7154985 -12.09803469 60.56606578 -12.14799136 52.4164508 C-12.17823124 47.54469576 -12.21517668 42.67320539 -12.26828957 37.80164146 C-12.3178677 33.21921421 -12.34844769 28.6370541 -12.36432266 24.05438995 C-12.37346102 22.3708938 -12.38950604 20.68741909 -12.41290474 19.00406075 C-12.44376766 16.7083472 -12.44991043 14.41385613 -12.44978333 12.1179657 C-12.45954602 10.83244151 -12.46930872 9.54691732 -12.47936726 8.22243786 C-11.91573871 4.43357253 -10.98860559 3.30553481 -8 1 C-5.15916359 -0.42041821 -3.14522722 -0.31452272 0 0 Z " fill="#ffffff" transform="translate(341,164)"/>
<path d="M0 0 C7.34177215 -0.48945148 7.34177215 -0.48945148 10.4375 1.8125 C13.04747497 5.46646496 13.12810315 8.42759531 13.14044189 12.79391479 C13.14900711 14.60671936 13.14900711 14.60671936 13.15774536 16.45614624 C13.15899069 17.79742421 13.16011579 19.1387023 13.16113281 20.47998047 C13.16576157 21.89101288 13.17078631 23.30204403 13.17617798 24.71307373 C13.18929751 28.54781977 13.19574594 32.38254831 13.20018864 36.21731329 C13.20311979 38.61292729 13.20722465 41.00853651 13.21169281 43.4041481 C13.22536591 50.89900721 13.23503376 58.39385539 13.2388947 65.88872612 C13.24337662 74.54151233 13.26093144 83.19414068 13.2898953 91.84687889 C13.31150572 98.53486355 13.32159862 105.22280377 13.32293582 111.91082299 C13.32398421 115.90555459 13.32989933 119.90013775 13.34775543 123.89483261 C13.36422538 127.6524787 13.36639699 131.40986457 13.35761642 135.16753387 C13.35684549 136.54579235 13.3611962 137.92406476 13.37107468 139.30228806 C13.38378009 141.1855222 13.37613075 143.06886073 13.36749268 144.95211792 C13.36895924 146.00551802 13.3704258 147.05891811 13.3719368 148.14423943 C12.94295601 151.43798836 11.87127176 153.28637667 10 156 C9.54625 156.763125 9.0925 157.52625 8.625 158.3125 C7 160 7 160 4.3125 160.25 C3.549375 160.1675 2.78625 160.085 2 160 C1.67 159.01 1.34 158.02 1 157 C0.01 156.67 -0.98 156.34 -2 156 C-3.36263038 153.27473923 -3.12593918 151.1304097 -3.12698364 148.07836914 C-3.12980347 146.81638702 -3.13262329 145.55440491 -3.13552856 144.25418091 C-3.13358408 142.84783921 -3.1315359 141.44149766 -3.12939453 140.03515625 C-3.13074893 138.56029212 -3.13252908 137.08542833 -3.13470459 135.61056519 C-3.13927434 131.5982722 -3.13749124 127.58600485 -3.1343255 123.5737114 C-3.13179955 119.38125284 -3.1341401 115.18879653 -3.13571167 110.99633789 C-3.13753267 103.95491134 -3.13512886 96.91349527 -3.13037109 89.87207031 C-3.12492861 81.72299771 -3.12669131 73.57395012 -3.1321975 65.42487812 C-3.13673059 58.43717643 -3.13737821 51.44948228 -3.13475883 44.46177959 C-3.13319714 40.28442156 -3.13299935 36.1070753 -3.13629532 31.92971802 C-3.13917687 28.00308176 -3.13719308 24.07647787 -3.13140106 20.14984512 C-3.130075 18.70583271 -3.130465 17.26181759 -3.13266373 15.81780624 C-3.13538118 13.85241542 -3.13137519 11.88701866 -3.12698364 9.92163086 C-3.12660662 8.8199205 -3.12622959 7.71821014 -3.12584114 6.58311462 C-3 4 -3 4 -2 2 C-1.34 2 -0.68 2 0 2 C0 1.34 0 0.68 0 0 Z " fill="#ffffff" transform="translate(206,177)"/>
<path d="M0 0 C2.94566366 2.9815357 3.37696582 5.1895954 3.38768005 9.30674744 C3.39758469 10.38203201 3.40748932 11.45731659 3.41769409 12.56518555 C3.41094162 14.32717285 3.41094162 14.32717285 3.40405273 16.12475586 C3.41091599 17.36576553 3.41777924 18.60677521 3.42485046 19.88539124 C3.44001816 23.28639296 3.44161186 26.68684672 3.43590808 30.08784175 C3.43281744 32.92832025 3.43890731 35.76874913 3.44494683 38.60922056 C3.45899373 45.31105557 3.45742959 52.01276311 3.44604492 58.71459961 C3.43456448 65.62547096 3.44863739 72.53595422 3.4754414 79.44677442 C3.49760301 85.3832176 3.50423474 91.319539 3.49836498 97.25602061 C3.49499513 100.80028581 3.49741194 104.34430226 3.51461601 107.88853264 C3.53296493 111.84112622 3.51889319 115.79324307 3.50170898 119.74584961 C3.51137695 120.91848358 3.52104492 122.09111755 3.53100586 123.29928589 C3.45874513 131.22114145 3.45874513 131.22114145 1.10243225 135.22169495 C-1.18211241 137.15403656 -2.29606549 137.66480327 -5.25 137.8125 C-6.4875 137.874375 -7.725 137.93625 -9 138 C-9.474375 137.195625 -9.94875 136.39125 -10.4375 135.5625 C-11.76900154 133.15246512 -11.76900154 133.15246512 -13 132 C-13.1047723 130.36661481 -13.13964296 128.72870468 -13.14717102 127.09197998 C-13.15432632 126.02923355 -13.16148163 124.96648712 -13.16885376 123.87153625 C-13.17154266 122.69544296 -13.17423157 121.51934967 -13.17700195 120.30761719 C-13.18357315 119.07679916 -13.19014435 117.84598114 -13.19691467 116.5778656 C-13.21328808 113.19132081 -13.22488383 109.80483878 -13.2331202 106.41826916 C-13.23826616 104.30307709 -13.24434215 102.18788945 -13.25063133 100.0727005 C-13.2696926 93.45669659 -13.28392036 86.8407039 -13.2922433 80.2246778 C-13.30201289 72.58435856 -13.32832085 64.94432927 -13.36874419 57.3041122 C-13.39890213 51.40172477 -13.41371195 45.49942043 -13.41702431 39.59695745 C-13.4193757 36.07049671 -13.42834649 32.54434538 -13.45348549 29.01796722 C-13.4810904 25.08187075 -13.476936 21.14615552 -13.4699707 17.20996094 C-13.48278076 16.04196457 -13.49559082 14.8739682 -13.50878906 13.670578 C-13.45770521 5.76925135 -13.45770521 5.76925135 -11.09562683 1.79937744 C-7.21588756 -1.53190044 -4.9487192 -1.12865526 0 0 Z " fill="#ffffff" transform="translate(179,188)"/>
<path d="M0 0 C2.65686035 1.76902771 2.65686035 1.76902771 5 5 C5.7471119 9.01879095 5.66210009 12.99313311 5.61523438 17.07055664 C5.62078339 18.29381149 5.6263324 19.51706635 5.63204956 20.77738953 C5.6418272 24.12493364 5.62926219 27.47092981 5.60576439 30.81830907 C5.58563077 34.3238105 5.59153616 37.82927857 5.59387207 41.33482361 C5.59381853 47.22017984 5.57408056 53.10521465 5.54199219 58.99047852 C5.50508349 65.79286031 5.49631927 72.59482143 5.5032897 79.39729029 C5.50959612 85.94500152 5.49883901 92.49256864 5.47932434 99.04025078 C5.47115372 101.82526136 5.46844015 104.61019824 5.47001648 107.3952198 C5.47105908 111.28324901 5.44687973 115.17089722 5.41992188 119.05883789 C5.42285248 120.21479462 5.42578308 121.37075134 5.42880249 122.56173706 C5.4174527 123.62019333 5.40610291 124.6786496 5.39440918 125.7691803 C5.39068047 126.68816636 5.38695175 127.60715242 5.38311005 128.55398655 C4.92608862 131.47189634 4.02859173 132.8792234 2 135 C1.34 135 0.68 135 0 135 C-0.33 135.99 -0.66 136.98 -1 138 C-4.87705056 137.42562214 -7.11543577 135.57271945 -10 133 C-11.24971944 130.50056113 -11.1414945 128.78740855 -11.16494751 125.98950195 C-11.17618149 124.92945953 -11.18741547 123.86941711 -11.19898987 122.7772522 C-11.20631638 121.60939178 -11.21364288 120.44153137 -11.22119141 119.23828125 C-11.2326973 118.01225189 -11.24420319 116.78622253 -11.25605774 115.52304077 C-11.28651611 112.15537252 -11.31252217 108.78772821 -11.3362546 105.42000961 C-11.36182088 101.90018088 -11.39215359 98.38039265 -11.42172241 94.8605957 C-11.47057637 88.94907963 -11.51525205 83.03754245 -11.55761719 77.12597656 C-11.6067034 70.28561185 -11.66300542 63.44533444 -11.72303832 56.60505772 C-11.77433161 50.73839507 -11.8216792 44.87171022 -11.86572587 39.00498867 C-11.89206164 35.49830897 -11.91979371 31.99165504 -11.9510994 28.48501587 C-11.98573105 24.57728423 -12.01209475 20.66952117 -12.03759766 16.76171875 C-12.04897263 15.59385834 -12.0603476 14.42599792 -12.07206726 13.2227478 C-12.07766159 12.16270538 -12.08325592 11.10266296 -12.08901978 10.01049805 C-12.09601709 9.08577194 -12.10301441 8.16104584 -12.11022377 7.20829773 C-12 5 -12 5 -11 3 C-10.34 3 -9.68 3 -9 3 C-9 2.34 -9 1.68 -9 1 C-5.63633609 -0.1212213 -3.52465728 -0.42295887 0 0 Z " fill="#ffffff" transform="translate(250,188)"/>
<path d="M0 0 C2.52737004 1.91731521 2.9716847 2.91505409 4 6 C4.0958293 7.62544471 4.13491063 9.25452427 4.14044189 10.88278198 C4.14900711 12.392677 4.14900711 12.392677 4.15774536 13.93307495 C4.15886322 15.03652252 4.15998108 16.13997009 4.16113281 17.27685547 C4.16609772 18.43969055 4.17106262 19.60252563 4.17617798 20.80059814 C4.19081053 24.6561339 4.19760308 28.51162852 4.203125 32.3671875 C4.20742237 34.36574787 4.21172026 36.36430824 4.2160995 38.36286843 C4.22790952 43.9315471 4.23544759 49.50021579 4.2388947 55.06890571 C4.24337588 62.26825275 4.26092805 69.46740997 4.2898953 76.66669929 C4.31151646 82.23367478 4.32159919 87.80059688 4.32293582 93.36761391 C4.32398347 96.69167225 4.33132887 100.01551143 4.34775543 103.33953476 C4.36477489 107.04795542 4.36294551 110.7559118 4.35644531 114.46435547 C4.3656601 115.56375458 4.37487488 116.66315369 4.3843689 117.79586792 C4.33268732 127.18939092 4.33268732 127.18939092 1 131 C-2 133 -2 133 -5.5 132.875 C-9 132 -9 132 -10.69494057 130.26791382 C-12.24971382 127.56605086 -12.37707332 125.94278209 -12.38095093 122.83837891 C-12.3894104 121.79530579 -12.39786987 120.75223267 -12.40658569 119.67755127 C-12.400513 118.53872498 -12.39444031 117.39989868 -12.38818359 116.2265625 C-12.39344055 115.02296082 -12.39869751 113.81935913 -12.40411377 112.57928467 C-12.41505467 109.28163867 -12.4124912 105.9845574 -12.40297651 102.68694305 C-12.39537724 99.23480982 -12.40242627 95.78270059 -12.40713501 92.33056641 C-12.4125918 86.53348461 -12.40540304 80.7365175 -12.39111328 74.93945312 C-12.37478681 68.23878857 -12.38007538 61.53839786 -12.3965925 54.83773994 C-12.41020963 49.08305582 -12.41212595 43.32845411 -12.40427649 37.57375908 C-12.39960118 34.13744493 -12.3989711 30.70125948 -12.40888596 27.26495361 C-12.41916663 23.43434008 -12.40491444 19.60403291 -12.38818359 15.7734375 C-12.39425629 14.63461121 -12.40032898 13.49578491 -12.40658569 12.32244873 C-12.39812622 11.27937561 -12.38966675 10.23630249 -12.38095093 9.16162109 C-12.37925431 7.8033168 -12.37925431 7.8033168 -12.37752342 6.41757202 C-11.92003178 3.48790215 -11.0374586 2.13078778 -9 0 C-5.45026831 -1.1832439 -3.60040463 -0.90010116 0 0 Z " fill="#ffffff" transform="translate(324,190)"/>
<path d="M0 0 C2.58455285 1.89533875 2.96275506 2.88826517 4 6 C4.09518965 7.52410505 4.13487965 9.05200643 4.14044189 10.57907104 C4.14900711 11.98799622 4.14900711 11.98799622 4.15774536 13.42538452 C4.15886322 14.45402618 4.15998108 15.48266785 4.16113281 16.54248047 C4.16609772 17.62728699 4.17106262 18.71209351 4.17617798 19.82977295 C4.19080709 23.4255842 4.19760253 27.02135135 4.203125 30.6171875 C4.20887539 33.11198936 4.21463314 35.60679119 4.22039795 38.10159302 C4.22956574 42.66627427 4.23586549 47.23094284 4.2388947 51.79563224 C4.2429298 57.8425024 4.25521621 63.88921739 4.28125 69.93603516 C4.30875194 76.42339715 4.32164088 82.91062589 4.32357025 89.39804459 C4.32660055 91.87240838 4.33464169 94.34677124 4.34775543 96.82110214 C4.36478242 100.28046914 4.36294372 103.73933874 4.35644531 107.19873047 C4.3656601 108.22332367 4.37487488 109.24791687 4.3843689 110.30355835 C4.33294317 119.02900633 4.33294317 119.02900633 1 123 C-1.26723213 124.42248183 -3.45476242 125.08755634 -6 126 C-6 125.34 -6 124.68 -6 124 C-7.32 124 -8.64 124 -10 124 C-10 123.34 -10 122.68 -10 122 C-10.66 122 -11.32 122 -12 122 C-12.97040852 119.08877444 -13.11816027 117.28094692 -13.10247803 114.25561523 C-13.09977402 113.27978485 -13.09707001 112.30395447 -13.09428406 111.29855347 C-13.08605118 110.22936676 -13.0778183 109.16018005 -13.06933594 108.05859375 C-13.06454727 106.93156036 -13.05975861 105.80452698 -13.05482483 104.64334106 C-13.03710218 100.90800402 -13.01136992 97.17278091 -12.984375 93.4375 C-12.9676894 90.84822606 -12.9510271 88.25895197 -12.93438721 85.66967773 C-12.90255417 80.93343324 -12.86782011 76.1972316 -12.82973552 71.46103382 C-12.77366765 64.48703489 -12.73066464 57.51311801 -12.69905448 50.53896618 C-12.67082374 44.49949608 -12.62627919 38.46025861 -12.57575226 32.42092896 C-12.55651135 29.85005886 -12.54223887 27.27914675 -12.53295135 24.70822144 C-12.5186814 21.11901182 -12.48581266 17.53043693 -12.44824219 13.94140625 C-12.44810623 12.87221954 -12.44797028 11.80303284 -12.4478302 10.70144653 C-12.43384689 9.72561615 -12.41986359 8.74978577 -12.40545654 7.74438477 C-12.39954876 6.89562271 -12.39364098 6.04686066 -12.38755417 5.17237854 C-11.91273943 2.51087354 -11.09309654 1.65648425 -9 0 C-5.85000502 -1.57499749 -3.36459118 -0.70833498 0 0 Z " fill="#ffffff" transform="translate(415,194)"/>
<path d="M0 0 C6.30481283 0.46702317 6.30481283 0.46702317 8.875 2.4375 C10.88495604 5.22910561 11.12664533 6.99837058 11.13371277 10.38961792 C11.13797775 11.31214355 11.14224274 12.23466919 11.14663696 13.18515015 C11.14618378 14.20025665 11.14573059 15.21536316 11.14526367 16.26123047 C11.14862228 17.32799011 11.1519809 18.39474976 11.15544128 19.49383545 C11.16497266 23.03496451 11.16689552 26.57604639 11.16796875 30.1171875 C11.17117991 32.57097392 11.17454387 35.02476014 11.17805481 37.47854614 C11.18405163 42.62844283 11.18589415 47.77832272 11.18530273 52.92822266 C11.1852011 59.53500665 11.19885183 66.14168318 11.21607494 72.7484417 C11.22718078 77.81841529 11.22922237 82.8883628 11.22869301 87.95834732 C11.22987532 90.39445491 11.23431109 92.83056312 11.24202538 95.26665878 C11.2517962 98.67117638 11.24895858 102.07545929 11.24291992 105.47998047 C11.24853943 106.49103851 11.25415894 107.50209656 11.25994873 108.54379272 C11.25575424 109.47195801 11.25155975 110.40012329 11.24723816 111.35641479 C11.24778293 112.16130781 11.24832769 112.96620083 11.24888897 113.79548454 C10.96865357 116.27764869 10.29702809 117.87600853 9 120 C6.5030998 121.79662014 4.06321944 122.70800246 1 123 C-1.83698467 121.8576264 -3.95392395 120.26551029 -6 118 C-7.2068037 114.3795889 -7.26904097 110.96722612 -7.38671875 107.19140625 C-7.41224319 106.42827621 -7.43776764 105.66514618 -7.46406555 104.87889099 C-7.51602654 103.26593654 -7.56545911 101.65289894 -7.61254883 100.03979492 C-7.68712605 97.57485985 -7.77781318 95.11084829 -7.86914062 92.64648438 C-7.91765989 91.07815541 -7.96521784 89.50979635 -8.01171875 87.94140625 C-8.04077805 87.20588028 -8.06983734 86.47035431 -8.09977722 85.71253967 C-8.22975846 80.41374748 -8.22975846 80.41374748 -6.99978638 78.19882202 C-5.60085731 75.12216874 -5.79832643 72.5709416 -5.85229492 69.19946289 C-5.86390404 68.18650902 -5.86390404 68.18650902 -5.87574768 67.15309143 C-5.89336519 65.69073399 -5.9154015 64.22842453 -5.9413662 62.76619148 C-5.98085606 60.44993905 -6.0051813 58.13398927 -6.02497864 55.81748962 C-6.08296031 49.23287086 -6.16021799 42.6487064 -6.26733398 36.06469727 C-6.33184368 32.03361066 -6.37185332 28.00289086 -6.39650917 23.9713726 C-6.41075114 22.43749983 -6.43433692 20.90368378 -6.46751976 19.37010384 C-6.51333824 17.22291702 -6.52801435 15.07754605 -6.53588867 12.92993164 C-6.55302414 11.70955704 -6.57015961 10.48918243 -6.58781433 9.23182678 C-5.83633817 5.10018069 -4.15865054 3.65952807 -1 1 C-0.67 0.67 -0.34 0.34 0 0 Z " fill="#ffffff" transform="translate(444,195)"/>
<path d="M0 0 C0.66 -0.01289063 1.32 -0.02578125 2 -0.0390625 C5.27722763 1.04907948 6.20379894 2.68670247 8 5.625 C8.59674968 9.15143697 8.54640189 12.64130828 8.51757812 16.2109375 C8.5245874 17.27652893 8.53159668 18.34212036 8.53881836 19.44000244 C8.55641494 22.96026717 8.54476901 26.47972718 8.53125 30 C8.53394442 32.44710443 8.53782642 34.89420783 8.54284668 37.34130859 C8.54874401 42.46917924 8.54017079 47.59677113 8.52148438 52.72460938 C8.49869519 59.29888091 8.51181695 65.87249926 8.53577423 72.44674683 C8.55022555 77.4996432 8.54562916 82.55238461 8.53526306 87.60528564 C8.53259396 90.02939939 8.53587194 92.45352718 8.54518127 94.87762451 C8.55533538 98.26514983 8.53986017 101.6516161 8.51757812 105.0390625 C8.52567505 106.04181213 8.53377197 107.04456177 8.54211426 108.07769775 C8.48901236 112.4334756 8.39513428 114.95767132 6.13952637 118.76708984 C4 120.625 4 120.625 1.25 120.9375 C0.5075 120.834375 -0.235 120.73125 -1 120.625 C-1 121.285 -1 121.945 -1 122.625 C-4.03200339 121.6143322 -4.99878825 120.99006843 -7 118.625 C-7.94196443 115.7991067 -8.13157003 114.04938122 -8.14717102 111.12185669 C-8.15432632 110.19940155 -8.16148163 109.27694641 -8.16885376 108.32653809 C-8.17154266 107.3165979 -8.17423157 106.30665771 -8.17700195 105.26611328 C-8.18357315 104.2008139 -8.19014435 103.13551453 -8.19691467 102.03793335 C-8.21665157 98.50705905 -8.22830982 94.97622724 -8.23828125 91.4453125 C-8.24235678 90.24072262 -8.2464323 89.03613274 -8.25063133 87.79504013 C-8.2714915 81.42211834 -8.28579475 75.04921809 -8.29516602 68.67626953 C-8.30624378 62.08632034 -8.34065999 55.49670758 -8.38033772 48.90687752 C-8.40644717 43.84544231 -8.41485271 38.78408804 -8.41844749 33.7225914 C-8.42332636 31.2928731 -8.43497703 28.86315872 -8.45348549 26.43350601 C-8.47776054 23.03628876 -8.47693306 19.6399527 -8.4699707 16.24267578 C-8.48278076 15.23678406 -8.49559082 14.23089233 -8.50878906 13.19451904 C-8.4759282 8.8024116 -8.42268391 6.31796386 -6.09562683 2.50289917 C-3.84667142 0.48760168 -2.97666563 -0.058138 0 0 Z " fill="#ffffff" transform="translate(265,195.375)"/>
<path d="M0 0 C2.04972481 1.77328852 2.88905908 3.22509268 3.27447319 5.91715813 C3.39968418 8.40648618 3.4166015 10.87836083 3.40405273 13.37084961 C3.41091599 14.31925217 3.41777924 15.26765472 3.42485046 16.24479675 C3.44315631 19.38079792 3.43927547 22.5163006 3.43359375 25.65234375 C3.43815377 27.83183455 3.44345881 30.0113239 3.44947815 32.19081116 C3.45841674 36.75967244 3.4559776 41.328359 3.44604492 45.8972168 C3.43455531 51.75295588 3.45476321 57.60809194 3.48396206 63.46375179 C3.50230605 67.96505059 3.50203515 72.46620441 3.49632454 76.9675312 C3.4961711 79.12649951 3.50223407 81.28547751 3.51461601 83.44441032 C3.52948958 86.46324387 3.51887516 89.48095742 3.50170898 92.49975586 C3.51137695 93.39186768 3.52104492 94.28397949 3.53100586 95.203125 C3.48197449 99.31982728 3.34043482 101.45631699 1.10926819 105.01954651 C-1 107 -1 107 -3.25 108.1875 C-7.81617274 107.87617004 -10.95594042 105.31793904 -14 102 C-15.12289297 98.85412274 -15.05765459 95.91644952 -14.97167969 92.6015625 C-14.97927307 91.67398132 -14.98686646 90.74640015 -14.99468994 89.79071045 C-15.00947182 86.73408331 -14.96679467 83.68128711 -14.921875 80.625 C-14.91710387 78.49561001 -14.91529599 76.3662115 -14.9163208 74.23681641 C-14.91007002 69.77778272 -14.87698619 65.32003762 -14.82324219 60.86132812 C-14.75528079 55.15135026 -14.73998523 49.44278735 -14.74302292 43.73245239 C-14.74193417 39.33653299 -14.71997868 34.94092175 -14.69101715 30.54510498 C-14.67830598 28.44002615 -14.67040916 26.33491248 -14.66744232 24.22979736 C-14.65874884 21.28540846 -14.62369455 18.34250574 -14.58105469 15.3984375 C-14.58286743 14.53176453 -14.58468018 13.66509155 -14.58654785 12.77215576 C-14.47342809 7.41893351 -13.64604921 4.19505143 -10 0 C-6.20519658 -1.26493447 -3.87641726 -0.89988258 0 0 Z " fill="#ffffff" transform="translate(88,203)"/>
<path d="M0 0 C3.55484581 0.68071515 4.714546 1.76322459 6.9375 4.5625 C8.42883804 7.54517608 8.09351336 10.59902869 8.09863281 13.87036133 C8.10359772 14.62340042 8.10856262 15.37643951 8.11367798 16.15229797 C8.12831229 18.64971829 8.13510415 21.14707506 8.140625 23.64453125 C8.14637598 25.37847394 8.15213372 27.11241661 8.15789795 28.84635925 C8.16841194 32.48554786 8.17425181 36.12471435 8.17773438 39.76391602 C8.18321601 44.42462412 8.20723518 49.08503962 8.23570633 53.74565601 C8.25434197 57.32904408 8.25953883 60.91236186 8.26107025 64.4957943 C8.26409588 66.21377853 8.27212139 67.93176156 8.28525543 69.64969826 C8.30233342 72.05550921 8.3004315 74.46060789 8.29394531 76.86645508 C8.3031601 77.57469421 8.31237488 78.28293335 8.3218689 79.01263428 C8.2768081 84.35510904 6.74253523 87.28658601 3.5 91.375 C1.9375 92.5625 1.9375 92.5625 -2.0625 92.5625 C-6.41042083 89.3386014 -7.80812945 87.25678384 -8.61752319 81.86566162 C-8.92110235 77.09713877 -8.87094638 72.33023555 -8.82421875 67.5546875 C-8.82572233 65.78304791 -8.82915519 64.011409 -8.83442688 62.23977661 C-8.83874945 58.53597742 -8.82198475 54.83305163 -8.78979492 51.12939453 C-8.74995576 46.38659863 -8.75934202 41.64543433 -8.78402996 36.90258598 C-8.79822167 33.24788064 -8.78812062 29.59355554 -8.77051735 25.93887711 C-8.76467655 24.1902164 -8.76595661 22.44151666 -8.77454185 20.69286728 C-8.78254878 18.24863081 -8.75825928 15.80677604 -8.7253418 13.36279297 C-8.73389191 12.64370758 -8.74244202 11.92462219 -8.75125122 11.18374634 C-8.66168304 7.32375512 -8.14657228 5.66812109 -5.71247864 2.61013794 C-3.0625 0.5625 -3.0625 0.5625 0 0 Z " fill="#ffffff" transform="translate(47.0625,210.4375)"/>
<path d="M0 0 C3.22862784 2.55346318 4.81136151 4.06436036 5.63491821 8.14916992 C5.64088516 9.92191284 5.64088516 9.92191284 5.64697266 11.73046875 C5.66011505 12.71438095 5.66011505 12.71438095 5.67352295 13.71817017 C5.6954376 15.87529669 5.68099611 18.03035456 5.6640625 20.1875 C5.66743301 21.69295646 5.67228759 23.19841025 5.67855835 24.70385742 C5.68591879 27.85459372 5.67525218 31.00461988 5.65185547 34.15527344 C5.62336664 38.18745955 5.63977528 42.21798171 5.66971779 46.25010681 C5.6878141 49.35750798 5.68202239 52.46451673 5.66907883 55.57192993 C5.66575118 57.05823973 5.66980938 58.54458554 5.68147659 60.03085327 C5.69422574 62.11136773 5.67476003 64.1892148 5.64697266 66.26953125 C5.64299469 67.45135986 5.63901672 68.63318848 5.63491821 69.85083008 C4.81975095 73.89402835 3.05390957 75.33080846 0 78 C-0.495 78.99 -0.495 78.99 -1 80 C-2.65 79.67 -4.3 79.34 -6 79 C-6 78.34 -6 77.68 -6 77 C-7.98 76.34 -9.96 75.68 -12 75 C-12.09274575 66.08994114 -12.16378787 57.18004885 -12.20724869 48.26961231 C-12.22810948 44.13196048 -12.25639897 39.99463928 -12.30175781 35.85717773 C-12.34527028 31.86306707 -12.36914846 27.86927411 -12.37950897 23.87494469 C-12.38689073 22.35230191 -12.40130586 20.82967621 -12.42292023 19.30716896 C-12.45202778 17.17160312 -12.4559532 15.03734413 -12.45410156 12.90161133 C-12.46298401 11.6869368 -12.47186646 10.47226227 -12.48101807 9.22077942 C-11.90694682 5.37693863 -10.69808426 3.74252084 -8 1 C-5.11138291 -0.44430855 -3.20352299 -0.37688506 0 0 Z " fill="#ffffff" transform="translate(359,217)"/>
<path d="M0 0 C2.77683193 2.0892281 3.86687803 3.28400153 4.50793457 6.73193359 C4.51111694 7.77687988 4.51429932 8.82182617 4.51757812 9.8984375 C4.53018677 11.08646973 4.54279541 12.27450195 4.55578613 13.49853516 C4.54768921 14.77776855 4.53959229 16.05700195 4.53125 17.375 C4.5350769 18.69161621 4.53890381 20.00823242 4.54284668 21.36474609 C4.54873724 24.14895434 4.54019414 26.93264849 4.52148438 29.71679688 C4.49869376 33.28149333 4.5118194 36.84498518 4.53577423 40.40963745 C4.5537233 43.8148543 4.54114777 47.21974894 4.53125 50.625 C4.53934692 51.9042334 4.54744385 53.1834668 4.55578613 54.50146484 C4.54317749 55.68949707 4.53056885 56.8775293 4.51757812 58.1015625 C4.51280457 59.66898193 4.51280457 59.66898193 4.50793457 61.26806641 C3.86738014 64.7132979 2.76767443 65.90527639 0 68 C-4.6947143 68.5030051 -6.71668658 68.14165671 -11 66 C-11.33 73.26 -11.66 80.52 -12 88 C-12.33 88 -12.66 88 -13 88 C-13.09275265 77.54261235 -13.1637918 67.08532285 -13.20724869 56.62760735 C-13.22810775 51.77144701 -13.2563947 46.91556848 -13.30175781 42.05957031 C-13.34527551 37.37168744 -13.36914976 32.68407532 -13.37950897 27.99600601 C-13.38688971 26.20904402 -13.40130271 24.42209656 -13.42292023 22.63525009 C-13.45203345 20.12874282 -13.45595277 17.62334885 -13.45410156 15.11669922 C-13.46848267 14.38086105 -13.48286377 13.64502289 -13.49768066 12.8868866 C-13.45714041 7.80120055 -12.20967242 4.91171527 -9 1 C-5.90826248 -0.54586876 -3.40570448 -0.29359521 0 0 Z " fill="#ffffff" transform="translate(287,222)"/>
<path d="M0 0 C3.12006496 3.11716097 3.38504083 5.56580946 3.41992188 9.88256836 C3.43583374 11.06737289 3.45174561 12.25217743 3.46813965 13.47288513 C3.46844177 15.38702965 3.46844177 15.38702965 3.46875 17.33984375 C3.48017029 19.31121056 3.48017029 19.31121056 3.49182129 21.32240295 C3.50525526 24.10231058 3.50683994 26.88193427 3.50097656 29.66186523 C3.49508096 33.21762212 3.52566785 36.7720133 3.56609344 40.32750607 C3.59821832 43.7274952 3.59385414 47.12720332 3.59375 50.52734375 C3.61014526 51.80141586 3.62654053 53.07548798 3.64343262 54.38816833 C3.56651922 64.20715385 3.56651922 64.20715385 0.59619141 67.31201172 C-2.03695966 69.02403038 -3.06361515 69.63770365 -6.125 69.1875 C-6.78757813 69.11917969 -7.45015625 69.05085938 -8.1328125 68.98046875 C-11.27957064 67.32809157 -11.74985906 65.31648781 -13 62 C-13.43378818 57.77900194 -13.39642195 53.5798054 -13.36328125 49.33984375 C-13.36377975 48.11721329 -13.36427826 46.89458282 -13.36479187 45.63490295 C-13.36245554 43.05533214 -13.35275311 40.47575887 -13.33618164 37.89624023 C-13.31256399 33.9481977 -13.31562769 30.00082974 -13.32226562 26.05273438 C-13.31668941 23.54426681 -13.30957988 21.03580208 -13.30078125 18.52734375 C-13.30169266 17.34704086 -13.30260406 16.16673798 -13.30354309 14.95066833 C-13.29401108 13.84925003 -13.28447906 12.74783173 -13.2746582 11.61303711 C-13.27005081 10.64740341 -13.26544342 9.68176971 -13.26069641 8.68687439 C-12.97810142 5.77430167 -12.27792099 3.62455512 -11 1 C-7.5166186 -1.83831077 -4.15534713 -1.05772473 0 0 Z " fill="#ffffff" transform="translate(197,222)"/>
<path d="M0 0 C2.36497439 1.86708505 3.66030715 3.32061431 5 6 C5.10419243 7.39273041 5.14862088 8.79020125 5.16113281 10.18676758 C5.17074036 11.05139114 5.1803479 11.91601471 5.19024658 12.80683899 C5.19449646 13.74327744 5.19874634 14.67971588 5.203125 15.64453125 C5.20882507 16.60646896 5.21452515 17.56840668 5.22039795 18.55949402 C5.22985513 20.59800107 5.23638477 22.63652347 5.24023438 24.67504883 C5.2499284 27.78949805 5.28094038 30.90328421 5.3125 34.01757812 C5.31903116 35.99739191 5.32428119 37.97721042 5.328125 39.95703125 C5.3404718 40.887397 5.3528186 41.81776276 5.36553955 42.77632141 C5.34861852 47.70462823 5.17263618 50.97793836 2 55 C1.2884375 55.928125 1.2884375 55.928125 0.5625 56.875 C-1 58 -1 58 -2.8125 58 C-6.12701105 56.48479495 -8.81147818 54.92352807 -11 52 C-11.88044088 48.38643717 -11.79400418 44.85619714 -11.7265625 41.15234375 C-11.72805801 39.57907066 -11.72805801 39.57907066 -11.72958374 37.97401428 C-11.72491036 35.76083786 -11.70550018 33.54765006 -11.67236328 31.3347168 C-11.62511135 27.94548686 -11.63125172 24.55939819 -11.64453125 21.16992188 C-11.63337901 19.0182104 -11.61916006 16.86651217 -11.6015625 14.71484375 C-11.60338531 13.70123276 -11.60520813 12.68762177 -11.60708618 11.64329529 C-11.46647844 4.6766755 -11.46647844 4.6766755 -9.18115234 1.36157227 C-5.94870439 -0.65626546 -3.72612322 -0.53230332 0 0 Z " fill="#ffffff" transform="translate(232,228)"/>
<path d="M0 0 C4.10098766 0.85437243 5.41153846 2.35626865 8 5.625 C8.49966595 8.55436236 8.70370241 10.89090055 8.6640625 13.8125 C8.66884613 14.59262451 8.67362976 15.37274902 8.67855835 16.17651367 C8.68195008 17.82049586 8.67279831 19.46454615 8.65185547 21.10839844 C8.62507392 23.61807295 8.651622 26.12327629 8.68359375 28.6328125 C8.68028952 30.23438482 8.67388299 31.83595438 8.6640625 33.4375 C8.67418365 34.18346436 8.68430481 34.92942871 8.69473267 35.69799805 C8.60517972 39.69944127 8.14189095 41.45002559 5.58959961 44.59741211 C3.04336123 46.59104931 2.09323863 47.29415518 -1.0625 47.1875 C-5 46.625 -5 46.625 -7.22436523 45.10913086 C-9.72251973 41.61418764 -9.49096202 38.44462891 -9.34765625 34.31640625 C-9.33165878 33.51267075 -9.31566132 32.70893524 -9.29917908 31.88084412 C-9.25940897 30.18355708 -9.20916294 28.48648753 -9.14916992 26.78979492 C-9.06291562 24.19997919 -9.02445884 21.6124486 -8.99023438 19.02148438 C-8.94559727 17.36971107 -8.89816336 15.71801049 -8.84765625 14.06640625 C-8.83904068 13.29543106 -8.83042511 12.52445587 -8.82154846 11.7301178 C-8.64268452 7.73305513 -8.14445311 5.80750083 -5.63452148 2.63647461 C-3 0.625 -3 0.625 0 0 Z " fill="#ffffff" transform="translate(156,232.375)"/>
<path d="M0 0 C2.30275556 1.8670991 3.67823871 3.35647741 5 6 C5.1108598 8.50673576 5.16409793 10.98483901 5.16796875 13.4921875 C5.17129715 14.23453644 5.17462555 14.97688538 5.17805481 15.74172974 C5.18312087 17.31365336 5.18546323 18.88558775 5.18530273 20.45751953 C5.18748508 22.8585798 5.20563223 25.25917756 5.22460938 27.66015625 C5.22754422 29.18749843 5.22952841 30.71484279 5.23046875 32.2421875 C5.23765427 32.95897675 5.24483978 33.67576599 5.25224304 34.41427612 C5.23548069 38.086137 5.17498769 40.95909109 3 44 C-0.35327639 46.23551759 -0.90743657 46.17283528 -4.6875 45.625 C-5.49574219 45.51414062 -6.30398438 45.40328125 -7.13671875 45.2890625 C-7.75160156 45.19367188 -8.36648438 45.09828125 -9 45 C-11.53218413 39.89091691 -12.39948438 35.93649912 -12.109375 30.203125 C-12.08530579 29.48767517 -12.06123657 28.77222534 -12.03643799 28.03509521 C-11.98314799 26.53564316 -11.92223618 25.03644409 -11.85400391 23.53759766 C-11.7496747 21.24284485 -11.66772522 18.94813266 -11.58984375 16.65234375 C-11.5351395 15.19005552 -11.4791938 13.72781308 -11.421875 12.265625 C-11.39575134 11.58123352 -11.36962769 10.89684204 -11.3427124 10.19171143 C-11.20509301 7.22891834 -10.9443386 4.83301581 -10 2 C-6.76973631 -0.27314853 -3.86878511 -0.48359814 0 0 Z " fill="#ffffff" transform="translate(432,233)"/>
<path d="M0 0 C3.44821823 3.32629574 4.46482023 5.83023091 4.55578613 10.62207031 C4.54768921 11.32428711 4.53959229 12.02650391 4.53125 12.75 C4.5350769 13.48573242 4.53890381 14.22146484 4.54284668 14.97949219 C4.54555903 16.52931086 4.53824519 18.07917584 4.52148438 19.62890625 C4.50006133 21.99323143 4.52130511 24.35451866 4.546875 26.71875 C4.5442316 28.22917333 4.53910636 29.73959479 4.53125 31.25 C4.53934692 31.9522168 4.54744385 32.65443359 4.55578613 33.37792969 C4.46473319 38.17435454 3.41888072 40.64729116 0 44 C-3.14728869 45.29119536 -4.44563503 45.21118665 -7.625 44 C-11.53976034 40.70335971 -12.79394262 37.08093377 -13.28662109 32.10546875 C-13.40339185 28.73186479 -13.40905641 25.37536892 -13.375 22 C-13.38660156 20.85015625 -13.39820313 19.7003125 -13.41015625 18.515625 C-13.38542135 11.35899302 -13.1937665 5.52415613 -8.1875 0 C-5.01029411 -1.45243698 -3.28700877 -1.09566959 0 0 Z " fill="#ffffff" transform="translate(69,234)"/>
<path d="M0 0 C2.19335938 1.51171875 2.19335938 1.51171875 4 4 C4.39792556 6.84103832 4.56171751 9.28682294 4.53125 12.125 C4.5350769 12.90891113 4.53890381 13.69282227 4.54284668 14.50048828 C4.54556353 16.15463549 4.5382181 17.80882583 4.52148438 19.46289062 C4.50006892 21.99186162 4.52129097 24.51799214 4.546875 27.046875 C4.54423168 28.65625626 4.53910661 30.26563575 4.53125 31.875 C4.53934692 32.6292627 4.54744385 33.38352539 4.55578613 34.16064453 C4.49396731 37.62960851 4.2841595 39.62273809 2.16992188 42.4296875 C-0.4310483 44.31193774 -2.91630345 45.15899185 -6 46 C-6 45.34 -6 44.68 -6 44 C-6.8971875 43.7215625 -6.8971875 43.7215625 -7.8125 43.4375 C-11.04105817 41.31587606 -12.03023505 38.61215553 -13 35 C-13.45496713 30.68128949 -13.46436177 26.40189686 -13.4375 22.0625 C-13.45748047 20.92103516 -13.47746094 19.77957031 -13.49804688 18.60351562 C-13.49400965 11.61508603 -12.81983397 6.91113972 -9 1 C-5.90826248 -0.54586876 -3.40570448 -0.29359521 0 0 Z " fill="#ffffff" transform="translate(105,234)"/>
<path d="M0 0 C3.40162826 2.64480815 4.83825865 4.14356428 5.64697266 8.42578125 C5.6526123 9.70839844 5.65825195 10.99101562 5.6640625 12.3125 C5.66884613 13.00384033 5.67362976 13.69518066 5.67855835 14.4074707 C5.68194736 15.86314176 5.6728145 17.31888996 5.65185547 18.77441406 C5.62506546 20.99457497 5.65162647 23.20968261 5.68359375 25.4296875 C5.68028946 26.84896942 5.67388281 28.26824821 5.6640625 29.6875 C5.65842285 30.97011719 5.6527832 32.25273437 5.64697266 33.57421875 C4.84363026 37.82799251 3.22675311 39.22510482 0 42 C-0.33 42.66 -0.66 43.32 -1 44 C-2.32 44 -3.64 44 -5 44 C-5.66 43.34 -6.32 42.68 -7 42 C-7.515625 41.525625 -8.03125 41.05125 -8.5625 40.5625 C-12.60194587 36.17179796 -11.22444118 28.85201668 -11.24023438 23.23095703 C-11.24993395 21.13924294 -11.28096762 19.04851463 -11.3125 16.95703125 C-11.3190314 15.61979747 -11.32428133 14.2825567 -11.328125 12.9453125 C-11.3374707 11.73375488 -11.34681641 10.52219727 -11.35644531 9.27392578 C-10.96849637 5.71064127 -10.14271335 3.84238815 -8 1 C-5.11138291 -0.44430855 -3.20352299 -0.37688506 0 0 Z " fill="#ffffff" transform="translate(468,235)"/>
<path d="M0 0 C3.39151441 2.63974845 4.83669462 4.1392882 5.64697266 8.40991211 C5.6526123 9.68616455 5.65825195 10.96241699 5.6640625 12.27734375 C5.66884613 12.96631241 5.67362976 13.65528107 5.67855835 14.36512756 C5.68194775 15.81660252 5.6728121 17.26815481 5.65185547 18.71948242 C5.62510688 20.9286725 5.65160376 23.13276527 5.68359375 25.34179688 C5.68028867 26.75782361 5.67388038 28.17384719 5.6640625 29.58984375 C5.65842285 30.86722412 5.6527832 32.14460449 5.64697266 33.46069336 C4.81061115 38.03606418 3.15569598 39.66348609 0 43 C0 43.33 0 43.66 0 44 C-2.25 44.25 -2.25 44.25 -5 44 C-7.88637147 41.69090282 -9.64458105 39.41723446 -11 36 C-11.3755199 31.72241105 -11.32932449 27.44839781 -11.31567383 23.15551758 C-11.31251523 21.07254637 -11.33598519 18.9909988 -11.36132812 16.90820312 C-11.36197266 15.58884766 -11.36261719 14.26949219 -11.36328125 12.91015625 C-11.36626221 11.70496338 -11.36924316 10.49977051 -11.37231445 9.25805664 C-10.96722763 5.71321486 -10.13005915 3.83239772 -8 1 C-5.11138291 -0.44430855 -3.20352299 -0.37688506 0 0 Z " fill="#ffffff" transform="translate(377,235)"/>
<path d="M0 0 C2.36497439 1.86708505 3.66030715 3.32061431 5 6 C5.27118225 10.26536807 5.23165107 14.53949194 5.25 18.8125 C5.270625 20.00166016 5.29125 21.19082031 5.3125 22.41601562 C5.31765625 23.56392578 5.3228125 24.71183594 5.328125 25.89453125 C5.34214355 27.47004761 5.34214355 27.47004761 5.35644531 29.07739258 C4.94776859 32.42826178 3.98880451 34.29671475 2 37 C-0.22890995 38.11445498 -1.53055106 38.16480286 -4 38.1875 C-4.70125 38.20167969 -5.4025 38.21585937 -6.125 38.23046875 C-8 38 -8 38 -10 36 C-12.1471231 31.70575379 -11.2680606 26.01869969 -11.29516602 21.25146484 C-11.31238067 19.13963928 -11.35626939 17.02937941 -11.40039062 14.91796875 C-11.41051795 13.57292816 -11.41903393 12.22787429 -11.42578125 10.8828125 C-11.44036377 9.65965332 -11.45494629 8.43649414 -11.4699707 7.17626953 C-11 4 -11 4 -9.19213867 1.60107422 C-5.99526684 -0.73382782 -3.85694166 -0.55099167 0 0 Z " fill="#ffffff" transform="translate(32,237)"/>
<path d="M0 0 C3.5 0.875 3.5 0.875 5.1875 2.30859375 C7.25777357 6.35671797 7.01286754 10.33137987 7 14.8125 C7.02835937 15.70646484 7.05671875 16.60042969 7.0859375 17.52148438 C7.09972337 22.16387756 7.00288261 24.22108933 4.09375 28.00390625 C1.5 29.875 1.5 29.875 -0.5 29.875 C-0.83 30.535 -1.16 31.195 -1.5 31.875 C-2.65224028 30.94538578 -3.79659176 30.0059875 -4.9375 29.0625 C-5.57558594 28.54042969 -6.21367187 28.01835937 -6.87109375 27.48046875 C-9.87791297 24.51691312 -9.67416403 21.19457716 -9.734375 17.16796875 C-9.73953125 16.45253906 -9.7446875 15.73710937 -9.75 15 C-9.770625 14.29230469 -9.79125 13.58460938 -9.8125 12.85546875 C-9.84628006 8.32049599 -9.32651076 5.45436643 -6.5 1.875 C-3.5 -0.125 -3.5 -0.125 0 0 Z " fill="#ffffff" transform="translate(484.5,241.125)"/>
<path d="M0 0 C3.52506527 0.81831872 4.42827529 1.03103204 6.5 3.8125 C7.16076082 7.42632385 7.009398 11.08243073 7 14.75 C7.02835937 15.75224609 7.05671875 16.75449219 7.0859375 17.78710938 C7.10546333 25.10441576 7.10546333 25.10441576 4.1953125 28.5078125 C0.52097543 30.28640465 -1.6125968 29.89233422 -5.5 28.8125 C-8.08455285 26.91716125 -8.46275506 25.92423483 -9.5 22.8125 C-9.64821529 20.17312776 -9.73097341 17.57743877 -9.75 14.9375 C-9.770625 14.22980469 -9.79125 13.52210938 -9.8125 12.79296875 C-9.84628006 8.25799599 -9.32651076 5.39186643 -6.5 1.8125 C-3.5 -0.1875 -3.5 -0.1875 0 0 Z " fill="#ffffff" transform="translate(302.5,241.1875)"/>
<path d="M0 0 C2.90717073 2.21863029 3.83981643 3.51944929 5 7 C5.12117236 9.26845929 5.17540383 11.54083894 5.1875 13.8125 C5.20167969 15.01519531 5.21585938 16.21789062 5.23046875 17.45703125 C5.00124672 20.98083425 4.27030979 23.72129528 3 27 C1.37828761 27.38897161 -0.24754925 27.76078298 -1.875 28.125 C-2.77992187 28.33382813 -3.68484375 28.54265625 -4.6171875 28.7578125 C-5.40351562 28.83773438 -6.18984375 28.91765625 -7 29 C-11.76262471 24.23737529 -11.36600516 20.4173514 -11.375 14.0625 C-11.39949219 13.15564453 -11.42398438 12.24878906 -11.44921875 11.31445312 C-11.47847148 4.68870895 -11.47847148 4.68870895 -9.1953125 1.40234375 C-5.96010483 -0.66427467 -3.75283913 -0.53611988 0 0 Z " fill="#ffffff" transform="translate(123,242)"/>
<path d="M0 0 C2.1875 1.40234375 2.1875 1.40234375 4 4 C4.62058389 7.32098308 4.60362881 10.56735703 4.5625 13.9375 C4.58634766 14.83146484 4.61019531 15.72542969 4.63476562 16.64648438 C4.61846297 23.96637535 4.61846297 23.96637535 1.46484375 27.12890625 C0.65144531 27.74636719 -0.16195313 28.36382812 -1 29 C-8.77268561 27.09349221 -8.77268561 27.09349221 -11 24 C-12.15243755 20.54268736 -12.16824837 17.76740787 -12.1875 14.125 C-12.20167969 12.91070312 -12.21585937 11.69640625 -12.23046875 10.4453125 C-12.00688497 7.10292442 -11.58203973 4.93281785 -10 2 C-6.2794164 -0.48038907 -4.40203429 -0.46337203 0 0 Z " fill="#ffffff" transform="translate(396,242)"/>
<path d="M0 0 C0.33 0 0.66 0 1 0 C1.32334582 21.23304203 1.32334582 21.23304203 -4 27 C-6.625 27.3125 -6.625 27.3125 -9 27 C-9.66 27.33 -10.32 27.66 -11 28 C-15.07971236 23.92028764 -16.81102612 21.00192227 -17.125 15.18359375 C-16.9265576 11.71705311 -16.13327972 9.73326464 -14 7 C-10.625 5.4375 -10.625 5.4375 -7 5 C-4.55746679 6.11506951 -2.88643445 7.11356555 -1 9 C-0.67 6.03 -0.34 3.06 0 0 Z " fill="#ffffff" transform="translate(146,240)"/>
<path d="M0 0 C0.33 0 0.66 0 1 0 C1 40.26 1 80.52 1 122 C0.67 122 0.34 122 0 122 C0 81.74 0 41.48 0 0 Z " fill="#ffffff" transform="translate(310,195)"/>
<path d="M0 0 C0.33 0 0.66 0 1 0 C1 19.14 1 38.28 1 58 C0.67 58 0.34 58 0 58 C0 38.86 0 19.72 0 0 Z " fill="#ffffff" transform="translate(201,227)"/>
<path d="M0 0 C0.33 0 0.66 0 1 0 C1 13.2 1 26.4 1 40 C0.67 40 0.34 40 0 40 C0 26.8 0 13.6 0 0 Z " fill="#ffffff" transform="translate(237,278)"/>
<path d="M0 0 C0.33 0 0.66 0 1 0 C1 13.2 1 26.4 1 40 C0.67 40 0.34 40 0 40 C0 26.8 0 13.6 0 0 Z " fill="#ffffff" transform="translate(237,194)"/>
<path d="M0 0 C0.33 0 0.66 0 1 0 C1 12.87 1 25.74 1 39 C0.67 39 0.34 39 0 39 C0 26.13 0 13.26 0 0 Z " fill="#ffffff" transform="translate(456,271)"/>
<path d="M0 0 C0.33 0 0.66 0 1 0 C1 12.87 1 25.74 1 39 C0.67 39 0.34 39 0 39 C0 26.13 0 13.26 0 0 Z " fill="#ffffff" transform="translate(456,202)"/>
<path d="M0 0 C0.33 0 0.66 0 1 0 C1 12.21 1 24.42 1 37 C0.67 37 0.34 37 0 37 C0 24.79 0 12.58 0 0 Z " fill="#ffffff" transform="translate(437,202)"/>
<path d="M0 0 C0.33 0 0.66 0 1 0 C1 11.55 1 23.1 1 35 C0.67 35 0.34 35 0 35 C0 23.45 0 11.9 0 0 Z " fill="#ffffff" transform="translate(183,284)"/>
<path d="M0 0 C0.33 0 0.66 0 1 0 C1 11.55 1 23.1 1 35 C0.67 35 0.34 35 0 35 C0 23.45 0 11.9 0 0 Z " fill="#ffffff" transform="translate(183,193)"/>
<path d="M0 0 C0.33 0 0.66 0 1 0 C1 10.89 1 21.78 1 33 C0.67 33 0.34 33 0 33 C0 22.11 0 11.22 0 0 Z " fill="#ffffff" transform="translate(92,271)"/>
<path d="M0 0 C0.33 0 0.66 0 1 0 C1 10.89 1 21.78 1 33 C0.67 33 0.34 33 0 33 C0 22.11 0 11.22 0 0 Z " fill="#ffffff" transform="translate(92,208)"/>
<path d="M0 0 C0.33 0 0.66 0 1 0 C1 9.24 1 18.48 1 28 C0.67 28 0.34 28 0 28 C0 18.76 0 9.52 0 0 Z " fill="#ffffff" transform="translate(19,242)"/>
<path d="M0 0 C0.33 0 0.66 0 1 0 C1 8.58 1 17.16 1 26 C0.67 26 0.34 26 0 26 C0 17.42 0 8.84 0 0 Z " fill="#ffffff" transform="translate(328,316)"/>
<path d="M0 0 C0.33 0 0.66 0 1 0 C1 8.58 1 17.16 1 26 C0.67 26 0.34 26 0 26 C0 17.42 0 8.84 0 0 Z " fill="#ffffff" transform="translate(37,269)"/>
<path d="M0 0 C0.33 0 0.66 0 1 0 C1 8.58 1 17.16 1 26 C0.67 26 0.34 26 0 26 C0 17.42 0 8.84 0 0 Z " fill="#ffffff" transform="translate(37,217)"/>
<path d="M0 0 C0.33 0 0.66 0 1 0 C1 8.58 1 17.16 1 26 C0.67 26 0.34 26 0 26 C0 17.42 0 8.84 0 0 Z " fill="#ffffff" transform="translate(274,202)"/>
<path d="M0 0 C0.33 0 0.66 0 1 0 C1 8.58 1 17.16 1 26 C0.67 26 0.34 26 0 26 C0 17.42 0 8.84 0 0 Z " fill="#ffffff" transform="translate(328,170)"/>
<path d="M0 0 C0.33 0 0.66 0 1 0 C1 6.93 1 13.86 1 21 C0.67 21 0.34 21 0 21 C0 14.07 0 7.14 0 0 Z " fill="#ffffff" transform="translate(292,264)"/>
<path d="M0 0 C0.33 0 0.66 0 1 0 C1 6.93 1 13.86 1 21 C0.67 21 0.34 21 0 21 C0 14.07 0 7.14 0 0 Z " fill="#ffffff" transform="translate(292,227)"/>
<path d="M0 0 C0.33 0 0.66 0 1 0 C1 6.6 1 13.2 1 20 C0.67 20 0.34 20 0 20 C0 13.4 0 6.8 0 0 Z " fill="#ffffff" transform="translate(401,246)"/>
<path d="M0 0 C0.33 0 0.66 0 1 0 C1 6.6 1 13.2 1 20 C0.67 20 0.34 20 0 20 C0 13.4 0 6.8 0 0 Z " fill="#ffffff" transform="translate(110,246)"/>
<path d="M0 0 C0.33 0 0.66 0 1 0 C1 5.94 1 11.88 1 18 C0.67 18 0.34 18 0 18 C0 12.06 0 6.12 0 0 Z " fill="#ffffff" transform="translate(492,247)"/>
<path d="M0 0 C0.33 0 0.66 0 1 0 C1 5.61 1 11.22 1 17 C0.67 17 0.34 17 0 17 C0 11.39 0 5.78 0 0 Z " fill="#ffffff" transform="translate(365,271)"/>
<path d="M0 0 C0.33 0 0.66 0 1 0 C1 5.61 1 11.22 1 17 C0.67 17 0.34 17 0 17 C0 11.39 0 5.78 0 0 Z " fill="#ffffff" transform="translate(365,224)"/>
<path d="M0 0 C0.33 0 0.66 0 1 0 C1 3.63 1 7.26 1 11 C0.67 11 0.34 11 0 11 C0 7.37 0 3.74 0 0 Z " fill="#ffffff" transform="translate(146,261)"/>
<path d="M0 0 C0.66 1.32 1.32 2.64 2 4 C1.34 4.99 0.68 5.98 0 7 C0 4.69 0 2.38 0 0 Z " fill="#ffffff" transform="translate(474,264)"/>
<path d="M0 0 C0.33 0 0.66 0 1 0 C1 2.64 1 5.28 1 8 C0.67 8 0.34 8 0 8 C0 5.36 0 2.72 0 0 Z " fill="#ffffff" transform="translate(383,263)"/>
<path d="M0 0 C0.33 0 0.66 0 1 0 C1 2.64 1 5.28 1 8 C0.67 8 0.34 8 0 8 C0 5.36 0 2.72 0 0 Z " fill="#ffffff" transform="translate(383,241)"/>
<path d="M0 0 C0.33 0 0.66 0 1 0 C1 2.31 1 4.62 1 7 C0.67 7 0.34 7 0 7 C0 4.69 0 2.38 0 0 Z " fill="#ffffff" transform="translate(474,241)"/>
<path d="M0 0 C0.66 1.32 1.32 2.64 2 4 C1.34 4.66 0.68 5.32 0 6 C0 4.02 0 2.04 0 0 Z " fill="#ffffff" transform="translate(256,195)"/>
<path d="M0 0 C0.33 0 0.66 0 1 0 C1 1.98 1 3.96 1 6 C0.67 6 0.34 6 0 6 C0 4.02 0 2.04 0 0 Z " fill="#ffffff" transform="translate(256,311)"/>
<path d="M0 0 C1.65 0 3.3 0 5 0 C5 0.33 5 0.66 5 1 C3.35 1 1.7 1 0 1 C0 0.67 0 0.34 0 0 Z " fill="#ffffff" transform="translate(354,215)"/>
<path d="M0 0 C1.65 0 3.3 0 5 0 C5 0.33 5 0.66 5 1 C3.35 1 1.7 1 0 1 C0 0.67 0 0.34 0 0 Z " fill="#ffffff" transform="translate(208,175)"/>
<path d="M0 0 C4 1 4 1 4 1 Z " fill="#ffffff" transform="translate(390,271)"/>
<path d="M0 0 C4 1 4 1 4 1 Z " fill="#ffffff" transform="translate(118,271)"/>
<path d="M0 0 C4 1 4 1 4 1 Z " fill="#ffffff" transform="translate(390,240)"/>
<path d="M0 0 C4 1 4 1 4 1 Z " fill="#ffffff" transform="translate(118,240)"/>
<path d="M0 0 C4 1 4 1 4 1 Z " fill="#ffffff" transform="translate(463,233)"/>
<path d="M0 0 C4 1 4 1 4 1 Z " fill="#ffffff" transform="translate(372,233)"/>
<path d="M0 0 C4 1 4 1 4 1 Z " fill="#ffffff" transform="translate(227,226)"/>
<path d="M0 0 C4 1 4 1 4 1 Z " fill="#ffffff" transform="translate(45,209)"/>
<path d="M0 0 C4 1 4 1 4 1 Z " fill="#ffffff" transform="translate(245,186)"/>
<path d="M0 0 C4 1 4 1 4 1 Z " fill="#ffffff" transform="translate(336,162)"/>
<path d="M0 0 C3 1 3 1 3 1 Z " fill="#ffffff" transform="translate(173,326)"/>
<path d="M0 0 C3 1 3 1 3 1 Z " fill="#ffffff" transform="translate(155,280)"/>
<path d="M0 0 C2 1 2 1 2 1 Z " fill="#ffffff" transform="translate(284,291)"/>
<path d="M0 0 C2 1 2 1 2 1 Z " fill="#ffffff" transform="translate(428,280)"/>
<path d="M0 0 C2 1 2 1 2 1 Z " fill="#ffffff" transform="translate(102,279)"/>
<path d="M0 0 C2 1 2 1 2 1 Z " fill="#ffffff" transform="translate(67,279)"/>
<path d="M0 0 C2 1 2 1 2 1 Z " fill="#ffffff" transform="translate(30,276)"/>
<path d="" fill="#ffffff" transform="translate(0,0)"/>
<path d="" fill="#ffffff" transform="translate(0,0)"/>
<path d="M0 0 C2 1 2 1 2 1 Z " fill="#ffffff" transform="translate(301,239)"/>
<path d="" fill="#ffffff" transform="translate(0,0)"/>
<path d="" fill="#ffffff" transform="translate(0,0)"/>
<path d="M0 0 C2 1 2 1 2 1 Z " fill="#ffffff" transform="translate(102,232)"/>
<path d="M0 0 C2 1 2 1 2 1 Z " fill="#ffffff" transform="translate(99,232)"/>
<path d="M0 0 C2 1 2 1 2 1 Z " fill="#ffffff" transform="translate(428,231)"/>
<path d="M0 0 C2 1 2 1 2 1 Z " fill="#ffffff" transform="translate(155,231)"/>
<path d="" fill="#ffffff" transform="translate(0,0)"/>
<path d="M0 0 C2 1 2 1 2 1 Z " fill="#ffffff" transform="translate(284,220)"/>
<path d="M0 0 C2 1 2 1 2 1 Z " fill="#ffffff" transform="translate(281,220)"/>
<path d="M0 0 C2 1 2 1 2 1 Z " fill="#ffffff" transform="translate(262,194)"/>
<path d="M0 0 C2 1 2 1 2 1 Z " fill="#ffffff" transform="translate(173,185)"/>
<path d="" fill="#ffffff" transform="translate(0,0)"/>
<path d="" fill="#ffffff" transform="translate(0,0)"/>
<path d="" fill="#ffffff" transform="translate(0,0)"/>
<path d="" fill="#ffffff" transform="translate(0,0)"/>
<path d="" fill="#ffffff" transform="translate(0,0)"/>
<path d="" fill="#ffffff" transform="translate(0,0)"/>
<path d="" fill="#ffffff" transform="translate(0,0)"/>
<path d="" fill="#ffffff" transform="translate(0,0)"/>
<path d="" fill="#ffffff" transform="translate(0,0)"/>
<path d="" fill="#ffffff" transform="translate(0,0)"/>
<path d="" fill="#ffffff" transform="translate(0,0)"/>
<path d="" fill="#ffffff" transform="translate(0,0)"/>
<path d="" fill="#ffffff" transform="translate(0,0)"/>
<path d="" fill="#ffffff" transform="translate(0,0)"/>
<path d="" fill="#ffffff" transform="translate(0,0)"/>
<path d="" fill="#ffffff" transform="translate(0,0)"/>
<path d="" fill="#ffffff" transform="translate(0,0)"/>
<path d="" fill="#ffffff" transform="translate(0,0)"/>
<path d="" fill="#ffffff" transform="translate(0,0)"/>
<path d="" fill="#ffffff" transform="translate(0,0)"/>
<path d="" fill="#ffffff" transform="translate(0,0)"/>
<path d="" fill="#ffffff" transform="translate(0,0)"/>
<path d="" fill="#ffffff" transform="translate(0,0)"/>
<path d="" fill="#ffffff" transform="translate(0,0)"/>
<path d="" fill="#ffffff" transform="translate(0,0)"/>
<path d="" fill="#ffffff" transform="translate(0,0)"/>
<path d="" fill="#ffffff" transform="translate(0,0)"/>
<path d="" fill="#ffffff" transform="translate(0,0)"/>
<path d="" fill="#ffffff" transform="translate(0,0)"/>
<path d="" fill="#ffffff" transform="translate(0,0)"/>
<path d="" fill="#ffffff" transform="translate(0,0)"/>
<path d="" fill="#ffffff" transform="translate(0,0)"/>
<path d="" fill="#ffffff" transform="translate(0,0)"/>
<path d="" fill="#ffffff" transform="translate(0,0)"/>
<path d="" fill="#ffffff" transform="translate(0,0)"/>
<path d="" fill="#ffffff" transform="translate(0,0)"/>
<path d="" fill="#ffffff" transform="translate(0,0)"/>
<path d="" fill="#ffffff" transform="translate(0,0)"/>
<path d="" fill="#ffffff" transform="translate(0,0)"/>
<path d="" fill="#ffffff" transform="translate(0,0)"/>
<path d="" fill="#ffffff" transform="translate(0,0)"/>
<path d="" fill="#ffffff" transform="translate(0,0)"/>
<path d="" fill="#ffffff" transform="translate(0,0)"/>
<path d="" fill="#ffffff" transform="translate(0,0)"/>
<path d="" fill="#ffffff" transform="translate(0,0)"/>
<path d="" fill="#ffffff" transform="translate(0,0)"/>
<path d="" fill="#ffffff" transform="translate(0,0)"/>
<path d="" fill="#ffffff" transform="translate(0,0)"/>
<path d="" fill="#ffffff" transform="translate(0,0)"/>
<path d="" fill="#ffffff" transform="translate(0,0)"/>
<path d="" fill="#ffffff" transform="translate(0,0)"/>
<path d="" fill="#ffffff" transform="translate(0,0)"/>
<path d="" fill="#ffffff" transform="translate(0,0)"/>
<path d="" fill="#ffffff" transform="translate(0,0)"/>
<path d="" fill="#ffffff" transform="translate(0,0)"/>
<path d="" fill="#ffffff" transform="translate(0,0)"/>
<path d="" fill="#ffffff" transform="translate(0,0)"/>
<path d="" fill="#ffffff" transform="translate(0,0)"/>
<path d="" fill="#ffffff" transform="translate(0,0)"/>
<path d="" fill="#ffffff" transform="translate(0,0)"/>
<path d="" fill="#ffffff" transform="translate(0,0)"/>
<path d="" fill="#ffffff" transform="translate(0,0)"/>
<path d="" fill="#ffffff" transform="translate(0,0)"/>
<path d="" fill="#ffffff" transform="translate(0,0)"/>
<path d="" fill="#ffffff" transform="translate(0,0)"/>
<path d="" fill="#ffffff" transform="translate(0,0)"/>
<path d="" fill="#ffffff" transform="translate(0,0)"/>
<path d="" fill="#ffffff" transform="translate(0,0)"/>
<path d="" fill="#ffffff" transform="translate(0,0)"/>
<path d="" fill="#ffffff" transform="translate(0,0)"/>
<path d="" fill="#ffffff" transform="translate(0,0)"/>
<path d="" fill="#ffffff" transform="translate(0,0)"/>
<path d="" fill="#ffffff" transform="translate(0,0)"/>
<path d="" fill="#ffffff" transform="translate(0,0)"/>
<path d="" fill="#ffffff" transform="translate(0,0)"/>
<path d="" fill="#ffffff" transform="translate(0,0)"/>
<path d="" fill="#ffffff" transform="translate(0,0)"/>
<path d="" fill="#ffffff" transform="translate(0,0)"/>
<path d="" fill="#ffffff" transform="translate(0,0)"/>
<path d="" fill="#ffffff" transform="translate(0,0)"/>
<path d="" fill="#ffffff" transform="translate(0,0)"/>
<path d="" fill="#ffffff" transform="translate(0,0)"/>
<path d="" fill="#ffffff" transform="translate(0,0)"/>
<path d="" fill="#ffffff" transform="translate(0,0)"/>
<path d="" fill="#ffffff" transform="translate(0,0)"/>
<path d="" fill="#ffffff" transform="translate(0,0)"/>
<path d="" fill="#ffffff" transform="translate(0,0)"/>
<path d="" fill="#ffffff" transform="translate(0,0)"/>
<path d="" fill="#ffffff" transform="translate(0,0)"/>
<path d="" fill="#ffffff" transform="translate(0,0)"/>
<path d="" fill="#ffffff" transform="translate(0,0)"/>
<path d="" fill="#ffffff" transform="translate(0,0)"/>
<path d="" fill="#ffffff" transform="translate(0,0)"/>
<path d="" fill="#ffffff" transform="translate(0,0)"/>
<path d="" fill="#ffffff" transform="translate(0,0)"/>
<path d="" fill="#ffffff" transform="translate(0,0)"/>
<path d="" fill="#ffffff" transform="translate(0,0)"/>
<path d="" fill="#ffffff" transform="translate(0,0)"/>
</svg>