<svg version="1.1" xmlns="http://www.w3.org/2000/svg" width="1000px" height="1000px" transform="rotate(0) scale(1, 1)">
<path d="M0 0 C0.96687487 -0.00175304 1.93374975 -0.00350607 2.92992386 -0.00531223 C6.16493548 -0.0099586 9.39990189 -0.00751024 12.63491535 -0.00507832 C14.97971693 -0.00694697 17.3245182 -0.0092479 19.66931897 -0.01194364 C25.43459431 -0.0174202 31.19985718 -0.01824446 36.96513469 -0.01708278 C43.87340174 -0.01594475 50.78166189 -0.02059114 57.68992695 -0.02536215 C72.01287888 -0.03502771 86.33582722 -0.0378461 100.65878203 -0.03841921 C111.7210919 -0.03887896 122.78340038 -0.04093835 133.8457098 -0.04411983 C137.03132496 -0.0450174 140.21694012 -0.04590721 143.40255529 -0.04679471 C144.19453628 -0.04701576 144.98651728 -0.04723681 145.8024977 -0.04746456 C168.07645392 -0.05361788 190.35040965 -0.05756521 212.62436676 -0.05712128 C213.46396705 -0.0571057 214.30356733 -0.05709012 215.16861005 -0.05707407 C219.42393768 -0.05699096 223.6792653 -0.05689192 227.93459293 -0.05678936 C229.2022502 -0.05675944 229.2022502 -0.05675944 230.49551671 -0.05672892 C232.20452455 -0.05668848 233.9135324 -0.05664669 235.62254024 -0.05660353 C262.20856467 -0.05599085 288.79457634 -0.06349631 315.38059711 -0.07717609 C345.25854435 -0.09254345 375.1364832 -0.10114192 405.01443464 -0.10021287 C408.20162157 -0.10013824 411.38880851 -0.10008954 414.57599545 -0.10005856 C415.36074564 -0.1000469 416.14549584 -0.10003525 416.95402635 -0.10002324 C429.57139669 -0.09999249 442.18875593 -0.10637275 454.80612297 -0.11499082 C467.4916212 -0.12347609 480.17710323 -0.1244504 492.86260273 -0.1178815 C499.73209208 -0.11451588 506.60154484 -0.11430001 513.47103024 -0.12323475 C519.763483 -0.13109587 526.0558638 -0.12967218 532.3483148 -0.12095062 C534.6208239 -0.11941479 536.89333835 -0.12123491 539.16584112 -0.12681069 C554.09163525 -0.16099766 568.18166361 0.48580127 582.67039204 4.44113445 C583.47742573 4.65914715 584.28445942 4.87715984 585.11594868 5.10177898 C615.88274448 13.66195759 642.53931807 35.48094317 658.68992329 62.82394695 C665.59723019 75.09667526 670.4430556 88.29468558 673.04539204 102.12863445 C673.29544386 103.3328107 673.29544386 103.3328107 673.55054724 104.56131375 C675.59506613 115.72802274 675.32990828 126.90118723 675.31281757 138.21454144 C675.31655764 140.56463171 675.32116058 142.91472074 675.32654822 145.26480782 C675.33747328 151.02794113 675.33915439 156.79102456 675.33682651 162.55416655 C675.33454515 169.46352162 675.34385507 176.3728493 675.35338525 183.28219644 C675.37269288 197.60725761 675.3783523 211.93230442 675.37949936 226.25737707 C675.38041983 237.32571335 675.38454373 248.39404404 675.39090061 259.4623785 C675.39269582 262.65298052 675.39447545 265.84358255 675.39625037 269.03418458 C675.39691351 270.22412261 675.39691351 270.22412261 675.39759005 271.43809979 C675.40989311 293.74277534 675.41779175 316.04744894 675.4169035 338.35212803 C675.41687234 339.192503 675.41684118 340.03287798 675.41680908 340.89871886 C675.41664287 345.15768462 675.41644479 349.41665038 675.41623966 353.67561613 C675.41617983 354.94428702 675.41617983 354.94428702 675.41611878 356.23858762 C675.41603791 357.94896257 675.41595431 359.65933752 675.415868 361.36971247 C675.41464328 387.96320314 675.42964331 414.55664276 675.45701313 441.15011883 C675.48778234 471.05858347 675.50494265 500.96701457 675.50308669 530.87549603 C675.50293744 534.0692416 675.50284002 537.26298717 675.50277805 540.45673275 C675.50274309 541.63621829 675.50274309 541.63621829 675.50270742 542.83953181 C675.50264606 555.45491934 675.51537948 568.07026229 675.53264258 580.68563659 C675.54965623 593.38201929 675.55152834 606.07833729 675.53842394 618.77472512 C675.53171549 625.64337262 675.53117647 632.51187406 675.54913044 639.38050556 C675.56494968 645.68259489 675.56190756 651.98439796 675.54456218 658.28648068 C675.54151166 660.55230189 675.54505003 662.81814495 675.55628233 665.08394037 C675.73543787 703.8253447 665.37454431 736.98503724 638.04539204 765.12863445 C623.47490083 779.74494482 605.68588428 790.42840367 585.98289204 796.50363445 C585.21694721 796.74243328 584.45100239 796.98123211 583.66184711 797.22726727 C568.54704783 801.58769992 553.19954434 801.41770377 537.61613178 801.38933086 C535.25321528 801.3923552 532.89029976 801.3962461 530.52738595 801.40092343 C524.74041936 801.41010399 518.95350527 801.41006582 513.16653403 801.40601181 C506.22723936 801.401667 499.28796868 801.40896054 492.34867849 801.41650309 C477.96426689 801.43170932 463.57987294 801.43345164 449.19545498 801.43098006 C438.0842263 801.42914438 426.97300337 801.43091279 415.8617754 801.43520451 C414.26302398 801.43580692 412.66427256 801.43640812 411.06552114 801.43700811 C408.65608105 801.4379154 406.24664096 801.43882407 403.83720088 801.43974046 C381.44749504 801.44816495 359.05779135 801.45250917 336.66808414 801.44833374 C335.82477461 801.44817736 334.98146507 801.44802099 334.11260069 801.44785987 C329.83879164 801.44705414 325.56498259 801.44620837 321.29117355 801.44534657 C320.44244697 801.44517548 319.59372038 801.4450044 318.71927482 801.44482812 C317.00294528 801.44448147 315.28661575 801.44413294 313.57028622 801.44378254 C286.869104 801.43842633 260.16795481 801.44635497 233.46677876 801.46481609 C203.43748211 801.48555418 173.40820592 801.49625536 143.37890172 801.49224061 C140.17402506 801.49184529 136.9691484 801.49148374 133.76427174 801.49114323 C132.58067171 801.49100713 132.58067171 801.49100713 131.37316058 801.49086828 C119.48644774 801.48970466 107.59975564 801.49633267 95.71304798 801.50695515 C82.18666034 801.51903091 68.66031822 801.5205388 55.13392988 801.50816498 C48.23743531 801.50213765 41.34102173 801.50075977 34.44453335 801.51316738 C28.12180254 801.52405146 21.79923454 801.52089268 15.47651127 801.5069057 C13.19870941 801.50426574 10.92089468 801.50660305 8.64310548 801.51464156 C-29.97909911 801.6413978 -61.80219644 791.19665679 -89.95460796 764.12863445 C-90.58753765 763.57047039 -91.22046734 763.01230633 -91.87257671 762.4372282 C-101.3327297 753.83096076 -108.23157365 741.40637855 -113.95460796 730.12863445 C-114.30781109 729.50601727 -114.66101421 728.88340008 -115.02492046 728.2419157 C-126.02270378 708.28137196 -126.40721346 684.32522635 -126.33555889 662.18075848 C-126.33902304 659.82248802 -126.34379265 657.46421919 -126.34974062 655.10595369 C-126.36087889 649.34983112 -126.35827701 643.59383401 -126.34958833 637.83770996 C-126.33995159 630.93127923 -126.34789636 624.02489499 -126.35622407 617.11846651 C-126.37196153 603.58985035 -126.37067605 590.06127689 -126.36198733 576.53265674 C-126.35442132 564.69307798 -126.35247954 552.85351482 -126.35605526 541.01393414 C-126.35628441 540.22660741 -126.35651357 539.43928069 -126.35674967 538.62809558 C-126.35768378 535.43155976 -126.358639 532.23502395 -126.35962896 529.03848816 C-126.36879262 499.09214743 -126.36050679 469.14583379 -126.34433827 439.19949725 C-126.33010294 412.63175373 -126.33137689 386.06405337 -126.34572124 359.49631023 C-126.36180772 329.60247178 -126.36814256 299.70865723 -126.35888445 269.81481504 C-126.3579224 266.62432163 -126.35698387 263.4338282 -126.35605526 260.24333477 C-126.35581803 259.45783431 -126.3555808 258.67233386 -126.35533637 257.86303036 C-126.35193327 246.03494775 -126.35589736 234.2068825 -126.36349392 222.3788023 C-126.37209441 208.92099889 -126.36987896 195.4632446 -126.35365169 182.00544727 C-126.34565114 175.14525112 -126.3422439 168.2851345 -126.35259914 161.42493916 C-126.36159552 155.13442544 -126.35653226 148.84407929 -126.34066649 142.55358058 C-126.33733952 140.2886979 -126.33896523 138.0238008 -126.34629385 135.75892752 C-126.46213439 96.95586275 -115.89494639 64.72074103 -88.95460796 36.12863445 C-65.39463014 12.56865663 -33.13930439 -0.07694274 0 0 Z M-2.95460796 87.12863445 C-4.19014241 89.59970334 -4.07882823 91.21725115 -4.07765579 93.98185444 C-4.07964684 95.01343823 -4.08163789 96.04502202 -4.08368927 97.10786593 C-4.08077643 98.24986999 -4.07786359 99.39187406 -4.07486248 100.56848431 C-4.0757169 101.7748411 -4.07657133 102.9811979 -4.07745165 104.22411096 C-4.07881838 107.58307809 -4.07567637 110.94198749 -4.07067358 114.30094767 C-4.06636819 117.9192149 -4.06781557 121.53748025 -4.06857586 125.15574932 C-4.06910104 131.42813448 -4.06595488 137.70050926 -4.06033802 143.97289181 C-4.05222219 153.04178192 -4.04960771 162.110667 -4.04835003 171.17956035 C-4.04615964 185.89208008 -4.03949991 200.60459429 -4.03004742 215.31711102 C-4.02087296 229.61170709 -4.01379229 243.90630166 -4.0095396 258.20090008 C-4.00927688 259.08153833 -4.00901416 259.96217657 -4.00874347 260.86950083 C-4.00743847 265.28726057 -4.00617475 269.70502033 -4.00493157 274.12278008 C-3.99455937 310.79140215 -3.97686724 347.46001778 -3.95460796 384.12863445 C3.30539204 384.12863445 10.56539204 384.12863445 18.04539204 384.12863445 C18.11381265 347.03170385 18.16691219 309.93478446 18.19858802 272.83780351 C18.2023402 268.45932387 18.20622316 264.08084437 18.21018696 259.70236492 C18.21136736 258.39483645 18.21136736 258.39483645 18.2125716 257.06089325 C18.22562966 242.94203342 18.24928571 228.8232102 18.27685042 214.70437209 C18.30489348 200.21984646 18.32156597 185.73534 18.32765752 171.25078833 C18.33177625 162.3112353 18.34479037 153.37178572 18.36914144 144.43226452 C18.38498505 138.30418605 18.38979552 132.17616115 18.38589617 126.04806368 C18.38397247 122.51113399 18.38694553 118.97438522 18.40300846 115.4374876 C18.42029374 111.60346147 18.41436231 107.76967166 18.40615559 103.93561077 C18.41926337 102.25759099 18.41926337 102.25759099 18.43263596 100.54567182 C18.40063227 95.03183838 18.3102061 90.81611694 15.04539204 86.12863445 C7.89217553 81.46349325 3.75055675 82.74448829 -2.95460796 87.12863445 Z M178.04539204 85.12863445 C174.43024825 89.61236973 173.46834396 93.05528024 173.56437397 98.68365765 C173.56095627 99.42382362 173.55753857 100.16398959 173.55401731 100.92658484 C173.54745166 103.3958642 173.56939144 105.86404584 173.59129047 108.3332243 C173.59241924 110.10748551 173.59178452 111.88174859 173.58952045 113.65600872 C173.58837352 118.46558152 173.61187951 123.27475472 173.63981628 128.08423471 C173.66483336 133.11306224 173.66717218 138.14189908 173.67191792 143.17077923 C173.68434677 152.6904797 173.71716723 162.20999628 173.75731587 171.72961581 C173.80203632 182.5687005 173.82402132 193.40779401 173.84409761 204.246948 C173.88589989 226.54094887 173.95705668 248.8347736 174.04539204 271.12863445 C181.63539204 271.12863445 189.22539204 271.12863445 197.04539204 271.12863445 C197.11481106 247.87630546 197.16836161 224.62400138 197.20082855 201.37158966 C197.21630357 190.57531808 197.23740526 179.77911202 197.2717104 168.9828825 C197.30159327 159.57391319 197.32096242 150.16499134 197.32765752 140.7559759 C197.33157165 135.7730425 197.34078366 130.79024486 197.36258221 125.80735493 C197.38292976 121.11819641 197.38922933 116.42922972 197.38471508 111.74003124 C197.38554106 110.01829709 197.39151702 108.29655658 197.40300846 106.57486057 C197.41792568 104.22481732 197.41434876 101.87549916 197.40615559 99.52543926 C197.40892097 98.21004067 197.41168634 96.89464209 197.41453552 95.53938293 C197.02098552 91.90312728 196.16521214 90.0618671 194.04539204 87.12863445 C193.65351704 86.55113445 193.26164204 85.97363445 192.85789204 85.37863445 C188.48617463 82.36365693 182.44679294 82.31662832 178.04539204 85.12863445 Z M353.04539204 89.12863445 C352.00848775 92.23934731 351.92110352 94.37412629 351.92234421 97.63589287 C351.92035316 98.78790316 351.91836211 99.93991345 351.91631073 101.12683314 C351.91922357 102.39821661 351.92213641 103.66960007 351.92513752 104.97951031 C351.92470166 106.339159 351.92382649 107.69880761 351.92254835 109.05845577 C351.92030624 112.80280619 351.92432082 116.54712815 351.92932642 120.29147494 C351.93363478 124.32622473 351.93218422 128.36097285 351.93142414 132.3957243 C351.93089915 139.3889145 351.93404335 146.38209538 351.93966198 153.37528324 C351.94778035 163.48632635 351.95039255 173.59736494 351.95164997 183.70841096 C351.95383996 200.11191574 351.96049861 216.51541557 351.96995258 232.91891766 C351.97912807 248.85576636 351.98620824 264.79261372 351.9904604 280.72946453 C351.99072312 281.71139791 351.99098584 282.69333128 351.99125653 283.70502021 C351.99256154 288.63096774 351.99382525 293.55691528 351.99506843 298.48286283 C352.00543938 339.36479019 352.02313046 380.24671196 352.04539204 421.12863445 C359.63539204 421.12863445 367.22539204 421.12863445 375.04539204 421.12863445 C375.13660968 379.19073723 375.20741382 337.25285405 375.24965335 295.31487723 C375.25465628 290.36558911 375.25983356 285.41630119 375.2651186 280.46701336 C375.26616784 279.48168435 375.26721708 278.49635533 375.26829812 277.48116787 C375.28571125 261.51933688 375.31725395 245.55756343 375.35400322 229.59576659 C375.39138736 213.22186152 375.41362254 196.84798662 375.42174602 180.47404063 C375.42723903 170.36750213 375.4445986 160.26112623 375.4770579 150.15463777 C375.4981746 143.22761092 375.50459854 136.30066833 375.49939755 129.37361161 C375.49683132 125.37488056 375.50081103 121.37643395 375.52221394 117.37775326 C375.54166443 113.71715138 375.54267219 110.05702552 375.52898762 106.39640184 C375.5264945 104.44432239 375.54376006 102.49224863 375.56171727 100.54025018 C375.51769932 92.02669222 375.51769932 92.02669222 371.04539204 85.12863445 C364.12970388 81.22747703 358.01679753 83.16294786 353.04539204 89.12863445 Z M532.92142963 86.94655132 C529.99966127 91.90237407 530.5218251 96.70507631 530.59129047 102.35446453 C530.59070637 103.59389812 530.59012226 104.83333172 530.58952045 106.11032391 C530.59182678 109.50079962 530.61186053 112.8902964 530.63981628 116.28059888 C530.66485263 119.82665026 530.66717368 123.37271524 530.67191792 126.91884136 C530.6843412 133.63012603 530.7171538 140.34114949 530.75731587 147.05231923 C530.80205393 154.69433264 530.8240257 162.33635864 530.84409761 169.97847044 C530.88588722 185.69534709 530.95703385 201.4119468 531.04539204 217.12863445 C538.30539204 217.12863445 545.56539204 217.12863445 553.04539204 217.12863445 C553.09167886 200.63898101 553.12737559 184.14935432 553.14901638 167.65965176 C553.1593314 160.00329407 553.17339604 152.34697748 553.19627094 144.69064617 C553.21619792 138.01782175 553.22910683 131.34502709 553.23356903 124.67217374 C553.23617758 121.13855732 553.24231349 117.60502603 553.25685215 114.07143688 C553.27294599 110.12792133 553.27337216 106.18448928 553.27244282 102.24093914 C553.27963337 101.06777645 553.28682392 99.89461376 553.29423237 98.68590069 C553.29148304 97.61180447 553.28873371 96.53770824 553.28590107 95.43106365 C553.28866645 94.0317819 553.28866645 94.0317819 553.29148769 92.60423183 C553.0267585 89.94119058 552.50371108 88.36240866 551.04539204 86.12863445 C544.53054238 82.07495022 538.89135537 81.83684284 532.92142963 86.94655132 Z M481.04539204 231.12863445 C481.04539204 287.88863445 481.04539204 344.64863445 481.04539204 403.12863445 C521.30539204 403.12863445 561.56539204 403.12863445 603.04539204 403.12863445 C603.04539204 346.36863445 603.04539204 289.60863445 603.04539204 231.12863445 C562.78539204 231.12863445 522.52539204 231.12863445 481.04539204 231.12863445 Z M124.04539204 285.12863445 C124.04539204 341.88863445 124.04539204 398.64863445 124.04539204 457.12863445 C164.30539204 457.12863445 204.56539204 457.12863445 246.04539204 457.12863445 C246.04539204 400.36863445 246.04539204 343.60863445 246.04539204 285.12863445 C205.78539204 285.12863445 165.52539204 285.12863445 124.04539204 285.12863445 Z M-53.95460796 399.12863445 C-53.95460796 455.55863445 -53.95460796 511.98863445 -53.95460796 570.12863445 C-14.02460796 570.12863445 25.90539204 570.12863445 67.04539204 570.12863445 C67.04539204 513.69863445 67.04539204 457.26863445 67.04539204 399.12863445 C27.11539204 399.12863445 -12.81460796 399.12863445 -53.95460796 399.12863445 Z M531.04539204 417.12863445 C530.93135847 454.48033029 530.84285891 491.83199519 530.79006539 529.18382994 C530.78381177 533.5923523 530.77734016 538.00087432 530.77073383 542.40939617 C530.76942228 543.28706305 530.76811073 544.16472993 530.76675943 545.06899278 C530.74499577 559.2848847 530.70556896 573.50067564 530.65962806 587.71650763 C530.61289013 602.30047034 530.58510228 616.88438013 530.57494956 631.46841466 C530.56808486 640.46946594 530.54639426 649.47023183 530.5058097 658.47119527 C530.4794042 664.64134357 530.47138604 670.81134408 530.47788515 676.98154481 C530.48109152 680.54290256 530.47613566 684.10376121 530.44936466 687.66503048 C530.42055665 691.52544915 530.43044049 695.38521585 530.44411945 699.2457304 C530.42955525 700.37219215 530.41499104 701.4986539 530.39998549 702.65925086 C530.4152576 709.18930324 530.4152576 709.18930324 533.43062782 714.78147221 C537.02929156 718.01183907 539.18658739 719.20608465 544.04539204 719.00363445 C547.50719203 717.99394279 549.43574341 716.5891603 552.04539204 714.12863445 C553.28092648 711.65756556 553.1696123 710.04001776 553.16843987 707.27541447 C553.17043091 706.24383067 553.17242196 705.21224688 553.17447335 704.14940298 C553.1715605 703.00739891 553.16864766 701.86539485 553.16564655 700.6887846 C553.16650098 699.4824278 553.1673554 698.27607101 553.16823572 697.03315794 C553.16960246 693.67419082 553.16646044 690.31528141 553.16145766 686.95632124 C553.15715226 683.33805401 553.15859965 679.71978866 553.15935993 676.10151958 C553.15988511 669.82913443 553.15673895 663.55675965 553.15112209 657.2843771 C553.14300626 648.21548699 553.14039179 639.14660191 553.1391341 630.07770856 C553.13694371 615.36518882 553.13028398 600.65267462 553.12083149 585.94015789 C553.11165703 571.64556182 553.10457636 557.35096725 553.10032368 543.05636883 C553.10006095 542.17573058 553.09979823 541.29509233 553.09952755 540.38776807 C553.09822254 535.97000833 553.09695882 531.55224858 553.09571564 527.13448882 C553.08534344 490.46586675 553.06765131 453.79725112 553.04539204 417.12863445 C545.78539204 417.12863445 538.52539204 417.12863445 531.04539204 417.12863445 Z M303.04539204 436.12863445 C303.04539204 492.55863445 303.04539204 548.98863445 303.04539204 607.12863445 C343.30539204 607.12863445 383.56539204 607.12863445 425.04539204 607.12863445 C425.04539204 550.69863445 425.04539204 494.26863445 425.04539204 436.12863445 C384.78539204 436.12863445 344.52539204 436.12863445 303.04539204 436.12863445 Z M174.04539204 471.12863445 C173.97758814 501.61809486 173.92387143 532.10753483 173.89219605 562.59705267 C173.88844388 566.19571483 173.88456092 569.79437683 173.88059711 573.39303875 C173.87981018 574.10947474 173.87902325 574.82591074 173.87821247 575.56405691 C173.86515462 587.16811773 173.84149869 598.77213401 173.81393365 610.37616839 C173.78589 622.2808704 173.76921798 634.18554906 173.76312655 646.09028274 C173.75937773 652.7778803 173.74998157 659.46539674 173.72820187 666.15296268 C173.70787821 672.44426273 173.70154993 678.73541985 173.70606899 685.02674961 C173.70524195 687.33867703 173.69925193 689.65060911 173.68777561 691.9625082 C173.67289625 695.11386034 173.67642204 698.26466959 173.68462849 701.41603374 C173.67588996 702.33529713 173.66715144 703.25456051 173.65814811 704.20168036 C173.69182015 708.97061467 173.84375561 712.31685508 177.04539204 716.12863445 C180.35847091 717.96923383 182.78776106 719.15930838 186.60789204 719.06613445 C190.55425288 717.54830336 194.05882706 715.86109095 196.20614147 712.09030151 C197.40238711 707.86881934 197.31381519 703.85938076 197.28590107 699.49196148 C197.28846434 698.0277251 197.28846434 698.0277251 197.2910794 696.53390819 C197.29437579 693.26031473 197.28336801 689.98692586 197.27244282 686.71335125 C197.27187874 684.36781602 197.2721952 682.02228044 197.27332783 679.67674541 C197.27390246 673.30531302 197.26213018 666.93395569 197.24817991 660.56254077 C197.23695605 654.57975148 197.23493419 648.59696214 197.23287617 642.61416433 C197.22850028 630.76505101 197.21519405 618.91596524 197.19627094 607.06686687 C197.1779094 595.55742817 197.16375424 584.04799696 197.15525532 572.53854656 C197.15472987 571.82895523 197.15420442 571.1193639 197.15366305 570.3882698 C197.15105296 566.82841407 197.14852555 563.26855827 197.14603925 559.70870245 C197.12531005 530.18199486 197.08953649 500.6553164 197.04539204 471.12863445 C189.45539204 471.12863445 181.86539204 471.12863445 174.04539204 471.12863445 Z M-3.95460796 584.12863445 C-4.09351362 600.86172615 -4.20058078 617.59458007 -4.265481 634.32810783 C-4.29641661 642.09783526 -4.33859074 649.86719785 -4.40724468 657.63669109 C-4.46705665 664.40877679 -4.50575928 671.18059827 -4.51913893 677.95294076 C-4.52695998 681.53886328 -4.54533269 685.12402994 -4.5889883 688.70971012 C-4.63733539 692.71321767 -4.63854675 696.71541213 -4.63576031 700.71921062 C-4.65733196 701.90747952 -4.67890362 703.09574841 -4.70112896 704.32002544 C-4.81391136 709.94824583 -4.81391136 709.94824583 -2.67853451 714.96716022 C0.60576003 717.82623215 3.71819501 719.12863445 8.04539204 719.12863445 C11.62363998 717.72539997 14.69114428 716.22632887 17.04539204 713.12863445 C18.0425096 710.01254789 18.16891923 707.16172079 18.16564655 703.90213299 C18.16702122 702.84486507 18.16839588 701.78759716 18.1698122 700.69829082 C18.16621693 699.54382961 18.16262165 698.3893684 18.15891743 697.19992352 C18.15906345 695.98014309 18.15920948 694.76036266 18.15935993 693.50361919 C18.15878284 690.16302924 18.15376912 686.82250116 18.14678597 683.48192215 C18.14053275 679.98922247 18.13994708 676.49652197 18.13876057 673.00381756 C18.13565306 666.39178173 18.12744749 659.77976245 18.11741108 653.16773391 C18.10623192 645.63937072 18.10073494 638.11100674 18.09571564 630.58263731 C18.0852644 615.09795985 18.06747464 599.61329994 18.04539204 584.12863445 C10.78539204 584.12863445 3.52539204 584.12863445 -3.95460796 584.12863445 Z M352.04539204 622.12863445 C351.97758209 633.36839412 351.9225561 644.60801764 351.88995552 655.84793568 C351.87430792 661.06723036 351.85308602 666.28637769 351.81907368 671.50558758 C351.78644817 676.54358523 351.7685322 681.58144125 351.76076031 686.6195364 C351.75522255 688.54044988 351.74440864 690.46135573 351.72820187 692.38220882 C351.70638524 695.0753602 351.70342689 697.76792828 351.70481586 700.46115398 C351.69403004 701.25309658 351.68324421 702.04503918 351.67213154 702.86098003 C351.69901656 707.68698943 352.43859461 710.91729563 355.04539204 715.12863445 C357.13936896 717.07050652 359.34267226 718.2143101 362.04539204 719.12863445 C365.77729828 718.98228519 368.9538051 718.26076338 372.04539204 716.12863445 C375.45106214 711.78162543 375.45622828 707.69513091 375.38596821 702.39108562 C375.38640629 701.52228771 375.38684437 700.6534898 375.38729572 699.75836468 C375.38521106 696.89587971 375.36189517 694.03398546 375.33836079 691.1716032 C375.33276369 689.18335064 375.32849413 687.19509393 375.32549763 685.20683575 C375.31405784 679.98053798 375.28459798 674.75449137 375.25138569 669.52829266 C375.22066621 664.19263386 375.20698827 658.85693437 375.19187641 653.52121258 C375.15972751 643.05689191 375.10696652 632.59282339 375.04539204 622.12863445 C367.45539204 622.12863445 359.86539204 622.12863445 352.04539204 622.12863445 Z " fill="#ffffff" transform="translate(225.954607963562,97.87136554718018)"/>
<path d="M0 0 C1.24966805 -0.005476 1.24966805 -0.005476 2.52458191 -0.01106262 C5.27042203 -0.01914949 8.01566861 -0.00557472 10.76147461 0.0090332 C12.67288716 0.00955199 14.58430025 0.00903358 16.49571228 0.00752258 C20.49787378 0.00761222 24.49983349 0.0180252 28.50195312 0.03613281 C33.63233169 0.05883495 38.76241587 0.05936036 43.89283085 0.05261517 C47.838197 0.04927437 51.783496 0.05590713 55.72884941 0.0657444 C57.62068773 0.06959361 59.51253351 0.07074577 61.40437508 0.06915855 C64.04707206 0.06878781 66.68939104 0.08141015 69.33203125 0.09765625 C70.11395844 0.09517883 70.89588562 0.09270142 71.70150757 0.09014893 C75.46094942 0.12704502 78.45957008 0.17213812 81.60131836 2.37231445 C83.30583151 4.72616595 83.62189807 5.96072026 83.47631836 8.87231445 C82.35155223 12.08593197 81.32816622 13.30306164 78.60131836 15.37231445 C75.65928925 15.7720184 73.09038197 15.92974134 70.1484375 15.90576172 C69.29757065 15.91437729 68.4467038 15.92299286 67.5700531 15.93186951 C64.75855045 15.95456461 61.94804175 15.94778395 59.13647461 15.9387207 C57.18118493 15.94395497 55.22589778 15.95023073 53.27061462 15.95750427 C49.1724764 15.96791521 45.07468524 15.9633374 40.9765625 15.94873047 C35.72598677 15.93154747 30.47650582 15.95502835 25.22605228 15.99022007 C21.18795018 16.0121868 17.15011027 16.01075424 13.11196709 16.00245476 C11.17628212 16.00163473 9.240578 16.00850799 7.30494881 16.02322578 C4.59714738 16.04065708 1.89131609 16.02614157 -0.81640625 16.00341797 C-2.0143129 16.02095627 -2.0143129 16.02095627 -3.23641968 16.03884888 C-7.2621721 15.97015152 -9.19124424 15.53073132 -12.42726135 13.05943298 C-14.39868164 10.37231445 -14.39868164 10.37231445 -14.52368164 6.74731445 C-13.39868164 3.37231445 -13.39868164 3.37231445 -11.35328674 1.68464661 C-7.53674526 -0.01052751 -4.09724415 -0.04015661 0 0 Z " fill="#ffffff" transform="translate(557.398681640625,626.627685546875)"/>
<path d="M0 0 C0.83150574 -0.00686325 1.66301147 -0.0137265 2.51971436 -0.02079773 C5.26071377 -0.039058 8.00114047 -0.0352298 10.7421875 -0.02954102 C12.65120632 -0.03410281 14.56022349 -0.03940837 16.46923828 -0.04542542 C20.46719034 -0.0543547 24.46494261 -0.05193499 28.46289062 -0.04199219 C33.58437638 -0.03049581 38.70517334 -0.05072518 43.8265686 -0.07990932 C47.767704 -0.09825983 51.70867392 -0.09798128 55.64984131 -0.0922718 C57.53807543 -0.09211849 59.42632069 -0.09817151 61.31451416 -0.11056328 C63.95490701 -0.1254519 66.59402197 -0.11481282 69.234375 -0.09765625 C70.01270691 -0.10732422 70.79103882 -0.11699219 71.59295654 -0.12695312 C75.29413827 -0.07662864 77.42383967 0.28137429 80.57861328 2.2830658 C82.9715332 4.77272344 83.6171875 5.95503636 83.6171875 9.40405273 C81.42315765 14.00106766 81.42315765 14.00106766 78.6171875 15.40405273 C75.86741782 15.523339 73.14220117 15.58241755 70.39135742 15.59692383 C69.54078262 15.60510132 68.69020782 15.61327881 67.81385803 15.6217041 C64.99179798 15.64656905 62.16978825 15.66307655 59.34765625 15.67749023 C58.38486567 15.68281391 57.42207508 15.68813759 56.43010902 15.69362259 C51.33451762 15.72035844 46.23895077 15.7397323 41.14331055 15.75415039 C35.87710171 15.77080308 30.6115181 15.81558483 25.34554577 15.86652184 C21.29892752 15.90015837 17.25245836 15.91172386 13.20571327 15.91737747 C11.26440971 15.92409946 9.32311627 15.93934605 7.38194847 15.96326828 C4.66451256 15.99484716 1.94877199 15.99496781 -0.76879883 15.98754883 C-1.97141861 16.01215683 -1.97141861 16.01215683 -3.19833374 16.03726196 C-7.23705153 15.99213205 -9.16426616 15.57062952 -12.41337585 13.09414673 C-14.3828125 10.40405273 -14.3828125 10.40405273 -14.5078125 6.77905273 C-13.3828125 3.40405273 -13.3828125 3.40405273 -11.33642578 1.71836853 C-7.52863343 0.02395523 -4.09032843 -0.02365728 0 0 Z " fill="#ffffff" transform="translate(557.3828125,602.595947265625)"/>
<path d="M0 0 C0.81185257 -0.0049649 1.62370514 -0.00992981 2.4601593 -0.01504517 C5.14149833 -0.02963125 7.82277824 -0.03646199 10.50415039 -0.04199219 C12.36975608 -0.04774548 14.23536175 -0.05350319 16.10096741 -0.05926514 C20.01067378 -0.06976425 23.92035964 -0.0756144 27.83007812 -0.07910156 C32.83823032 -0.08459151 37.84611136 -0.10863479 42.85417843 -0.13707352 C46.70692233 -0.15569951 50.55960081 -0.16090542 54.41238594 -0.16243744 C56.25875904 -0.16546333 58.10513101 -0.17348974 59.95145988 -0.18662262 C62.53425637 -0.20368635 65.11638869 -0.20180246 67.69921875 -0.1953125 C68.46042023 -0.20452728 69.2216217 -0.21374207 70.00588989 -0.22323608 C74.91552351 -0.18461028 78.37818983 0.625016 81.91430664 4.16113281 C82.49377449 10.30349204 82.49377449 10.30349204 80.42980957 13.35826111 C76.87238325 15.90788376 73.57095366 15.72849158 69.35375977 15.69458008 C68.49153305 15.70319565 67.62930634 15.71181122 66.74095154 15.72068787 C63.89218082 15.74338219 61.04439098 15.73660312 58.19555664 15.72753906 C56.21545112 15.73277288 54.2353481 15.73904846 52.25524902 15.74632263 C48.10583766 15.75673306 43.95676911 15.75215574 39.80737305 15.73754883 C34.48720232 15.7203545 29.16811089 15.74386104 23.84806061 15.77903843 C19.7593875 15.80098678 15.67097372 15.79957726 11.58226013 15.79127312 C9.62062903 15.7904523 7.65897913 15.79734056 5.69740295 15.81204414 C2.95587575 15.82944415 0.21630171 15.8149866 -2.52514648 15.79223633 C-3.74247215 15.80977463 -3.74247215 15.80977463 -4.98439026 15.82766724 C-8.87755722 15.76185713 -10.70113581 15.51032171 -13.62854004 12.85215759 C-15.59944881 9.21234546 -15.12542259 7.09725062 -14.08569336 3.16113281 C-10.18243181 -0.74212874 -5.23913921 0.00767351 0 0 Z " fill="#ffffff" transform="translate(201.085693359375,565.8388671875)"/>
<path d="M0 0 C1.23219017 -0.00744736 1.23219017 -0.00744736 2.48927307 -0.01504517 C5.20851477 -0.02965784 7.92769814 -0.03646705 10.64697266 -0.04199219 C12.53642783 -0.04774406 14.42588299 -0.05350179 16.31533813 -0.05926514 C20.27809928 -0.06977236 24.24084016 -0.07561696 28.20361328 -0.07910156 C33.28017399 -0.08458787 38.35646671 -0.10861999 43.43294334 -0.13707352 C47.3363015 -0.1557006 51.23959508 -0.16090552 55.14299393 -0.16243744 C57.01448661 -0.16546398 58.88597815 -0.17349254 60.75742722 -0.18662262 C63.37625256 -0.20368576 65.9944228 -0.20180238 68.61328125 -0.1953125 C69.38540451 -0.20452728 70.15752777 -0.21374207 70.95304871 -0.22323608 C75.45205291 -0.18832705 78.36619778 0.35969355 81.93603516 3.16113281 C83.37338762 6.03583774 83.31776165 7.9800787 82.93603516 11.16113281 C80.03025479 14.3241699 78.31419514 15.11207231 74.02085876 15.66906738 C72.46533571 15.69272794 70.9093828 15.69448315 69.35375977 15.67871094 C68.50114059 15.68572021 67.64852142 15.69272949 66.77006531 15.69995117 C63.95916934 15.71751888 61.14928463 15.70591396 58.33837891 15.69238281 C56.38212389 15.69507783 54.42587018 15.69896034 52.46961975 15.70397949 C48.37325261 15.70987267 44.27723471 15.70131641 40.1809082 15.68261719 C34.92926501 15.65981273 29.67843883 15.67296141 24.42682552 15.69690704 C20.38877702 15.71135699 16.35092244 15.70676297 12.31286812 15.69639587 C10.37636786 15.69372715 8.43985 15.69700346 6.50337029 15.70631409 C3.79807717 15.71646811 1.09411028 15.70099581 -1.61108398 15.67871094 C-2.81202698 15.69085632 -2.81202698 15.69085632 -4.03723145 15.70324707 C-7.56929946 15.64931685 -9.66639196 15.44881604 -12.56492615 13.35144043 C-14.7392272 10.17447897 -14.54187228 7.9161198 -14.06396484 4.16113281 C-10.67857301 -0.67514124 -5.34810701 0.00770246 0 0 Z " fill="#ffffff" transform="translate(379.06396484375,499.8388671875)"/>
<path d="M0 0 C0.86222672 -0.00700928 1.72445343 -0.01401855 2.61280823 -0.02124023 C5.46160125 -0.03883876 8.30940008 -0.027191 11.15820312 -0.01367188 C13.1383076 -0.01636626 15.11841079 -0.02024823 17.09851074 -0.02526855 C21.24793091 -0.03116612 25.3970066 -0.02259225 29.54638672 -0.00390625 C34.86643645 0.01888335 40.18567904 0.00576167 45.50569916 -0.01819611 C49.59436123 -0.03264704 53.6828318 -0.02805131 57.77149963 -0.01768494 C59.73311966 -0.01501571 61.69475705 -0.01829429 63.65635681 -0.02760315 C66.39767543 -0.0377571 69.13768518 -0.02228414 71.87890625 0 C73.09623192 -0.01214539 73.09623192 -0.01214539 74.33815002 -0.02453613 C77.91587871 0.02937178 80.02319218 0.21086701 82.9432373 2.36242676 C84.99094984 5.31195476 85.02561295 7.00061915 84.43945312 10.51757812 C82.20738882 13.36538431 80.88952314 14.36755479 77.43945312 15.51757812 C74.7736186 15.6240588 72.13354225 15.67482411 69.46728516 15.67871094 C68.65557861 15.68367584 67.84387207 15.68864075 67.00756836 15.6937561 C64.32079218 15.70836797 61.63407502 15.71517785 58.94726562 15.72070312 C57.0802307 15.72645507 55.21319578 15.7322128 53.34616089 15.73797607 C49.43047816 15.74848307 45.51481594 15.75432781 41.59912109 15.7578125 C36.58309312 15.76329872 31.56733639 15.78733073 26.55139351 15.81578445 C22.6943584 15.83441239 18.83738864 15.8396165 14.98031235 15.84114838 C13.13114818 15.84417473 11.28198516 15.85220267 9.43286514 15.86533356 C6.84517036 15.88239849 4.25813846 15.8805129 1.67041016 15.87402344 C0.52625137 15.88784561 0.52625137 15.88784561 -0.64102173 15.90194702 C-5.11850638 15.86679285 -8.00619665 15.29905009 -11.56054688 12.51757812 C-12.98096508 9.67674171 -12.8750696 7.66280535 -12.56054688 4.51757812 C-9.27594544 -0.26820042 -5.3544468 -0.05342188 0 0 Z " fill="#ffffff" transform="translate(377.560546875,476.482421875)"/>
<path d="M0 0 C1.27870972 -0.00788544 1.27870972 -0.00788544 2.58325195 -0.01593018 C5.39943801 -0.02912749 8.21505825 -0.02039307 11.03125 -0.01025391 C12.9889334 -0.01227472 14.94661606 -0.01518622 16.90429688 -0.01895142 C21.00658335 -0.0233744 25.10867381 -0.01694447 29.2109375 -0.00292969 C34.47033286 0.01416213 39.72926895 0.00432082 44.98864746 -0.01364708 C49.03095971 -0.02448556 53.073163 -0.02103827 57.11547852 -0.0132637 C59.05476943 -0.01126188 60.99407023 -0.01372036 62.93334961 -0.02070236 C65.64333312 -0.02831784 68.35257197 -0.01671135 71.0625 0 C72.26579956 -0.00910904 72.26579956 -0.00910904 73.4934082 -0.0184021 C76.76249227 0.01896089 79.11614208 0.15702857 82.00195312 1.76400757 C84.08712716 3.97854794 84.45898386 5.35300568 84.53125 8.38818359 C83.26661302 11.40926083 82.33080642 12.96107946 79.42077637 14.51554871 C75.73245234 15.62941991 72.23930894 15.67544048 68.42382812 15.6628418 C67.22046059 15.67050819 67.22046059 15.67050819 65.99278259 15.67832947 C63.34927852 15.69219386 60.70603603 15.69127133 58.0625 15.68896484 C56.22074283 15.69285302 54.37898656 15.69718794 52.53723145 15.70195007 C48.68055308 15.70940513 44.82396628 15.70912582 40.96728516 15.70385742 C36.02751619 15.6980585 31.08812166 15.71500743 26.14841461 15.7382021 C22.34627088 15.75293877 18.5442174 15.75381132 14.74205017 15.75069237 C12.92080442 15.75120544 11.09955359 15.75644055 9.27833557 15.76650429 C6.73153368 15.7788525 4.18546223 15.77208737 1.63867188 15.76049805 C0.88839218 15.76814178 0.13811249 15.77578552 -0.63490295 15.78366089 C-6.31161125 15.72661657 -9.49539967 14.36153393 -13.46875 10.38818359 C-13.24565997 4.25320781 -13.24565997 4.25320781 -10.94335938 1.68978882 C-7.3709477 -0.18924298 -3.94044569 -0.02982938 0 0 Z " fill="#ffffff" transform="translate(556.46875,650.61181640625)"/>
<path d="M0 0 C1.29312103 -0.01029488 1.29312103 -0.01029488 2.61236572 -0.02079773 C5.46643473 -0.039122 8.31995697 -0.03522017 11.17407227 -0.02954102 C13.15560587 -0.03410023 15.1371379 -0.03940502 17.1186676 -0.04542542 C21.27400125 -0.05436766 25.42914282 -0.05192085 29.58447266 -0.04199219 C34.9123692 -0.03050308 40.23960293 -0.05070755 45.56741238 -0.07990932 C49.66034668 -0.09824662 53.75312144 -0.09798376 57.8460865 -0.0922718 C59.8105061 -0.09211828 61.77493631 -0.09818853 63.73931694 -0.11056328 C66.48548953 -0.12542428 69.23042878 -0.11483239 71.9765625 -0.09765625 C72.78968399 -0.10732422 73.60280548 -0.11699219 74.44056702 -0.12695312 C78.02413894 -0.07996611 80.13417895 0.09623917 83.06166077 2.24790955 C85.08802372 5.17761966 85.06238452 6.91098296 84.55297852 10.40405273 C82.77313447 13.53996844 82.02989645 14.24508009 78.55297852 15.40405273 C75.88697091 15.50543808 73.24703135 15.55089212 70.58081055 15.54931641 C69.769104 15.55267502 68.95739746 15.55603363 68.12109375 15.55949402 C65.43431066 15.56900285 62.74758989 15.57094713 60.06079102 15.57202148 C58.19375584 15.57523423 56.32672092 15.57859831 54.45968628 15.58210754 C50.54400041 15.58809872 46.62833661 15.58994747 42.71264648 15.58935547 C37.69667889 15.58925387 32.68085293 15.60290345 27.6649189 15.62012768 C23.80788524 15.63125 19.95088579 15.6332746 16.09383774 15.63274574 C14.24468371 15.63392561 12.39552878 15.63834775 10.54639053 15.64607811 C7.95880486 15.65588216 5.37152623 15.65299826 2.78393555 15.64697266 C1.63977676 15.65540192 1.63977676 15.65540192 0.47250366 15.66400146 C-3.59773419 15.63993278 -6.82197219 15.31884715 -10.44702148 13.40405273 C-12.44145091 10.86568802 -12.45824778 9.58741559 -12.25952148 6.34155273 C-10.3925856 -0.40813855 -6.31525008 -0.03487601 0 0 Z " fill="#ffffff" transform="translate(198.447021484375,589.595947265625)"/>
<path d="M0 0 C1.23262825 -0.00810448 1.23262825 -0.00810448 2.49015808 -0.01637268 C5.19888639 -0.0288513 7.90655001 -0.0123751 10.61523438 0.00561523 C12.50183162 0.00546023 14.38842919 0.00397094 16.27502441 0.00120544 C20.22597355 -0.00017816 24.1765595 0.01237307 28.12744141 0.03515625 C33.18831948 0.06354071 38.24859419 0.06080302 43.30951691 0.04806614 C47.20433696 0.04110658 51.0990179 0.04890143 54.99382019 0.06132317 C56.85971035 0.06583496 58.72561546 0.06617684 60.59150696 0.06225777 C63.20063824 0.05934283 65.8089421 0.07586573 68.41796875 0.09765625 C69.57144051 0.09090378 69.57144051 0.09090378 70.74821472 0.08401489 C75.23103577 0.14612674 78.14920545 0.71605497 81.70898438 3.50170898 C83.12940258 6.3425454 83.0235071 8.35648176 82.70898438 11.50170898 C81.2244873 13.66368103 81.2244873 13.66368103 78.70898438 15.50170898 C75.7324997 15.90137877 73.1249515 16.05909114 70.1484375 16.03515625 C69.28621078 16.04377182 68.42398407 16.05238739 67.53562927 16.06126404 C64.68685856 16.08395836 61.83906871 16.07717929 58.99023438 16.06811523 C57.01012885 16.07334905 55.03002583 16.07962464 53.04992676 16.0868988 C48.9005154 16.09730923 44.75144685 16.09273191 40.60205078 16.078125 C35.28188005 16.06093067 29.96278863 16.08443721 24.64273834 16.1196146 C20.55406524 16.14156295 16.46565145 16.14015343 12.37693787 16.13184929 C10.41530676 16.13102847 8.45365686 16.13791673 6.49208069 16.15262032 C3.75055348 16.17002033 1.01097944 16.15556278 -1.73046875 16.1328125 C-2.94779442 16.1503508 -2.94779442 16.1503508 -4.18971252 16.16824341 C-8.10832114 16.10200323 -9.90203579 15.8625518 -12.82214355 13.15367126 C-14.29101562 10.50170898 -14.29101562 10.50170898 -14.35351562 7.43920898 C-11.85276525 0.5253697 -6.64576195 -0.08355344 0 0 Z " fill="#ffffff" transform="translate(200.291015625,612.498291015625)"/>
<path d="M0 0 C0.802099 -0.00335861 1.604198 -0.00671722 2.43060303 -0.01017761 C5.07948357 -0.01966892 7.72830078 -0.02162973 10.37719727 -0.02270508 C12.22038296 -0.02591862 14.06356839 -0.02928277 15.90675354 -0.03279114 C19.76938468 -0.03877763 23.63199346 -0.0406315 27.49462891 -0.04003906 C32.4421873 -0.0399374 37.38960233 -0.05359611 42.33712673 -0.07081127 C46.14354612 -0.08193294 49.94993085 -0.08395823 53.75636482 -0.08342934 C55.58039914 -0.08460895 57.40443437 -0.08902967 59.22845268 -0.0967617 C61.78000804 -0.10656611 64.33125206 -0.10368192 66.8828125 -0.09765625 C68.01058861 -0.10608551 68.01058861 -0.10608551 69.16114807 -0.11468506 C73.19913987 -0.09047048 76.44182684 0.17177141 80.00610352 2.14526367 C82.00610352 5.14526367 82.00610352 5.14526367 81.81860352 8.64526367 C80.72644936 13.34992775 80.72644936 13.34992775 78.00610352 15.14526367 C75.11368899 15.44151569 72.43657869 15.55496087 69.54321289 15.53344727 C68.67952591 15.53870422 67.81583893 15.54396118 66.92597961 15.54937744 C64.0670877 15.56259625 61.20875123 15.55383273 58.34985352 15.54370117 C56.36592502 15.54572137 54.38199724 15.54863235 52.39807129 15.55239868 C48.23853491 15.55682458 44.07919168 15.55038238 39.91967773 15.53637695 C34.58280818 15.51928497 29.24639121 15.52912472 23.90953827 15.54709435 C19.81236347 15.55792496 15.7152963 15.55448915 11.61811829 15.54671097 C9.65008999 15.54470696 7.68205199 15.54717523 5.71403503 15.55414963 C2.96542401 15.56175221 0.21755014 15.55017676 -2.53100586 15.53344727 C-3.75608101 15.5425563 -3.75608101 15.5425563 -5.00590515 15.55184937 C-10.47403609 15.49006133 -10.47403609 15.49006133 -12.96813965 13.83584595 C-14.69790074 10.98497199 -14.87844419 8.43565417 -14.99389648 5.14526367 C-13.76620237 2.68987545 -12.97860962 1.50681773 -10.38023376 0.55278015 C-6.92612348 -0.03708067 -3.49313725 -0.00209987 0 0 Z " fill="#ffffff" transform="translate(736.993896484375,445.854736328125)"/>
<path d="M0 0 C0.86222672 -0.00700928 1.72445343 -0.01401855 2.61280823 -0.02124023 C5.46160125 -0.03883876 8.30940008 -0.027191 11.15820312 -0.01367188 C13.1383076 -0.01636626 15.11841079 -0.02024823 17.09851074 -0.02526855 C21.24793091 -0.03116612 25.3970066 -0.02259225 29.54638672 -0.00390625 C34.86643645 0.01888335 40.18567904 0.00576167 45.50569916 -0.01819611 C49.59436123 -0.03264704 53.6828318 -0.02805131 57.77149963 -0.01768494 C59.73311966 -0.01501571 61.69475705 -0.01829429 63.65635681 -0.02760315 C66.39767543 -0.0377571 69.13768518 -0.02228414 71.87890625 0 C73.09623192 -0.01214539 73.09623192 -0.01214539 74.33815002 -0.02453613 C77.91587871 0.02937178 80.02319218 0.21086701 82.9432373 2.36242676 C84.99094984 5.31195476 85.02561295 7.00061915 84.43945312 10.51757812 C82.94996643 12.67372131 82.94996643 12.67372131 80.43945312 14.51757812 C77.427044 14.90695406 74.78222005 15.05468047 71.77124023 15.01928711 C70.46086037 15.02739159 70.46086037 15.02739159 69.12400818 15.03565979 C66.23792592 15.04816201 63.35283822 15.03164754 60.46679688 15.01367188 C58.46187793 15.01382681 56.45695867 15.01531495 54.45204163 15.01808167 C50.25134024 15.01946628 46.05098004 15.0068959 41.8503418 14.98413086 C36.46079551 14.95572786 31.07181544 14.95848773 25.68222713 14.97122097 C21.54300584 14.97816886 17.4039159 14.97039935 13.26471138 14.95796394 C11.27715114 14.95344208 9.28957684 14.95311904 7.3020153 14.95702934 C4.52713885 14.9599333 1.75304869 14.94347445 -1.02172852 14.92163086 C-2.25847321 14.92838333 -2.25847321 14.92838333 -3.52020264 14.93527222 C-9.11154329 14.86198091 -9.11154329 14.86198091 -11.26761532 13.20819187 C-13.43934905 10.36847241 -12.98202945 7.9496505 -12.56054688 4.51757812 C-9.29301875 -0.27827113 -5.35056028 -0.0533831 0 0 Z " fill="#ffffff" transform="translate(377.560546875,452.482421875)"/>
<path d="M0 0 C0.86222672 -0.00700928 1.72445343 -0.01401855 2.61280823 -0.02124023 C5.46160125 -0.03883876 8.30940008 -0.027191 11.15820312 -0.01367188 C13.1383076 -0.01636626 15.11841079 -0.02024823 17.09851074 -0.02526855 C21.24793091 -0.03116612 25.3970066 -0.02259225 29.54638672 -0.00390625 C34.86643645 0.01888335 40.18567904 0.00576167 45.50569916 -0.01819611 C49.59436123 -0.03264704 53.6828318 -0.02805131 57.77149963 -0.01768494 C59.73311966 -0.01501571 61.69475705 -0.01829429 63.65635681 -0.02760315 C66.39767543 -0.0377571 69.13768518 -0.02228414 71.87890625 0 C73.09623192 -0.01214539 73.09623192 -0.01214539 74.33815002 -0.02453613 C77.91587871 0.02937178 80.02319218 0.21086701 82.9432373 2.36242676 C84.99094984 5.31195476 85.02561295 7.00061915 84.43945312 10.51757812 C82.9432373 12.67272949 82.9432373 12.67272949 80.43945312 14.51757812 C77.46223493 14.91211951 74.85536081 15.06485265 71.87890625 15.03515625 C71.01667953 15.04216553 70.15445282 15.0491748 69.26609802 15.05639648 C66.417305 15.07399501 63.56950617 15.06234725 60.72070312 15.04882812 C58.74059865 15.05152251 56.76049546 15.05540448 54.78039551 15.0604248 C50.63097534 15.06632237 46.48189965 15.0577485 42.33251953 15.0390625 C37.0124698 15.0162729 31.69322721 15.02939458 26.37320709 15.05335236 C22.28454502 15.06780329 18.19607445 15.06320756 14.10740662 15.05284119 C12.14578659 15.05017196 10.1841492 15.05345054 8.22254944 15.0627594 C5.48123082 15.07291335 2.74122107 15.05744039 0 15.03515625 C-1.21732567 15.04730164 -1.21732567 15.04730164 -2.45924377 15.05969238 C-6.03697246 15.00578447 -8.14428593 14.82428924 -11.06433105 12.67272949 C-13.11204359 9.72320149 -13.1467067 8.0345371 -12.56054688 4.51757812 C-9.24835569 -0.25330671 -5.36702422 -0.05354736 0 0 Z " fill="#ffffff" transform="translate(734.560546875,422.482421875)"/>
<path d="M0 0 C1.29312103 -0.01248528 1.29312103 -0.01248528 2.61236572 -0.02522278 C5.46631363 -0.04934766 8.32003317 -0.05809734 11.17407227 -0.06469727 C13.15560476 -0.07366076 15.13713654 -0.08278255 17.1186676 -0.09205627 C21.2739527 -0.10855493 25.42915713 -0.11624815 29.58447266 -0.11914062 C34.91244264 -0.1245294 40.23965622 -0.16222618 45.56741238 -0.20788479 C49.66033203 -0.23760503 53.7530683 -0.24486306 57.8460865 -0.24586678 C59.81053194 -0.25007807 61.77497749 -0.26254865 63.73931694 -0.28338432 C66.4856342 -0.31019836 69.23018182 -0.30550382 71.9765625 -0.29296875 C72.78968399 -0.30780304 73.60280548 -0.32263733 74.44056702 -0.33792114 C78.33994237 -0.28715989 80.16265089 -0.04758925 83.09681702 2.61338806 C85.06565169 6.25452839 84.59281349 8.36987839 83.55297852 12.30639648 C80.9467361 14.9126389 79.11334636 14.56003075 75.56248474 14.59967041 C74.72347122 14.59876404 73.8844577 14.59785767 73.02001953 14.59692383 C72.13697144 14.60364105 71.25392334 14.61035828 70.34411621 14.61727905 C67.41498237 14.63633085 64.48607676 14.64018678 61.55688477 14.64233398 C59.52668665 14.64875665 57.49648947 14.6554846 55.46629333 14.6625061 C51.20667372 14.67449666 46.94713531 14.67818507 42.6875 14.67700195 C37.22162873 14.6767986 31.75627646 14.70410963 26.2905283 14.73854637 C22.09642634 14.7607521 17.90245056 14.76484145 13.70829582 14.7637825 C11.69280138 14.76614768 9.67730394 14.77502239 7.66186714 14.79044724 C4.84598256 14.8099806 2.03123378 14.8043194 -0.78466797 14.79223633 C-1.62165726 14.80347534 -2.45864655 14.81471436 -3.32099915 14.82629395 C-8.95763685 14.76463755 -8.95763685 14.76463755 -11.47718811 12.40542603 C-13.18625879 8.70645058 -12.33484228 6.23817428 -11.44702148 2.30639648 C-7.60818316 -0.25282907 -4.45213223 0.00363029 0 0 Z " fill="#ffffff" transform="translate(734.447021484375,398.693603515625)"/>
</svg>